{"glyphs":{"0":{"ha":704,"x_min":49,"x_max":656,"o":"m 656 441 q 641 633 656 549 q 592 774 627 717 q 501 861 557 831 q 361 890 444 890 q 214 858 274 890 q 118 765 155 825 q 65 621 81 705 q 49 437 49 537 q 63 244 49 328 q 113 103 78 161 q 204 17 147 46 q 343 -13 260 -13 q 490 20 431 -13 q 587 113 550 53 q 640 256 624 173 q 656 441 656 340 m 536 433 q 533 339 536 384 q 522 255 530 294 q 500 184 514 216 q 466 130 487 153 q 417 95 446 107 q 350 83 388 83 q 267 102 301 83 q 211 165 233 122 q 178 278 189 209 q 168 445 168 347 q 176 582 168 518 q 204 693 183 646 q 260 768 224 741 q 354 795 296 795 q 413 786 387 795 q 459 759 439 778 q 494 712 479 741 q 518 643 509 683 q 532 551 527 603 q 536 433 536 498 "},"1":{"ha":704,"x_min":118,"x_max":629,"o":"m 629 46 q 627 67 629 58 q 622 82 625 76 q 614 91 619 87 q 604 94 610 94 l 446 94 l 446 865 q 444 872 446 869 q 435 879 441 876 q 418 882 429 881 q 391 884 408 884 q 371 883 379 884 q 357 882 363 883 q 347 879 351 880 q 340 876 342 878 l 138 746 q 128 738 132 742 q 122 728 124 734 q 119 715 120 723 q 118 695 118 707 q 120 669 118 680 q 126 655 121 659 q 139 652 131 650 q 159 660 146 653 l 329 761 l 329 94 l 146 94 q 136 91 140 94 q 129 82 132 87 q 123 67 125 76 q 121 46 121 58 q 123 24 121 33 q 129 10 125 16 q 137 2 133 5 q 146 0 141 0 l 604 0 q 613 2 609 0 q 621 10 618 5 q 627 24 625 16 q 629 46 629 33 "},"2":{"ha":704,"x_min":77,"x_max":627,"o":"m 627 50 q 625 72 627 62 q 620 87 623 81 q 611 96 616 93 q 600 99 606 99 l 218 99 l 357 244 q 478 381 433 321 q 548 489 524 440 q 579 579 572 537 q 587 663 587 621 q 571 751 587 709 q 524 823 555 792 q 445 872 492 854 q 333 890 397 890 q 257 882 293 890 q 190 862 220 874 q 140 838 160 850 q 112 819 120 826 q 101 807 104 812 q 97 797 98 802 q 94 784 95 791 q 94 766 94 777 q 95 742 94 752 q 99 726 96 732 q 105 717 101 720 q 113 714 109 714 q 138 726 121 714 q 179 751 155 737 q 237 776 204 764 q 311 787 270 787 q 374 776 347 787 q 419 745 401 764 q 446 699 437 725 q 456 644 456 673 q 450 581 456 614 q 424 507 444 548 q 369 417 405 467 q 275 305 334 368 l 104 125 q 91 108 96 116 q 83 93 86 100 q 78 75 79 85 q 77 51 77 64 q 80 26 77 36 q 87 10 82 16 q 99 2 92 5 q 116 0 106 0 l 601 0 q 612 3 607 0 q 620 13 617 6 q 625 28 623 19 q 627 50 627 38 "},"3":{"ha":704,"x_min":70,"x_max":620,"o":"m 620 251 q 605 329 620 292 q 562 392 589 365 q 497 437 535 419 q 414 460 460 455 l 414 461 q 485 488 454 469 q 536 535 515 507 q 568 598 557 562 q 579 675 579 633 q 564 763 579 723 q 518 831 549 802 q 441 875 487 859 q 334 890 395 890 q 253 882 290 890 q 186 862 215 874 q 138 838 157 850 q 112 820 118 826 q 102 808 105 813 q 98 798 100 804 q 95 784 96 792 q 94 766 94 777 q 95 742 94 751 q 99 728 96 733 q 105 721 101 723 q 113 720 109 720 q 137 731 120 720 q 180 757 154 743 q 238 782 205 770 q 311 794 271 794 q 374 784 347 794 q 419 755 401 773 q 446 712 437 736 q 454 660 454 687 q 441 592 454 623 q 403 541 428 562 q 343 507 378 519 q 262 496 307 496 l 186 496 q 175 493 180 496 q 166 486 170 491 q 161 472 163 481 q 159 451 159 464 q 161 428 159 437 q 167 414 163 419 q 176 406 171 408 q 186 404 181 404 l 270 404 q 363 392 322 404 q 432 359 404 380 q 475 307 460 337 q 490 240 490 277 q 478 177 490 206 q 444 127 467 149 q 387 95 420 106 q 308 83 353 83 q 224 94 262 83 q 158 118 186 105 q 112 141 130 130 q 88 152 94 152 q 75 142 79 152 q 70 109 70 133 q 71 84 70 94 q 74 68 72 75 q 79 56 76 61 q 86 47 81 52 q 111 32 92 42 q 161 11 131 21 q 229 -6 191 1 q 311 -13 267 -13 q 441 6 384 -13 q 538 59 499 24 q 599 142 578 94 q 620 251 620 191 "},"4":{"ha":704,"x_min":33,"x_max":664,"o":"m 664 250 q 657 286 664 274 q 638 298 650 298 l 539 298 l 539 858 q 534 868 539 864 q 518 876 528 873 q 491 880 508 878 q 452 882 475 882 q 417 881 432 882 q 392 877 402 880 q 375 870 382 874 q 366 861 369 866 l 50 328 q 41 311 45 319 q 36 295 38 303 q 33 276 34 286 q 33 253 33 266 q 34 227 33 237 q 40 211 36 216 q 50 203 45 205 q 64 201 56 201 l 426 201 l 426 17 q 428 8 426 12 q 437 1 431 4 q 454 -3 444 -1 q 481 -4 465 -4 q 509 -3 498 -4 q 527 1 520 -1 q 536 8 534 4 q 539 17 539 12 l 539 201 l 638 201 q 657 214 650 201 q 664 250 664 227 m 426 779 l 426 298 l 139 298 l 425 779 l 426 779 "},"5":{"ha":704,"x_min":68,"x_max":623,"o":"m 623 282 q 603 386 623 339 q 546 466 584 433 q 452 516 509 498 q 321 534 396 534 q 263 534 288 534 q 215 530 239 533 l 215 776 l 543 776 q 562 789 555 776 q 568 827 568 803 q 567 850 568 840 q 562 865 565 859 q 553 874 558 871 q 543 878 548 878 l 154 878 q 124 867 134 878 q 113 833 113 856 l 113 476 q 121 442 113 451 q 149 433 130 433 q 204 437 174 433 q 275 441 234 441 q 376 431 334 441 q 445 399 418 420 q 486 346 473 378 q 499 271 499 313 q 484 186 499 221 q 440 128 468 151 q 375 94 413 105 q 292 83 337 83 q 207 92 243 83 q 148 111 172 101 q 109 129 123 121 q 88 138 95 138 q 80 135 83 138 q 73 126 76 132 q 70 112 71 121 q 68 91 68 102 q 69 70 68 79 q 72 55 70 61 q 75 45 73 50 q 82 37 77 41 q 106 24 87 32 q 153 7 124 16 q 218 -7 181 -1 q 295 -13 254 -13 q 428 7 368 -13 q 532 64 488 26 q 599 157 575 102 q 623 282 623 212 "},"6":{"ha":704,"x_min":73,"x_max":649,"o":"m 649 284 q 636 385 649 338 q 593 466 623 431 q 514 519 563 500 q 394 538 465 538 q 332 533 361 538 q 276 520 302 528 q 228 502 250 512 q 189 481 206 492 q 204 601 191 544 q 247 702 218 659 q 321 771 276 745 q 430 797 367 797 q 491 792 465 797 q 535 782 517 787 q 566 771 553 776 q 587 766 579 766 q 596 769 593 766 q 603 777 600 772 q 605 791 605 783 q 606 812 606 800 q 605 828 606 822 q 603 840 604 835 q 599 849 602 845 q 592 858 597 854 q 572 867 587 861 q 536 879 557 873 q 488 887 514 884 q 437 890 463 890 q 307 869 363 890 q 210 814 250 849 q 143 732 170 779 q 100 631 116 685 q 79 520 85 578 q 73 406 73 463 q 78 287 73 342 q 96 184 83 231 q 129 101 109 138 q 181 39 150 64 q 254 1 212 14 q 351 -13 296 -13 q 484 12 428 -13 q 577 78 541 37 q 631 173 614 119 q 649 284 649 227 m 531 273 q 521 203 531 237 q 490 141 511 169 q 437 98 469 114 q 362 81 406 81 q 288 97 319 81 q 234 148 256 112 q 202 242 213 183 q 191 389 191 301 q 230 411 208 401 q 274 430 251 422 q 323 442 298 437 q 373 446 348 446 q 448 434 418 446 q 497 399 479 422 q 523 345 515 377 q 531 273 531 313 "},"7":{"ha":704,"x_min":67,"x_max":640,"o":"m 640 827 q 637 852 640 842 q 632 867 635 861 q 621 876 628 873 q 604 878 614 878 l 93 878 q 82 874 87 878 q 74 865 77 871 q 69 849 71 859 q 67 827 67 840 q 74 789 67 802 q 93 775 80 775 l 514 775 l 182 31 q 177 15 178 22 q 182 4 176 9 q 201 -2 188 0 q 237 -4 214 -4 q 267 -3 254 -4 q 287 1 279 -2 q 299 9 294 4 q 308 22 304 14 l 624 751 q 631 769 628 760 q 636 786 634 777 q 638 805 637 795 q 640 827 640 815 "},"8":{"ha":704,"x_min":56,"x_max":647,"o":"m 647 225 q 634 296 647 264 q 595 357 621 328 q 532 411 570 386 q 446 460 494 436 q 518 506 487 481 q 572 559 550 531 q 605 620 593 588 q 616 686 616 652 q 601 766 616 729 q 554 831 586 804 q 474 874 523 859 q 359 890 426 890 q 238 873 290 890 q 153 826 186 856 q 103 756 119 796 q 86 669 86 715 q 97 602 86 633 q 130 543 109 570 q 183 492 152 515 q 255 448 214 469 q 171 399 208 425 q 108 345 134 374 q 69 281 83 315 q 56 205 56 246 q 75 112 56 153 q 132 43 95 71 q 223 1 170 16 q 345 -13 277 -13 q 473 3 417 -13 q 568 49 530 18 q 627 124 606 79 q 647 225 647 168 m 500 675 q 464 581 500 624 q 359 503 427 538 q 289 544 318 524 q 240 583 259 563 q 211 626 220 604 q 202 675 202 649 q 240 766 202 733 q 351 800 277 800 q 415 791 387 800 q 462 766 443 783 q 491 727 481 750 q 500 675 500 704 m 529 213 q 485 114 529 151 q 353 78 440 78 q 219 114 264 78 q 174 216 174 150 q 184 270 174 245 q 215 317 195 295 q 268 361 236 340 q 343 403 300 382 q 424 360 389 380 q 483 317 459 339 q 517 270 506 295 q 529 213 529 244 "},"9":{"ha":704,"x_min":56,"x_max":633,"o":"m 633 473 q 628 588 633 534 q 609 690 622 643 q 574 773 595 736 q 521 837 552 810 q 447 877 490 863 q 350 890 405 890 q 217 867 273 890 q 125 803 161 843 q 73 710 90 763 q 56 600 56 658 q 69 496 56 543 q 112 414 82 448 q 192 359 142 379 q 315 339 242 339 q 431 355 380 339 q 517 393 481 372 q 500 274 515 330 q 456 175 486 218 q 379 107 426 132 q 266 81 332 81 q 203 86 231 81 q 155 98 176 92 q 121 109 134 104 q 100 114 107 114 q 91 112 94 114 q 85 106 87 111 q 82 92 83 101 q 81 68 81 83 q 84 40 81 51 q 94 24 87 30 q 115 12 100 18 q 152 0 130 5 q 202 -9 174 -5 q 258 -13 229 -13 q 392 7 334 -13 q 491 62 449 27 q 560 145 532 98 q 604 246 587 192 q 627 358 620 300 q 633 473 633 416 m 515 486 q 433 446 480 461 q 334 431 385 431 q 259 443 290 431 q 210 479 229 456 q 182 535 191 502 q 174 608 174 568 q 183 678 174 644 q 213 739 193 712 q 264 782 233 766 q 339 798 295 798 q 414 781 382 798 q 469 728 447 765 q 503 632 492 692 q 515 486 515 573 "},"\u0000":{"ha":0,"x_min":0,"x_max":0,"o":""},"\r":{"ha":0,"x_min":0,"x_max":0,"o":""}," ":{"ha":314,"x_min":0,"x_max":0,"o":""}," ":{"ha":314,"x_min":0,"x_max":0,"o":""},"A":{"ha":804,"x_min":24,"x_max":780,"o":"m 774 41 l 479 857 q 472 869 477 864 q 458 877 467 874 q 435 881 450 880 q 399 882 421 882 q 366 881 379 882 q 344 877 353 880 q 331 869 336 874 q 324 857 327 865 l 30 42 q 24 18 24 27 q 29 4 24 9 q 46 -2 34 -1 q 79 -4 59 -4 q 110 -3 98 -4 q 128 2 121 -1 q 138 9 134 5 q 143 20 141 14 l 215 231 l 580 231 l 655 17 q 661 7 658 11 q 670 0 664 3 q 689 -3 677 -2 q 723 -4 702 -4 q 756 -3 744 -4 q 774 3 769 -1 q 780 17 780 8 q 774 41 779 26 m 396 761 l 549 323 l 244 323 l 395 761 l 396 761 "},"À":{"ha":804,"x_min":24,"x_max":780,"o":"m 774 41 l 479 857 q 472 869 477 864 q 458 877 467 874 q 435 881 450 880 q 399 882 421 882 q 366 881 379 882 q 344 877 353 880 q 331 869 336 874 q 324 857 327 865 l 30 42 q 24 18 24 27 q 29 4 24 9 q 46 -2 34 -1 q 79 -4 59 -4 q 110 -3 98 -4 q 128 2 121 -1 q 138 9 134 5 q 143 20 141 14 l 215 231 l 580 231 l 655 17 q 661 7 658 11 q 670 0 664 3 q 689 -3 677 -2 q 723 -4 702 -4 q 756 -3 744 -4 q 774 3 769 -1 q 780 17 780 8 q 774 41 779 26 m 396 761 l 549 323 l 244 323 l 395 761 l 396 761 m 436 975 l 309 1120 q 294 1133 301 1128 q 277 1141 286 1138 q 257 1144 269 1143 q 228 1145 245 1145 q 196 1142 208 1145 q 179 1135 184 1139 q 176 1124 174 1130 q 185 1111 178 1118 l 338 967 q 351 957 345 960 q 364 950 357 953 q 381 947 372 948 q 405 946 391 946 q 430 948 420 946 q 442 953 439 949 q 444 962 446 957 q 436 975 442 968 m 86 878 "},"Á":{"ha":804,"x_min":24,"x_max":780,"o":"m 774 41 l 479 857 q 472 869 477 864 q 458 877 467 874 q 435 881 450 880 q 399 882 421 882 q 366 881 379 882 q 344 877 353 880 q 331 869 336 874 q 324 857 327 865 l 30 42 q 24 18 24 27 q 29 4 24 9 q 46 -2 34 -1 q 79 -4 59 -4 q 110 -3 98 -4 q 128 2 121 -1 q 138 9 134 5 q 143 20 141 14 l 215 231 l 580 231 l 655 17 q 661 7 658 11 q 670 0 664 3 q 689 -3 677 -2 q 723 -4 702 -4 q 756 -3 744 -4 q 774 3 769 -1 q 780 17 780 8 q 774 41 779 26 m 396 761 l 549 323 l 244 323 l 395 761 l 396 761 m 477 1120 l 349 975 q 342 962 343 968 q 344 953 340 957 q 356 948 347 949 q 380 946 365 946 q 405 947 395 946 q 422 950 414 948 q 435 957 429 953 q 448 967 441 960 l 602 1111 q 609 1124 608 1118 q 606 1135 611 1130 q 590 1142 602 1139 q 558 1145 578 1145 q 529 1144 541 1145 q 508 1141 517 1143 q 492 1133 499 1138 q 477 1120 485 1128 m 252 878 "},"Â":{"ha":804,"x_min":24,"x_max":780,"o":"m 774 41 l 479 857 q 472 869 477 864 q 458 877 467 874 q 435 881 450 880 q 399 882 421 882 q 366 881 379 882 q 344 877 353 880 q 331 869 336 874 q 324 857 327 865 l 30 42 q 24 18 24 27 q 29 4 24 9 q 46 -2 34 -1 q 79 -4 59 -4 q 110 -3 98 -4 q 128 2 121 -1 q 138 9 134 5 q 143 20 141 14 l 215 231 l 580 231 l 655 17 q 661 7 658 11 q 670 0 664 3 q 689 -3 677 -2 q 723 -4 702 -4 q 756 -3 744 -4 q 774 3 769 -1 q 780 17 780 8 q 774 41 779 26 m 396 761 l 549 323 l 244 323 l 395 761 l 396 761 m 410 1145 q 386 1145 396 1145 q 369 1142 376 1144 q 356 1136 361 1139 q 345 1126 350 1132 l 193 972 q 185 960 186 965 q 188 952 184 956 q 200 948 191 949 q 227 946 210 946 q 257 947 245 946 q 277 949 269 947 q 291 955 286 951 q 302 964 296 959 l 410 1078 l 514 961 q 522 955 517 958 q 534 950 526 951 q 553 947 541 948 q 586 946 566 946 q 610 947 601 946 q 624 952 620 949 q 627 960 628 955 q 619 972 625 965 l 474 1126 q 463 1136 468 1132 q 451 1142 458 1139 q 434 1145 444 1144 q 410 1145 425 1145 m 95 878 "},"Ã":{"ha":804,"x_min":24,"x_max":780,"o":"m 774 41 l 479 857 q 472 869 477 864 q 458 877 467 874 q 435 881 450 880 q 399 882 421 882 q 366 881 379 882 q 344 877 353 880 q 331 869 336 874 q 324 857 327 865 l 30 42 q 24 18 24 27 q 29 4 24 9 q 46 -2 34 -1 q 79 -4 59 -4 q 110 -3 98 -4 q 128 2 121 -1 q 138 9 134 5 q 143 20 141 14 l 215 231 l 580 231 l 655 17 q 661 7 658 11 q 670 0 664 3 q 689 -3 677 -2 q 723 -4 702 -4 q 756 -3 744 -4 q 774 3 769 -1 q 780 17 780 8 q 774 41 779 26 m 396 761 l 549 323 l 244 323 l 395 761 l 396 761 m 555 1095 q 542 1046 555 1060 q 504 1032 528 1032 q 462 1044 481 1032 q 421 1071 443 1057 q 373 1097 399 1085 q 311 1109 347 1109 q 256 1100 281 1109 q 214 1074 231 1091 q 186 1032 196 1057 q 177 974 177 1006 q 184 952 177 958 q 216 947 192 947 q 234 947 226 947 q 247 949 241 947 q 255 954 252 951 q 258 962 258 957 q 270 1007 258 990 q 310 1024 281 1024 q 351 1012 332 1024 q 392 986 370 1000 q 441 959 414 971 q 503 947 467 947 q 602 983 567 947 q 637 1082 637 1019 q 629 1104 637 1099 q 597 1109 622 1109 q 565 1106 574 1109 q 555 1095 555 1103 m 90 878 "},"Ä":{"ha":804,"x_min":24,"x_max":780,"o":"m 774 41 l 479 857 q 472 869 477 864 q 458 877 467 874 q 435 881 450 880 q 399 882 421 882 q 366 881 379 882 q 344 877 353 880 q 331 869 336 874 q 324 857 327 865 l 30 42 q 24 18 24 27 q 29 4 24 9 q 46 -2 34 -1 q 79 -4 59 -4 q 110 -3 98 -4 q 128 2 121 -1 q 138 9 134 5 q 143 20 141 14 l 215 231 l 580 231 l 655 17 q 661 7 658 11 q 670 0 664 3 q 689 -3 677 -2 q 723 -4 702 -4 q 756 -3 744 -4 q 774 3 769 -1 q 780 17 780 8 q 774 41 779 26 m 396 761 l 549 323 l 244 323 l 395 761 l 396 761 m 331 1037 q 317 1088 331 1074 q 265 1101 303 1101 q 213 1087 227 1101 q 199 1036 199 1074 q 213 984 199 998 q 264 970 227 970 q 317 985 302 970 q 331 1037 331 999 m 611 1037 q 597 1088 611 1074 q 545 1101 584 1101 q 494 1087 508 1101 q 479 1036 479 1074 q 493 984 479 998 q 545 970 507 970 q 597 985 583 970 q 611 1037 611 999 m 110 878 "},"Ā":{"ha":804,"x_min":24,"x_max":780,"o":"m 774 41 l 479 857 q 472 869 477 864 q 458 877 467 874 q 435 881 450 880 q 399 882 421 882 q 366 881 379 882 q 344 877 353 880 q 331 869 336 874 q 324 857 327 865 l 30 42 q 24 18 24 27 q 29 4 24 9 q 46 -2 34 -1 q 79 -4 59 -4 q 110 -3 98 -4 q 128 2 121 -1 q 138 9 134 5 q 143 20 141 14 l 215 231 l 580 231 l 655 17 q 661 7 658 11 q 670 0 664 3 q 689 -3 677 -2 q 723 -4 702 -4 q 756 -3 744 -4 q 774 3 769 -1 q 780 17 780 8 q 774 41 779 26 m 396 761 l 549 323 l 244 323 l 395 761 l 396 761 m 591 1078 l 221 1078 q 211 1076 216 1078 q 204 1067 207 1073 q 200 1053 201 1062 q 199 1034 199 1044 q 200 1014 199 1022 q 204 999 201 1005 q 211 991 207 994 q 221 988 216 988 l 591 988 q 600 991 596 988 q 607 999 604 994 q 611 1014 610 1005 q 612 1034 612 1022 q 611 1054 612 1045 q 607 1067 610 1062 q 600 1076 604 1073 q 591 1078 596 1078 m 109 878 "},"Ă":{"ha":804,"x_min":24,"x_max":780,"o":"m 774 41 l 479 857 q 472 869 477 864 q 458 877 467 874 q 435 881 450 880 q 399 882 421 882 q 366 881 379 882 q 344 877 353 880 q 331 869 336 874 q 324 857 327 865 l 30 42 q 24 18 24 27 q 29 4 24 9 q 46 -2 34 -1 q 79 -4 59 -4 q 110 -3 98 -4 q 128 2 121 -1 q 138 9 134 5 q 143 20 141 14 l 215 231 l 580 231 l 655 17 q 661 7 658 11 q 670 0 664 3 q 689 -3 677 -2 q 723 -4 702 -4 q 756 -3 744 -4 q 774 3 769 -1 q 780 17 780 8 q 774 41 779 26 m 396 761 l 549 323 l 244 323 l 395 761 l 396 761 m 583 1128 q 574 1143 583 1139 q 541 1147 566 1147 q 507 1142 514 1147 q 498 1121 499 1137 q 490 1083 498 1105 q 461 1044 482 1061 q 406 1028 441 1028 q 365 1036 382 1028 q 336 1059 347 1044 q 318 1097 324 1074 q 312 1131 313 1120 q 302 1144 312 1141 q 268 1147 292 1147 q 236 1143 244 1147 q 229 1128 229 1139 q 239 1055 229 1088 q 271 998 249 1022 q 326 960 292 974 q 404 946 359 946 q 479 959 446 946 q 536 995 513 971 q 571 1052 559 1019 q 583 1128 583 1086 m 139 878 "},"Å":{"ha":804,"x_min":24,"x_max":780,"o":"m 774 41 l 479 857 q 472 869 477 864 q 458 877 467 874 q 435 881 450 880 q 399 882 421 882 q 366 881 379 882 q 344 877 353 880 q 331 869 336 874 q 324 857 327 865 l 30 42 q 24 18 24 27 q 29 4 24 9 q 46 -2 34 -1 q 79 -4 59 -4 q 110 -3 98 -4 q 128 2 121 -1 q 138 9 134 5 q 143 20 141 14 l 215 231 l 580 231 l 655 17 q 661 7 658 11 q 670 0 664 3 q 689 -3 677 -2 q 723 -4 702 -4 q 756 -3 744 -4 q 774 3 769 -1 q 780 17 780 8 q 774 41 779 26 m 396 761 l 549 323 l 244 323 l 395 761 l 396 761 m 544 1052 q 509 1143 544 1110 q 408 1176 473 1176 q 348 1166 374 1176 q 304 1140 322 1157 q 276 1100 286 1124 q 267 1047 267 1076 q 275 996 267 1019 q 300 957 283 973 q 343 931 317 941 q 403 922 368 922 q 461 932 435 922 q 506 959 488 942 q 534 1000 524 976 q 544 1052 544 1023 m 468 1048 q 453 1002 468 1020 q 407 984 438 984 q 357 1002 372 984 q 342 1052 342 1021 q 358 1098 342 1081 q 406 1115 374 1115 q 453 1096 439 1115 q 468 1048 468 1076 m 178 878 "},"Ǻ":{"ha":804,"x_min":24,"x_max":780,"o":"m 774 41 l 479 857 q 472 869 477 864 q 458 877 467 874 q 435 881 450 880 q 399 882 421 882 q 366 881 379 882 q 344 877 353 880 q 331 869 336 874 q 324 857 327 865 l 30 42 q 24 18 24 27 q 29 4 24 9 q 46 -2 34 -1 q 79 -4 59 -4 q 110 -3 98 -4 q 128 2 121 -1 q 138 9 134 5 q 143 20 141 14 l 215 231 l 580 231 l 655 17 q 661 7 658 11 q 670 0 664 3 q 689 -3 677 -2 q 723 -4 702 -4 q 756 -3 744 -4 q 774 3 769 -1 q 780 17 780 8 q 774 41 779 26 m 396 761 l 549 323 l 244 323 l 395 761 l 396 761 m 409 1299 l 301 1190 q 293 1178 295 1183 q 295 1170 292 1173 q 307 1165 298 1166 q 331 1163 316 1163 q 352 1164 344 1163 q 368 1167 361 1165 q 380 1174 374 1170 q 392 1183 385 1178 l 527 1293 q 534 1303 533 1298 q 531 1313 536 1309 q 514 1320 526 1317 q 483 1322 503 1322 q 457 1322 468 1322 q 438 1318 446 1321 q 423 1311 430 1316 q 409 1299 416 1306 m 522 1029 q 513 1075 522 1054 q 488 1109 505 1095 q 447 1132 471 1124 q 392 1140 422 1140 q 334 1131 359 1140 q 292 1107 309 1122 q 266 1070 275 1092 q 257 1024 257 1049 q 266 979 257 1000 q 291 944 274 958 q 332 921 307 929 q 390 913 357 913 q 444 922 420 913 q 486 946 469 930 q 512 983 503 962 q 522 1029 522 1004 m 451 1025 q 447 1003 451 1013 q 435 984 443 992 q 417 971 428 976 q 391 967 406 967 q 362 972 374 967 q 342 985 350 977 q 332 1004 335 994 q 328 1028 328 1015 q 343 1069 328 1053 q 389 1085 359 1085 q 417 1080 405 1085 q 436 1066 429 1075 q 447 1047 444 1058 q 451 1025 451 1036 m 175 878 "},"Ą":{"ha":804,"x_min":24,"x_max":796,"o":"m 796 -197 q 792 -170 796 -176 q 777 -163 787 -163 l 717 -163 q 671 -155 684 -163 q 659 -130 659 -146 q 665 -104 659 -117 q 687 -75 671 -92 l 739 -23 q 762 1 754 -9 q 772 21 770 12 q 772 41 774 31 q 764 68 770 52 l 479 857 q 472 869 476 865 q 458 877 467 874 q 435 881 450 880 q 399 882 421 882 q 366 881 379 882 q 344 877 353 880 q 331 869 336 874 q 324 857 327 865 l 30 42 q 24 18 24 27 q 29 4 24 9 q 46 -2 34 -1 q 79 -4 59 -4 q 110 -3 98 -4 q 128 2 121 -1 q 137 9 134 5 q 143 20 140 14 l 215 231 l 580 231 l 656 14 l 607 -35 q 577 -68 589 -53 q 558 -98 565 -84 q 549 -124 551 -112 q 546 -146 546 -136 q 556 -193 546 -174 q 586 -224 567 -212 q 631 -242 604 -237 q 689 -248 657 -248 q 714 -247 702 -248 q 739 -244 726 -245 q 764 -239 751 -243 q 782 -233 777 -236 q 790 -225 787 -230 q 794 -214 793 -221 q 796 -197 796 -208 m 396 761 l 549 323 l 244 323 l 395 761 l 396 761 "},"Æ":{"ha":1060,"x_min":-35,"x_max":985,"o":"m 985 48 q 984 71 985 62 q 980 86 983 80 q 972 94 977 92 q 963 97 968 97 l 614 97 l 614 408 l 909 408 q 919 410 915 408 q 926 419 924 413 q 931 434 929 425 q 932 456 932 443 q 931 478 932 469 q 926 493 929 487 q 919 502 924 499 q 909 505 915 505 l 614 505 l 614 781 l 958 781 q 967 783 963 781 q 975 792 972 786 q 979 807 978 798 q 981 828 981 816 q 979 851 981 842 q 975 866 978 860 q 967 875 972 872 q 958 878 963 878 l 496 878 q 464 877 477 878 q 441 873 450 876 q 427 866 433 871 q 417 852 421 861 l -25 42 q -33 25 -31 32 q -35 14 -35 18 q -32 4 -35 8 q -22 -1 -29 1 q -5 -3 -15 -3 q 20 -4 5 -4 q 52 -3 39 -4 q 72 1 64 -2 q 84 8 80 3 q 92 19 88 12 l 196 214 l 498 214 l 498 47 q 512 11 498 21 q 542 0 526 0 l 963 0 q 972 3 968 0 q 980 12 977 5 q 984 27 983 18 q 985 48 985 36 m 498 781 l 498 308 l 240 308 l 494 781 l 498 781 "},"Ǽ":{"ha":1060,"x_min":-35,"x_max":985,"o":"m 985 48 q 984 71 985 62 q 980 86 983 80 q 972 94 977 92 q 963 97 968 97 l 614 97 l 614 408 l 909 408 q 919 410 915 408 q 926 419 924 413 q 931 434 929 425 q 932 456 932 443 q 931 478 932 469 q 926 493 929 487 q 919 502 924 499 q 909 505 915 505 l 614 505 l 614 781 l 958 781 q 967 783 963 781 q 975 792 972 786 q 979 807 978 798 q 981 828 981 816 q 979 851 981 842 q 975 866 978 860 q 967 875 972 872 q 958 878 963 878 l 496 878 q 464 877 477 878 q 441 873 450 876 q 427 866 433 871 q 417 852 421 861 l -25 42 q -33 25 -31 32 q -35 14 -35 18 q -32 4 -35 8 q -22 -1 -29 1 q -5 -3 -15 -3 q 20 -4 5 -4 q 52 -3 39 -4 q 72 1 64 -2 q 84 8 80 3 q 92 19 88 12 l 196 214 l 498 214 l 498 47 q 512 11 498 21 q 542 0 526 0 l 963 0 q 972 3 968 0 q 980 12 977 5 q 984 27 983 18 q 985 48 985 36 m 498 781 l 498 308 l 240 308 l 494 781 l 498 781 m 676 1120 l 548 975 q 541 962 542 968 q 543 953 539 957 q 555 948 546 949 q 579 946 564 946 q 603 947 593 946 q 621 950 613 948 q 634 957 628 953 q 646 967 640 960 l 800 1111 q 808 1124 806 1118 q 805 1135 810 1130 q 789 1142 800 1139 q 757 1145 777 1145 q 728 1144 740 1145 q 707 1141 715 1143 q 691 1133 698 1138 q 676 1120 684 1128 m 450 878 "},"B":{"ha":755,"x_min":117,"x_max":695,"o":"m 695 252 q 682 334 695 296 q 645 399 668 371 q 590 445 621 427 q 523 469 559 463 q 573 500 551 481 q 610 544 595 519 q 632 596 625 568 q 640 656 640 625 q 623 749 640 708 q 572 819 606 791 q 488 863 538 848 q 359 878 438 878 l 160 878 q 131 867 144 878 q 117 830 117 857 l 117 47 q 131 11 117 21 q 160 0 144 0 l 389 0 q 477 7 439 0 q 549 28 515 14 q 609 64 583 43 q 655 113 636 85 q 685 175 674 140 q 695 252 695 210 m 519 644 q 511 589 519 616 q 484 542 503 562 q 438 510 466 522 q 365 498 410 498 l 232 498 l 232 783 l 353 783 q 433 773 403 783 q 483 746 464 764 q 511 702 502 728 q 519 644 519 676 m 572 245 q 559 180 572 208 q 524 134 547 153 q 471 106 501 115 q 401 96 441 96 l 232 96 l 232 406 l 372 406 q 463 395 427 406 q 523 364 499 385 q 560 314 547 344 q 572 245 572 284 "},"C":{"ha":741,"x_min":66,"x_max":703,"o":"m 703 124 q 702 150 703 140 q 699 166 701 160 q 693 174 696 172 q 685 176 690 176 q 657 163 675 176 q 612 134 640 150 q 546 105 585 118 q 454 92 507 92 q 344 114 393 92 q 261 179 295 136 q 210 287 228 222 q 192 434 192 351 q 211 584 192 518 q 263 694 229 649 q 345 763 297 740 q 451 787 393 787 q 543 773 505 787 q 608 744 581 760 q 652 715 635 728 q 678 702 669 702 q 687 705 684 702 q 694 714 691 708 q 698 730 696 721 q 699 753 699 740 q 698 774 699 766 q 695 790 697 783 q 691 801 694 796 q 679 815 688 806 q 646 838 670 824 q 592 863 623 852 q 526 881 562 874 q 452 888 490 888 q 295 857 366 888 q 173 767 224 826 q 94 622 122 707 q 66 427 66 536 q 92 239 66 321 q 166 102 118 157 q 284 18 215 46 q 438 -11 353 -11 q 529 -2 488 -11 q 603 21 571 7 q 657 48 635 34 q 686 68 679 62 q 695 80 692 75 q 700 91 698 85 q 702 105 701 97 q 703 124 703 113 "},"Ć":{"ha":741,"x_min":66,"x_max":703,"o":"m 703 124 q 702 150 703 140 q 699 166 701 160 q 693 174 696 172 q 685 176 690 176 q 657 163 675 176 q 612 134 640 150 q 546 105 585 118 q 454 92 507 92 q 344 114 393 92 q 261 179 295 136 q 210 287 228 222 q 192 434 192 351 q 211 584 192 518 q 263 694 229 649 q 345 763 297 740 q 451 787 393 787 q 543 773 505 787 q 608 744 581 760 q 652 715 635 728 q 678 702 669 702 q 687 705 684 702 q 694 714 691 708 q 698 730 696 721 q 699 753 699 740 q 698 774 699 766 q 695 790 697 783 q 691 801 694 796 q 679 815 688 806 q 646 838 670 824 q 592 863 623 852 q 526 881 562 874 q 452 888 490 888 q 295 857 366 888 q 173 767 224 826 q 94 622 122 707 q 66 427 66 536 q 92 239 66 321 q 166 102 118 157 q 284 18 215 46 q 438 -11 353 -11 q 529 -2 488 -11 q 603 21 571 7 q 657 48 635 34 q 686 68 679 62 q 695 80 692 75 q 700 91 698 85 q 702 105 701 97 q 703 124 703 113 m 490 1120 l 361 975 q 354 962 355 968 q 356 953 353 957 q 368 948 359 949 q 393 946 377 946 q 417 947 407 946 q 434 950 427 948 q 447 957 441 953 q 460 967 453 960 l 614 1111 q 622 1124 620 1118 q 618 1135 623 1130 q 602 1142 614 1139 q 570 1145 591 1145 q 541 1144 553 1145 q 520 1141 529 1143 q 504 1133 511 1138 q 490 1120 497 1128 m 264 878 "},"Ĉ":{"ha":741,"x_min":66,"x_max":703,"o":"m 703 124 q 702 150 703 140 q 699 166 701 160 q 693 174 696 172 q 685 176 690 176 q 657 163 675 176 q 612 134 640 150 q 546 105 585 118 q 454 92 507 92 q 344 114 393 92 q 261 179 295 136 q 210 287 228 222 q 192 434 192 351 q 211 584 192 518 q 263 694 229 649 q 345 763 297 740 q 451 787 393 787 q 543 773 505 787 q 608 744 581 760 q 652 715 635 728 q 678 702 669 702 q 687 705 684 702 q 694 714 691 708 q 698 730 696 721 q 699 753 699 740 q 698 774 699 766 q 695 790 697 783 q 691 801 694 796 q 679 815 688 806 q 646 838 670 824 q 592 863 623 852 q 526 881 562 874 q 452 888 490 888 q 295 857 366 888 q 173 767 224 826 q 94 622 122 707 q 66 427 66 536 q 92 239 66 321 q 166 102 118 157 q 284 18 215 46 q 438 -11 353 -11 q 529 -2 488 -11 q 603 21 571 7 q 657 48 635 34 q 686 68 679 62 q 695 80 692 75 q 700 91 698 85 q 702 105 701 97 q 703 124 703 113 m 437 1145 q 413 1145 422 1145 q 395 1142 403 1144 q 382 1136 388 1139 q 371 1126 376 1132 l 219 972 q 212 960 213 965 q 214 952 210 956 q 227 948 218 949 q 253 946 236 946 q 283 947 271 946 q 304 949 296 947 q 317 955 312 951 q 328 964 323 959 l 436 1078 l 541 961 q 548 955 544 958 q 560 950 553 951 q 580 947 568 948 q 612 946 592 946 q 637 947 627 946 q 650 952 646 949 q 653 960 654 955 q 646 972 652 965 l 500 1126 q 489 1136 494 1132 q 477 1142 484 1139 q 460 1145 470 1144 q 437 1145 451 1145 m 121 878 "},"Č":{"ha":741,"x_min":66,"x_max":703,"o":"m 703 124 q 702 150 703 140 q 699 166 701 160 q 693 174 696 172 q 685 176 690 176 q 657 163 675 176 q 612 134 640 150 q 546 105 585 118 q 454 92 507 92 q 344 114 393 92 q 261 179 295 136 q 210 287 228 222 q 192 434 192 351 q 211 584 192 518 q 263 694 229 649 q 345 763 297 740 q 451 787 393 787 q 543 773 505 787 q 608 744 581 760 q 652 715 635 728 q 678 702 669 702 q 687 705 684 702 q 694 714 691 708 q 698 730 696 721 q 699 753 699 740 q 698 774 699 766 q 695 790 697 783 q 691 801 694 796 q 679 815 688 806 q 646 838 670 824 q 592 863 623 852 q 526 881 562 874 q 452 888 490 888 q 295 857 366 888 q 173 767 224 826 q 94 622 122 707 q 66 427 66 536 q 92 239 66 321 q 166 102 118 157 q 284 18 215 46 q 438 -11 353 -11 q 529 -2 488 -11 q 603 21 571 7 q 657 48 635 34 q 686 68 679 62 q 695 80 692 75 q 700 91 698 85 q 702 105 701 97 q 703 124 703 113 m 433 946 q 457 947 448 946 q 475 950 467 947 q 488 956 482 952 q 500 966 494 960 l 651 1120 q 658 1131 656 1126 q 656 1139 660 1136 q 643 1144 653 1142 q 617 1145 633 1145 q 587 1145 599 1145 q 567 1142 574 1144 q 553 1136 559 1140 q 543 1127 547 1133 l 434 1013 l 330 1130 q 321 1137 326 1133 q 310 1142 317 1140 q 290 1144 302 1143 q 258 1145 278 1145 q 233 1144 243 1145 q 220 1140 224 1143 q 217 1132 216 1137 q 224 1120 218 1126 l 370 966 q 381 956 376 960 q 393 949 386 951 q 410 947 400 947 q 433 946 419 946 m 127 878 "},"Ċ":{"ha":741,"x_min":66,"x_max":703,"o":"m 703 124 q 702 150 703 140 q 699 166 701 160 q 693 174 696 172 q 685 176 690 176 q 657 163 675 176 q 612 134 640 150 q 546 105 585 118 q 454 92 507 92 q 344 114 393 92 q 261 179 295 136 q 210 287 228 222 q 192 434 192 351 q 211 584 192 518 q 263 694 229 649 q 345 763 297 740 q 451 787 393 787 q 543 773 505 787 q 608 744 581 760 q 652 715 635 728 q 678 702 669 702 q 687 705 684 702 q 694 714 691 708 q 698 730 696 721 q 699 753 699 740 q 698 774 699 766 q 695 790 697 783 q 691 801 694 796 q 679 815 688 806 q 646 838 670 824 q 592 863 623 852 q 526 881 562 874 q 452 888 490 888 q 295 857 366 888 q 173 767 224 826 q 94 622 122 707 q 66 427 66 536 q 92 239 66 321 q 166 102 118 157 q 284 18 215 46 q 438 -11 353 -11 q 529 -2 488 -11 q 603 21 571 7 q 657 48 635 34 q 686 68 679 62 q 695 80 692 75 q 700 91 698 85 q 702 105 701 97 q 703 124 703 113 m 511 1037 q 497 1088 511 1074 q 444 1102 482 1102 q 391 1087 406 1102 q 376 1036 376 1073 q 391 984 376 998 q 443 970 405 970 q 496 985 481 970 q 511 1037 511 999 m 287 878 "},"Ç":{"ha":741,"x_min":66,"x_max":703,"o":"m 500 -50 l 481 -9 q 542 1 510 -7 q 605 21 574 8 q 657 48 635 34 q 686 68 679 62 q 695 80 692 75 q 700 91 698 85 q 702 105 701 97 q 703 124 703 113 q 702 150 703 140 q 699 166 701 160 q 693 174 696 172 q 685 176 690 176 q 657 163 675 176 q 611 134 640 150 q 544 105 583 117 q 454 92 504 92 q 344 114 393 92 q 261 179 295 136 q 210 287 228 222 q 192 434 192 351 q 211 584 192 518 q 263 694 229 649 q 345 763 297 740 q 451 787 393 787 q 543 773 505 787 q 608 744 581 760 q 652 715 635 728 q 678 702 669 702 q 687 705 684 702 q 694 714 691 708 q 698 730 696 721 q 699 753 699 740 q 698 774 699 766 q 695 790 697 783 q 691 801 694 796 q 679 815 688 806 q 646 838 670 824 q 592 863 623 852 q 526 881 562 874 q 452 888 490 888 q 295 857 366 888 q 173 767 224 826 q 94 622 122 707 q 66 427 66 536 q 92 239 66 321 q 164 105 118 157 q 266 26 210 52 q 382 -7 322 -1 l 414 -77 q 425 -105 420 -92 q 429 -127 429 -118 q 416 -154 429 -145 q 382 -163 404 -163 l 298 -163 q 284 -171 288 -163 q 279 -199 279 -178 q 280 -215 279 -209 q 284 -225 281 -221 q 292 -232 286 -229 q 313 -238 297 -235 q 349 -244 328 -241 q 394 -248 370 -248 q 449 -240 425 -248 q 491 -219 473 -233 q 517 -184 508 -205 q 527 -138 527 -164 q 521 -101 527 -121 q 500 -50 515 -81 "},"D":{"ha":854,"x_min":117,"x_max":791,"o":"m 791 452 q 764 629 791 551 q 683 763 736 708 q 551 848 630 819 q 359 878 473 878 l 160 878 q 131 867 144 878 q 117 830 117 857 l 117 47 q 131 11 117 21 q 160 0 144 0 l 346 0 q 540 28 458 0 q 677 112 621 56 q 762 253 733 168 q 791 452 791 338 m 669 447 q 649 292 669 357 q 591 183 630 227 q 495 119 553 140 q 353 98 437 98 l 233 98 l 233 781 l 352 781 q 500 755 443 781 q 596 686 558 730 q 651 579 633 641 q 669 447 669 518 "},"Ď":{"ha":854,"x_min":102,"x_max":791,"o":"m 791 452 q 764 629 791 551 q 683 763 736 708 q 551 848 630 819 q 359 878 473 878 l 160 878 q 131 867 144 878 q 117 830 117 857 l 117 47 q 131 11 117 21 q 160 0 144 0 l 346 0 q 540 28 458 0 q 677 112 621 56 q 762 253 733 168 q 791 452 791 338 m 669 447 q 649 292 669 357 q 591 183 630 227 q 495 119 553 140 q 353 98 437 98 l 233 98 l 233 781 l 352 781 q 500 755 443 781 q 596 686 558 730 q 651 579 633 641 q 669 447 669 518 m 408 946 q 432 947 422 946 q 450 950 442 947 q 463 956 457 952 q 475 966 469 960 l 626 1120 q 633 1131 631 1126 q 631 1139 635 1136 q 618 1144 628 1142 q 592 1145 608 1145 q 562 1145 574 1145 q 542 1142 549 1144 q 528 1136 534 1140 q 517 1127 522 1133 l 409 1013 l 304 1130 q 296 1137 300 1133 q 285 1142 292 1140 q 265 1144 277 1143 q 233 1145 253 1145 q 208 1144 218 1145 q 195 1140 199 1143 q 192 1132 191 1137 q 199 1120 193 1126 l 345 966 q 356 956 351 960 q 368 949 361 951 q 385 947 375 947 q 408 946 394 946 m 102 878 "},"Đ":{"ha":867,"x_min":18,"x_max":804,"o":"m 804 452 q 777 629 804 551 q 696 763 749 708 q 564 848 643 819 q 371 878 485 878 l 172 878 q 143 867 157 878 q 130 830 130 857 l 130 505 l 41 505 q 32 502 36 505 q 24 493 27 499 q 20 478 21 487 q 18 456 18 469 q 20 434 18 443 q 24 419 21 425 q 32 410 27 413 q 41 408 36 408 l 130 408 l 130 47 q 143 11 130 21 q 172 0 157 0 l 358 0 q 552 28 471 0 q 690 112 633 56 q 775 253 746 168 q 804 452 804 338 m 681 447 q 662 292 681 357 q 604 183 642 227 q 508 119 566 140 q 366 98 450 98 l 245 98 l 245 408 l 406 408 q 415 410 410 408 q 422 419 419 413 q 427 434 425 425 q 428 456 428 443 q 427 478 428 469 q 422 493 425 487 q 415 502 419 499 q 406 505 410 505 l 245 505 l 245 781 l 364 781 q 513 755 455 781 q 608 686 571 730 q 663 579 646 641 q 681 447 681 518 "},"Ð":{"ha":867,"x_min":18,"x_max":804,"o":"m 804 452 q 777 629 804 551 q 696 763 749 708 q 564 848 643 819 q 371 878 485 878 l 172 878 q 143 867 157 878 q 130 830 130 857 l 130 505 l 41 505 q 32 502 36 505 q 24 493 27 499 q 20 478 21 487 q 18 456 18 469 q 20 434 18 443 q 24 419 21 425 q 32 410 27 413 q 41 408 36 408 l 130 408 l 130 47 q 143 11 130 21 q 172 0 157 0 l 358 0 q 552 28 471 0 q 690 112 633 56 q 775 253 746 168 q 804 452 804 338 m 681 447 q 662 292 681 357 q 604 183 642 227 q 508 119 566 140 q 366 98 450 98 l 245 98 l 245 408 l 406 408 q 415 410 410 408 q 422 419 419 413 q 427 434 425 425 q 428 456 428 443 q 427 478 428 469 q 422 493 425 487 q 415 502 419 499 q 406 505 410 505 l 245 505 l 245 781 l 364 781 q 513 755 455 781 q 608 686 571 730 q 663 579 646 641 q 681 447 681 518 "},"E":{"ha":678,"x_min":117,"x_max":605,"o":"m 605 48 q 604 71 605 62 q 599 86 602 80 q 591 94 595 92 q 581 97 587 97 l 233 97 l 233 411 l 528 411 q 537 413 533 411 q 545 421 542 416 q 549 435 548 427 q 551 456 551 444 q 549 479 551 469 q 545 494 548 488 q 537 502 542 499 q 528 505 533 505 l 233 505 l 233 781 l 576 781 q 586 783 582 781 q 593 792 591 786 q 598 807 596 798 q 600 828 600 816 q 598 851 600 842 q 593 866 596 860 q 586 875 591 872 q 576 878 582 878 l 160 878 q 131 867 144 878 q 117 830 117 857 l 117 47 q 131 11 117 21 q 160 0 144 0 l 581 0 q 591 3 587 0 q 599 12 595 5 q 604 27 602 18 q 605 48 605 36 "},"È":{"ha":678,"x_min":47,"x_max":605,"o":"m 605 48 q 604 71 605 62 q 599 86 602 80 q 591 94 595 92 q 581 97 587 97 l 233 97 l 233 411 l 528 411 q 537 413 533 411 q 545 421 542 416 q 549 435 548 427 q 551 456 551 444 q 549 479 551 469 q 545 494 548 488 q 537 502 542 499 q 528 505 533 505 l 233 505 l 233 781 l 576 781 q 586 783 582 781 q 593 792 591 786 q 598 807 596 798 q 600 828 600 816 q 598 851 600 842 q 593 866 596 860 q 586 875 591 872 q 576 878 582 878 l 160 878 q 131 867 144 878 q 117 830 117 857 l 117 47 q 131 11 117 21 q 160 0 144 0 l 581 0 q 591 3 587 0 q 599 12 595 5 q 604 27 602 18 q 605 48 605 36 m 397 975 l 269 1120 q 254 1133 262 1128 q 238 1141 247 1138 q 217 1144 229 1143 q 189 1145 205 1145 q 156 1142 168 1145 q 140 1135 144 1139 q 137 1124 135 1130 q 146 1111 138 1118 l 299 967 q 312 957 306 960 q 325 950 317 953 q 342 947 332 948 q 366 946 351 946 q 390 948 381 946 q 403 953 399 949 q 405 962 406 957 q 397 975 403 968 m 47 878 "},"É":{"ha":678,"x_min":117,"x_max":605,"o":"m 605 48 q 604 71 605 62 q 599 86 602 80 q 591 94 595 92 q 581 97 587 97 l 233 97 l 233 411 l 528 411 q 537 413 533 411 q 545 421 542 416 q 549 435 548 427 q 551 456 551 444 q 549 479 551 469 q 545 494 548 488 q 537 502 542 499 q 528 505 533 505 l 233 505 l 233 781 l 576 781 q 586 783 582 781 q 593 792 591 786 q 598 807 596 798 q 600 828 600 816 q 598 851 600 842 q 593 866 596 860 q 586 875 591 872 q 576 878 582 878 l 160 878 q 131 867 144 878 q 117 830 117 857 l 117 47 q 131 11 117 21 q 160 0 144 0 l 581 0 q 591 3 587 0 q 599 12 595 5 q 604 27 602 18 q 605 48 605 36 m 444 1120 l 315 975 q 308 962 309 968 q 310 953 307 957 q 322 948 313 949 q 347 946 331 946 q 371 947 361 946 q 388 950 380 948 q 401 957 395 953 q 414 967 407 960 l 568 1111 q 575 1124 574 1118 q 572 1135 577 1130 q 556 1142 568 1139 q 524 1145 545 1145 q 495 1144 507 1145 q 474 1141 483 1143 q 458 1133 465 1138 q 444 1120 451 1128 m 218 878 "},"Ê":{"ha":678,"x_min":47,"x_max":605,"o":"m 605 48 q 604 71 605 62 q 599 86 602 80 q 591 94 595 92 q 581 97 587 97 l 233 97 l 233 411 l 528 411 q 537 413 533 411 q 545 421 542 416 q 549 435 548 427 q 551 456 551 444 q 549 479 551 469 q 545 494 548 488 q 537 502 542 499 q 528 505 533 505 l 233 505 l 233 781 l 576 781 q 586 783 582 781 q 593 792 591 786 q 598 807 596 798 q 600 828 600 816 q 598 851 600 842 q 593 866 596 860 q 586 875 591 872 q 576 878 582 878 l 160 878 q 131 867 144 878 q 117 830 117 857 l 117 47 q 131 11 117 21 q 160 0 144 0 l 581 0 q 591 3 587 0 q 599 12 595 5 q 604 27 602 18 q 605 48 605 36 m 363 1145 q 339 1145 349 1145 q 321 1142 329 1144 q 308 1136 314 1139 q 297 1126 302 1132 l 145 972 q 138 960 139 965 q 140 952 136 956 q 153 948 144 949 q 179 946 162 946 q 210 947 197 946 q 230 949 222 947 q 243 955 238 951 q 254 964 249 959 l 362 1078 l 467 961 q 474 955 470 958 q 486 950 479 951 q 506 947 494 948 q 538 946 518 946 q 563 947 553 946 q 576 952 572 949 q 579 960 581 955 q 572 972 578 965 l 427 1126 q 415 1136 420 1132 q 403 1142 410 1139 q 387 1145 396 1144 q 363 1145 377 1145 m 47 878 "},"Ě":{"ha":678,"x_min":47,"x_max":605,"o":"m 605 48 q 604 71 605 62 q 599 86 602 80 q 591 94 595 92 q 581 97 587 97 l 233 97 l 233 411 l 528 411 q 537 413 533 411 q 545 421 542 416 q 549 435 548 427 q 551 456 551 444 q 549 479 551 469 q 545 494 548 488 q 537 502 542 499 q 528 505 533 505 l 233 505 l 233 781 l 576 781 q 586 783 582 781 q 593 792 591 786 q 598 807 596 798 q 600 828 600 816 q 598 851 600 842 q 593 866 596 860 q 586 875 591 872 q 576 878 582 878 l 160 878 q 131 867 144 878 q 117 830 117 857 l 117 47 q 131 11 117 21 q 160 0 144 0 l 581 0 q 591 3 587 0 q 599 12 595 5 q 604 27 602 18 q 605 48 605 36 m 353 946 q 377 947 368 946 q 395 950 387 947 q 408 956 402 952 q 420 966 414 960 l 571 1120 q 578 1131 576 1126 q 576 1139 580 1136 q 563 1144 573 1142 q 537 1145 553 1145 q 507 1145 519 1145 q 487 1142 494 1144 q 473 1136 479 1140 q 463 1127 467 1133 l 354 1013 l 250 1130 q 241 1137 245 1133 q 230 1142 237 1140 q 210 1144 222 1143 q 178 1145 198 1145 q 153 1144 163 1145 q 140 1140 144 1143 q 137 1132 136 1137 q 144 1120 138 1126 l 290 966 q 301 956 296 960 q 313 949 306 951 q 330 947 320 947 q 353 946 339 946 m 47 878 "},"Ë":{"ha":678,"x_min":67,"x_max":605,"o":"m 605 48 q 604 71 605 62 q 599 86 602 80 q 591 94 595 92 q 581 97 587 97 l 233 97 l 233 411 l 528 411 q 537 413 533 411 q 545 421 542 416 q 549 435 548 427 q 551 456 551 444 q 549 479 551 469 q 545 494 548 488 q 537 502 542 499 q 528 505 533 505 l 233 505 l 233 781 l 576 781 q 586 783 582 781 q 593 792 591 786 q 598 807 596 798 q 600 828 600 816 q 598 851 600 842 q 593 866 596 860 q 586 875 591 872 q 576 878 582 878 l 160 878 q 131 867 144 878 q 117 830 117 857 l 117 47 q 131 11 117 21 q 160 0 144 0 l 581 0 q 591 3 587 0 q 599 12 595 5 q 604 27 602 18 q 605 48 605 36 m 288 1037 q 274 1088 288 1074 q 222 1101 260 1101 q 171 1087 184 1101 q 157 1036 157 1074 q 170 984 157 998 q 222 970 184 970 q 274 985 260 970 q 288 1037 288 999 m 568 1037 q 555 1088 568 1074 q 503 1101 541 1101 q 451 1087 465 1101 q 437 1036 437 1074 q 451 984 437 998 q 502 970 465 970 q 554 985 541 970 q 568 1037 568 999 m 67 878 "},"Ē":{"ha":678,"x_min":64,"x_max":605,"o":"m 605 48 q 604 71 605 62 q 599 86 602 80 q 591 94 595 92 q 581 97 587 97 l 233 97 l 233 411 l 528 411 q 537 413 533 411 q 545 421 542 416 q 549 435 548 427 q 551 456 551 444 q 549 479 551 469 q 545 494 548 488 q 537 502 542 499 q 528 505 533 505 l 233 505 l 233 781 l 576 781 q 586 783 582 781 q 593 792 591 786 q 598 807 596 798 q 600 828 600 816 q 598 851 600 842 q 593 866 596 860 q 586 875 591 872 q 576 878 582 878 l 160 878 q 131 867 144 878 q 117 830 117 857 l 117 47 q 131 11 117 21 q 160 0 144 0 l 581 0 q 591 3 587 0 q 599 12 595 5 q 604 27 602 18 q 605 48 605 36 m 547 1078 l 176 1078 q 166 1076 171 1078 q 159 1067 162 1073 q 155 1053 157 1062 q 154 1034 154 1044 q 155 1014 154 1022 q 159 999 157 1005 q 166 991 162 994 q 176 988 171 988 l 547 988 q 555 991 551 988 q 563 999 559 994 q 567 1014 566 1005 q 568 1034 568 1022 q 567 1054 568 1045 q 563 1067 566 1062 q 555 1076 559 1073 q 547 1078 551 1078 m 64 878 "},"Ĕ":{"ha":678,"x_min":87,"x_max":605,"o":"m 605 48 q 604 71 605 62 q 599 86 602 80 q 591 94 595 92 q 581 97 587 97 l 233 97 l 233 411 l 528 411 q 537 413 533 411 q 545 421 542 416 q 549 435 548 427 q 551 456 551 444 q 549 479 551 469 q 545 494 548 488 q 537 502 542 499 q 528 505 533 505 l 233 505 l 233 781 l 576 781 q 586 783 582 781 q 593 792 591 786 q 598 807 596 798 q 600 828 600 816 q 598 851 600 842 q 593 866 596 860 q 586 875 591 872 q 576 878 582 878 l 160 878 q 131 867 144 878 q 117 830 117 857 l 117 47 q 131 11 117 21 q 160 0 144 0 l 581 0 q 591 3 587 0 q 599 12 595 5 q 604 27 602 18 q 605 48 605 36 m 531 1128 q 523 1143 531 1139 q 490 1147 515 1147 q 455 1142 463 1147 q 447 1121 448 1137 q 438 1083 446 1105 q 410 1044 431 1061 q 355 1028 389 1028 q 313 1036 330 1028 q 284 1059 296 1044 q 267 1097 273 1074 q 261 1131 261 1120 q 251 1144 260 1141 q 216 1147 241 1147 q 185 1143 193 1147 q 177 1128 177 1139 q 187 1055 177 1088 q 219 998 197 1022 q 274 960 241 974 q 353 946 307 946 q 428 959 395 946 q 484 995 461 971 q 519 1052 507 1019 q 531 1128 531 1086 m 87 878 "},"Ė":{"ha":678,"x_min":117,"x_max":605,"o":"m 605 48 q 604 71 605 62 q 599 86 602 80 q 591 94 595 92 q 581 97 587 97 l 233 97 l 233 411 l 528 411 q 537 413 533 411 q 545 421 542 416 q 549 435 548 427 q 551 456 551 444 q 549 479 551 469 q 545 494 548 488 q 537 502 542 499 q 528 505 533 505 l 233 505 l 233 781 l 576 781 q 586 783 582 781 q 593 792 591 786 q 598 807 596 798 q 600 828 600 816 q 598 851 600 842 q 593 866 596 860 q 586 875 591 872 q 576 878 582 878 l 160 878 q 131 867 144 878 q 117 830 117 857 l 117 47 q 131 11 117 21 q 160 0 144 0 l 581 0 q 591 3 587 0 q 599 12 595 5 q 604 27 602 18 q 605 48 605 36 m 431 1037 q 416 1088 431 1074 q 363 1102 401 1102 q 310 1087 325 1102 q 296 1036 296 1073 q 310 984 296 998 q 362 970 324 970 q 416 985 401 970 q 431 1037 431 999 m 206 878 "},"Ę":{"ha":678,"x_min":117,"x_max":632,"o":"m 632 -197 q 631 -180 632 -186 q 627 -170 629 -174 q 622 -165 625 -166 q 613 -163 618 -163 l 541 -163 q 502 -155 514 -163 q 490 -127 490 -146 q 495 -103 490 -115 q 515 -76 501 -92 l 589 -3 q 597 7 594 2 q 602 19 600 13 q 604 33 604 25 q 605 51 605 41 q 599 86 605 75 q 581 97 593 97 l 233 97 l 233 411 l 528 411 q 537 414 533 411 q 545 422 542 416 q 549 437 548 428 q 551 459 551 446 q 549 481 551 472 q 545 495 548 490 q 537 503 542 500 q 528 505 533 505 l 233 505 l 233 781 l 576 781 q 586 783 582 781 q 593 792 591 786 q 598 807 596 798 q 600 828 600 816 q 598 851 600 842 q 593 866 596 860 q 586 875 591 872 q 576 878 582 878 l 160 878 q 131 867 144 878 q 117 830 117 857 l 117 47 q 131 11 117 21 q 160 0 144 0 l 471 0 l 429 -42 q 390 -96 401 -71 q 379 -145 379 -121 q 388 -190 379 -171 q 414 -222 397 -209 q 457 -241 432 -235 q 513 -248 481 -248 q 565 -244 542 -248 q 602 -237 587 -241 q 620 -231 616 -233 q 627 -224 625 -229 q 631 -214 629 -220 q 632 -197 632 -208 "},"F":{"ha":638,"x_min":117,"x_max":578,"o":"m 578 827 q 576 850 578 840 q 572 866 575 860 q 564 875 568 872 q 555 878 559 878 l 160 878 q 131 867 144 878 q 117 830 117 857 l 117 18 q 119 8 117 13 q 129 2 122 4 q 147 -2 136 -1 q 175 -4 159 -4 q 203 -2 193 -4 q 221 2 214 -1 q 231 8 228 4 q 233 18 233 13 l 233 383 l 537 383 q 546 386 542 383 q 554 395 551 389 q 559 410 557 401 q 560 432 560 419 q 559 455 560 446 q 554 470 557 465 q 546 478 551 475 q 537 480 542 480 l 233 480 l 233 779 l 555 779 q 564 781 559 779 q 572 790 568 784 q 576 805 575 795 q 578 827 578 814 "},"G":{"ha":876,"x_min":62,"x_max":776,"o":"m 776 758 q 772 791 776 780 q 760 812 769 803 q 728 834 751 821 q 670 860 705 848 q 592 881 636 872 q 498 890 548 890 q 320 857 400 890 q 182 764 239 824 q 93 620 125 705 q 62 431 62 535 q 91 249 62 330 q 175 109 120 168 q 311 19 231 51 q 492 -12 391 -12 q 559 -8 526 -12 q 627 4 593 -4 q 691 24 660 12 q 742 45 722 35 q 768 68 762 55 q 774 98 774 81 l 774 433 q 770 454 774 445 q 761 469 767 464 q 747 477 755 475 q 732 480 740 480 l 454 480 q 444 477 448 480 q 436 469 439 475 q 432 454 433 463 q 431 432 431 445 q 436 396 431 408 q 454 385 442 385 l 657 385 l 657 129 q 579 99 621 109 q 497 90 538 90 q 371 113 429 90 q 273 180 314 136 q 208 290 231 225 q 184 439 184 355 q 206 579 184 515 q 267 690 227 644 q 365 764 307 737 q 495 790 422 790 q 601 777 556 790 q 677 749 645 764 q 728 720 709 733 q 755 707 747 707 q 764 710 760 707 q 770 719 768 713 q 774 735 773 726 q 776 758 776 745 "},"Ĝ":{"ha":876,"x_min":62,"x_max":776,"o":"m 776 758 q 772 791 776 780 q 760 812 769 803 q 728 834 751 821 q 670 860 705 848 q 592 881 636 872 q 498 890 548 890 q 320 857 400 890 q 182 764 239 824 q 93 620 125 705 q 62 431 62 535 q 91 249 62 330 q 175 109 120 168 q 311 19 231 51 q 492 -12 391 -12 q 559 -8 526 -12 q 627 4 593 -4 q 691 24 660 12 q 742 45 722 35 q 768 68 762 55 q 774 98 774 81 l 774 433 q 770 454 774 445 q 761 469 767 464 q 747 477 755 475 q 732 480 740 480 l 454 480 q 444 477 448 480 q 436 469 439 475 q 432 454 433 463 q 431 432 431 445 q 436 396 431 408 q 454 385 442 385 l 657 385 l 657 129 q 579 99 621 109 q 497 90 538 90 q 371 113 429 90 q 273 180 314 136 q 208 290 231 225 q 184 439 184 355 q 206 579 184 515 q 267 690 227 644 q 365 764 307 737 q 495 790 422 790 q 601 777 556 790 q 677 749 645 764 q 728 720 709 733 q 755 707 747 707 q 764 710 760 707 q 770 719 768 713 q 774 735 773 726 q 776 758 776 745 m 471 1145 q 447 1145 456 1145 q 429 1142 437 1144 q 416 1136 422 1139 q 405 1126 410 1132 l 253 972 q 245 960 247 965 q 248 952 244 956 q 261 948 252 949 q 287 946 270 946 q 317 947 305 946 q 338 949 330 947 q 351 955 346 951 q 362 964 357 959 l 470 1078 l 574 961 q 582 955 578 958 q 594 950 587 951 q 614 947 602 948 q 646 946 626 946 q 671 947 661 946 q 684 952 680 949 q 687 960 688 955 q 680 972 686 965 l 534 1126 q 523 1136 528 1132 q 511 1142 518 1139 q 494 1145 504 1144 q 471 1145 485 1145 m 155 878 "},"Ğ":{"ha":876,"x_min":62,"x_max":776,"o":"m 776 758 q 772 791 776 780 q 760 812 769 803 q 728 834 751 821 q 670 860 705 848 q 592 881 636 872 q 498 890 548 890 q 320 857 400 890 q 182 764 239 824 q 93 620 125 705 q 62 431 62 535 q 91 249 62 330 q 175 109 120 168 q 311 19 231 51 q 492 -12 391 -12 q 559 -8 526 -12 q 627 4 593 -4 q 691 24 660 12 q 742 45 722 35 q 768 68 762 55 q 774 98 774 81 l 774 433 q 770 454 774 445 q 761 469 767 464 q 747 477 755 475 q 732 480 740 480 l 454 480 q 444 477 448 480 q 436 469 439 475 q 432 454 433 463 q 431 432 431 445 q 436 396 431 408 q 454 385 442 385 l 657 385 l 657 129 q 579 99 621 109 q 497 90 538 90 q 371 113 429 90 q 273 180 314 136 q 208 290 231 225 q 184 439 184 355 q 206 579 184 515 q 267 690 227 644 q 365 764 307 737 q 495 790 422 790 q 601 777 556 790 q 677 749 645 764 q 728 720 709 733 q 755 707 747 707 q 764 710 760 707 q 770 719 768 713 q 774 735 773 726 q 776 758 776 745 m 642 1128 q 634 1143 642 1139 q 601 1147 626 1147 q 566 1142 574 1147 q 558 1121 559 1137 q 550 1083 557 1105 q 521 1044 542 1061 q 466 1028 500 1028 q 424 1036 441 1028 q 395 1059 407 1044 q 378 1097 384 1074 q 372 1131 372 1120 q 362 1144 372 1141 q 328 1147 352 1147 q 296 1143 304 1147 q 288 1128 288 1139 q 298 1055 288 1088 q 330 998 309 1022 q 385 960 352 974 q 464 946 418 946 q 539 959 506 946 q 595 995 572 971 q 630 1052 618 1019 q 642 1128 642 1086 m 199 878 "},"Ġ":{"ha":876,"x_min":62,"x_max":776,"o":"m 776 758 q 772 791 776 780 q 760 812 769 803 q 728 834 751 821 q 670 860 705 848 q 592 881 636 872 q 498 890 548 890 q 320 857 400 890 q 182 764 239 824 q 93 620 125 705 q 62 431 62 535 q 91 249 62 330 q 175 109 120 168 q 311 19 231 51 q 492 -12 391 -12 q 559 -8 526 -12 q 627 4 593 -4 q 691 24 660 12 q 742 45 722 35 q 768 68 762 55 q 774 98 774 81 l 774 433 q 770 454 774 445 q 761 469 767 464 q 747 477 755 475 q 732 480 740 480 l 454 480 q 444 477 448 480 q 436 469 439 475 q 432 454 433 463 q 431 432 431 445 q 436 396 431 408 q 454 385 442 385 l 657 385 l 657 129 q 579 99 621 109 q 497 90 538 90 q 371 113 429 90 q 273 180 314 136 q 208 290 231 225 q 184 439 184 355 q 206 579 184 515 q 267 690 227 644 q 365 764 307 737 q 495 790 422 790 q 601 777 556 790 q 677 749 645 764 q 728 720 709 733 q 755 707 747 707 q 764 710 760 707 q 770 719 768 713 q 774 735 773 726 q 776 758 776 745 m 555 1037 q 541 1088 555 1074 q 488 1102 526 1102 q 435 1087 450 1102 q 420 1036 420 1073 q 435 984 420 998 q 487 970 449 970 q 541 985 526 970 q 555 1037 555 999 m 331 878 "},"Ģ":{"ha":876,"x_min":62,"x_max":776,"o":"m 776 758 q 772 791 776 780 q 760 812 769 803 q 728 834 751 821 q 670 860 705 848 q 592 881 636 872 q 498 890 548 890 q 320 857 400 890 q 182 764 239 824 q 93 620 125 705 q 62 431 62 535 q 91 249 62 330 q 175 109 120 168 q 311 19 231 51 q 492 -12 391 -12 q 559 -8 526 -12 q 627 4 593 -4 q 691 24 660 12 q 742 45 722 35 q 768 68 762 55 q 774 98 774 81 l 774 433 q 770 454 774 445 q 761 469 767 464 q 747 477 755 475 q 732 480 740 480 l 454 480 q 444 477 448 480 q 436 469 439 475 q 432 454 433 463 q 431 432 431 445 q 436 396 431 408 q 454 385 442 385 l 657 385 l 657 129 q 579 99 621 109 q 497 90 538 90 q 371 113 429 90 q 273 180 314 136 q 208 290 231 225 q 184 439 184 355 q 206 579 184 515 q 267 690 227 644 q 365 764 307 737 q 495 790 422 790 q 601 777 556 790 q 677 749 645 764 q 728 720 709 733 q 755 707 747 707 q 764 710 760 707 q 770 719 768 713 q 774 735 773 726 q 776 758 776 745 m 408 -82 l 363 -219 q 360 -232 361 -227 q 363 -241 359 -237 q 374 -246 366 -244 q 395 -248 381 -248 q 418 -247 409 -248 q 434 -243 428 -245 q 445 -237 441 -241 q 452 -227 449 -233 l 517 -89 q 521 -76 521 -81 q 517 -65 522 -70 q 503 -59 513 -61 q 475 -56 492 -56 q 445 -58 456 -56 q 425 -62 433 -59 q 414 -70 418 -64 q 408 -82 410 -75 "},"H":{"ha":865,"x_min":117,"x_max":749,"o":"m 749 18 l 749 860 q 746 869 749 865 q 736 876 743 873 q 719 880 730 878 q 691 882 707 882 q 663 880 673 882 q 645 876 652 878 q 635 869 638 873 q 633 860 633 865 l 633 509 l 233 509 l 233 860 q 231 869 233 865 q 221 876 228 873 q 203 880 214 878 q 175 882 192 882 q 147 880 159 882 q 129 876 136 878 q 119 869 122 873 q 117 860 117 865 l 117 18 q 119 8 117 12 q 129 2 122 4 q 147 -2 136 -1 q 175 -4 159 -4 q 203 -2 192 -4 q 221 2 214 -1 q 231 8 228 4 q 233 18 233 12 l 233 407 l 633 407 l 633 18 q 635 8 633 12 q 645 2 638 4 q 663 -2 652 -1 q 691 -4 673 -4 q 719 -2 707 -4 q 736 2 730 -1 q 746 8 743 4 q 749 18 749 12 "},"Ĥ":{"ha":865,"x_min":117,"x_max":749,"o":"m 749 18 l 749 860 q 746 869 749 865 q 736 876 743 873 q 719 880 730 878 q 691 882 707 882 q 663 880 673 882 q 645 876 652 878 q 635 869 638 873 q 633 860 633 865 l 633 509 l 233 509 l 233 860 q 231 869 233 865 q 221 876 228 873 q 203 880 214 878 q 175 882 192 882 q 147 880 159 882 q 129 876 136 878 q 119 869 122 873 q 117 860 117 865 l 117 18 q 119 8 117 12 q 129 2 122 4 q 147 -2 136 -1 q 175 -4 159 -4 q 203 -2 192 -4 q 221 2 214 -1 q 231 8 228 4 q 233 18 233 12 l 233 407 l 633 407 l 633 18 q 635 8 633 12 q 645 2 638 4 q 663 -2 652 -1 q 691 -4 673 -4 q 719 -2 707 -4 q 736 2 730 -1 q 746 8 743 4 q 749 18 749 12 m 436 1145 q 412 1145 422 1145 q 395 1142 402 1144 q 381 1136 387 1139 q 370 1126 376 1132 l 218 972 q 211 960 212 965 q 213 952 210 956 q 226 948 217 949 q 252 946 235 946 q 283 947 271 946 q 303 949 295 947 q 317 955 311 951 q 328 964 322 959 l 435 1078 l 540 961 q 548 955 543 958 q 559 950 552 951 q 579 947 567 948 q 612 946 591 946 q 636 947 627 946 q 650 952 646 949 q 652 960 654 955 q 645 972 651 965 l 500 1126 q 489 1136 494 1132 q 476 1142 484 1139 q 460 1145 469 1144 q 436 1145 450 1145 m 121 878 "},"Ħ":{"ha":911,"x_min":22,"x_max":890,"o":"m 256 621 l 655 621 l 655 484 l 256 484 l 256 621 m 772 712 l 772 861 q 769 869 772 865 q 760 876 766 873 q 742 880 753 879 q 713 882 730 882 q 686 880 697 882 q 668 876 674 879 q 658 869 661 873 q 655 861 655 865 l 655 712 l 256 712 l 256 861 q 253 869 256 865 q 243 876 250 873 q 226 880 237 879 q 198 882 215 882 q 170 880 181 882 q 152 876 159 879 q 142 869 145 873 q 140 861 140 865 l 140 712 l 45 712 q 35 710 39 712 q 28 702 31 707 q 23 688 25 697 q 22 667 22 680 q 23 645 22 654 q 28 631 25 637 q 35 623 31 625 q 45 621 39 621 l 140 621 l 140 17 q 142 8 140 12 q 152 1 145 4 q 170 -3 159 -1 q 198 -4 181 -4 q 226 -3 215 -4 q 243 1 237 -1 q 253 8 250 4 q 256 17 256 12 l 256 387 l 655 387 l 655 17 q 658 8 655 12 q 668 1 661 4 q 686 -3 674 -1 q 713 -4 697 -4 q 742 -3 730 -4 q 760 1 753 -1 q 769 8 766 4 q 772 17 772 12 l 772 621 l 867 621 q 877 623 872 621 q 884 631 881 625 q 889 645 887 636 q 890 666 890 654 q 889 688 890 680 q 884 702 887 696 q 877 710 881 708 q 867 712 872 712 l 772 712 "},"I":{"ha":350,"x_min":117,"x_max":233,"o":"m 233 18 l 233 860 q 231 869 233 865 q 221 876 228 873 q 203 880 214 878 q 175 882 192 882 q 148 880 159 882 q 130 876 137 878 q 120 869 123 873 q 117 860 117 865 l 117 18 q 119 8 117 12 q 129 2 122 4 q 147 -2 136 -1 q 175 -4 159 -4 q 203 -2 192 -4 q 221 2 214 -1 q 231 8 228 4 q 233 18 233 12 "},"Ì":{"ha":350,"x_min":-123,"x_max":236,"o":"m 233 18 l 233 860 q 231 869 233 865 q 221 876 228 873 q 203 880 214 878 q 175 882 192 882 q 148 880 159 882 q 130 876 137 878 q 120 869 123 873 q 117 860 117 865 l 117 18 q 119 8 117 12 q 129 2 122 4 q 147 -2 136 -1 q 175 -4 159 -4 q 203 -2 192 -4 q 221 2 214 -1 q 231 8 228 4 q 233 18 233 12 m 227 975 l 99 1120 q 84 1133 92 1128 q 68 1141 77 1138 q 47 1144 59 1143 q 18 1145 35 1145 q -14 1142 -2 1145 q -31 1135 -26 1139 q -34 1124 -35 1130 q -24 1111 -32 1118 l 129 967 q 141 957 136 960 q 155 950 147 953 q 172 947 162 948 q 195 946 181 946 q 220 948 211 946 q 233 953 229 949 q 234 962 236 957 q 227 975 233 968 m -123 878 "},"Í":{"ha":350,"x_min":27,"x_max":387,"o":"m 233 18 l 233 860 q 231 869 233 865 q 221 876 228 873 q 203 880 214 878 q 175 882 192 882 q 148 880 159 882 q 130 876 137 878 q 120 869 123 873 q 117 860 117 865 l 117 18 q 119 8 117 12 q 129 2 122 4 q 147 -2 136 -1 q 175 -4 159 -4 q 203 -2 192 -4 q 221 2 214 -1 q 231 8 228 4 q 233 18 233 12 m 253 1120 l 125 975 q 117 962 119 968 q 119 953 116 957 q 132 948 123 949 q 156 946 140 946 q 180 947 170 946 q 197 950 190 948 q 211 957 205 953 q 223 967 216 960 l 377 1111 q 385 1124 383 1118 q 382 1135 387 1130 q 366 1142 377 1139 q 334 1145 354 1145 q 304 1144 317 1145 q 283 1141 292 1143 q 268 1133 275 1138 q 253 1120 260 1128 m 27 878 "},"Î":{"ha":350,"x_min":-135,"x_max":398,"o":"m 233 18 l 233 860 q 231 869 233 865 q 221 876 228 873 q 203 880 214 878 q 175 882 192 882 q 148 880 159 882 q 130 876 137 878 q 120 869 123 873 q 117 860 117 865 l 117 18 q 119 8 117 12 q 129 2 122 4 q 147 -2 136 -1 q 175 -4 159 -4 q 203 -2 192 -4 q 221 2 214 -1 q 231 8 228 4 q 233 18 233 12 m 180 1145 q 156 1145 166 1145 q 139 1142 146 1144 q 126 1136 132 1139 q 115 1126 120 1132 l -37 972 q -45 960 -43 965 q -42 952 -46 956 q -30 948 -39 949 q -3 946 -20 946 q 27 947 15 946 q 47 949 39 947 q 61 955 56 951 q 72 964 66 959 l 180 1078 l 284 961 q 292 955 288 958 q 304 950 296 951 q 323 947 311 948 q 356 946 336 946 q 380 947 371 946 q 394 952 390 949 q 397 960 398 955 q 389 972 395 965 l 244 1126 q 233 1136 238 1132 q 221 1142 228 1139 q 204 1145 214 1144 q 180 1145 195 1145 m -135 878 "},"Ĩ":{"ha":350,"x_min":-140,"x_max":407,"o":"m 233 18 l 233 860 q 231 869 233 865 q 221 876 228 873 q 203 880 214 878 q 175 882 192 882 q 148 880 159 882 q 130 876 137 878 q 120 869 123 873 q 117 860 117 865 l 117 18 q 119 8 117 12 q 129 2 122 4 q 147 -2 136 -1 q 175 -4 159 -4 q 203 -2 192 -4 q 221 2 214 -1 q 231 8 228 4 q 233 18 233 12 m 326 1095 q 312 1046 326 1060 q 274 1032 298 1032 q 232 1044 252 1032 q 191 1071 213 1057 q 143 1097 170 1085 q 81 1109 117 1109 q 26 1100 51 1109 q -16 1074 1 1091 q -43 1032 -34 1057 q -53 974 -53 1006 q -45 952 -53 958 q -14 947 -38 947 q 4 947 -4 947 q 17 949 12 947 q 25 954 22 951 q 28 962 28 957 q 40 1007 28 990 q 80 1024 52 1024 q 121 1012 102 1024 q 162 986 140 1000 q 211 959 184 971 q 273 947 237 947 q 372 983 337 947 q 407 1082 407 1019 q 399 1104 407 1099 q 368 1109 392 1109 q 335 1106 345 1109 q 326 1095 326 1103 m -140 878 "},"Ï":{"ha":350,"x_min":-119,"x_max":382,"o":"m 233 18 l 233 860 q 231 869 233 865 q 221 876 228 873 q 203 880 214 878 q 175 882 192 882 q 148 880 159 882 q 130 876 137 878 q 120 869 123 873 q 117 860 117 865 l 117 18 q 119 8 117 12 q 129 2 122 4 q 147 -2 136 -1 q 175 -4 159 -4 q 203 -2 192 -4 q 221 2 214 -1 q 231 8 228 4 q 233 18 233 12 m 102 1037 q 88 1088 102 1074 q 36 1101 74 1101 q -16 1087 -2 1101 q -30 1036 -30 1074 q -16 984 -30 998 q 35 970 -3 970 q 87 985 73 970 q 102 1037 102 999 m 382 1037 q 368 1088 382 1074 q 316 1101 355 1101 q 264 1087 279 1101 q 250 1036 250 1074 q 264 984 250 998 q 315 970 278 970 q 368 985 354 970 q 382 1037 382 999 m -119 878 "},"Ī":{"ha":350,"x_min":-120,"x_max":383,"o":"m 233 18 l 233 860 q 231 869 233 865 q 221 876 228 873 q 203 880 214 878 q 175 882 192 882 q 148 880 159 882 q 130 876 137 878 q 120 869 123 873 q 117 860 117 865 l 117 18 q 119 8 117 12 q 129 2 122 4 q 147 -2 136 -1 q 175 -4 159 -4 q 203 -2 192 -4 q 221 2 214 -1 q 231 8 228 4 q 233 18 233 12 m 362 1078 l -8 1078 q -18 1076 -14 1078 q -25 1067 -22 1073 q -29 1053 -28 1062 q -31 1034 -31 1044 q -29 1014 -31 1022 q -25 999 -28 1005 q -18 991 -22 994 q -8 988 -14 988 l 362 988 q 371 991 367 988 q 378 999 375 994 q 382 1014 381 1005 q 383 1034 383 1022 q 382 1054 383 1045 q 378 1067 381 1062 q 371 1076 375 1073 q 362 1078 367 1078 m -120 878 "},"Ĭ":{"ha":350,"x_min":-90,"x_max":353,"o":"m 233 18 l 233 860 q 231 869 233 865 q 221 876 228 873 q 203 880 214 878 q 175 882 192 882 q 148 880 159 882 q 130 876 137 878 q 120 869 123 873 q 117 860 117 865 l 117 18 q 119 8 117 12 q 129 2 122 4 q 147 -2 136 -1 q 175 -4 159 -4 q 203 -2 192 -4 q 221 2 214 -1 q 231 8 228 4 q 233 18 233 12 m 353 1128 q 345 1143 353 1139 q 312 1147 337 1147 q 277 1142 285 1147 q 269 1121 270 1137 q 261 1083 269 1105 q 232 1044 253 1061 q 177 1028 212 1028 q 135 1036 153 1028 q 106 1059 118 1044 q 89 1097 95 1074 q 83 1131 83 1120 q 73 1144 83 1141 q 39 1147 63 1147 q 7 1143 15 1147 q -1 1128 -1 1139 q 9 1055 -1 1088 q 41 998 20 1022 q 96 960 63 974 q 175 946 130 946 q 250 959 217 946 q 307 995 283 971 q 341 1052 330 1019 q 353 1128 353 1086 m -90 878 "},"İ":{"ha":350,"x_min":20,"x_max":245,"o":"m 233 18 l 233 860 q 231 869 233 865 q 221 876 228 873 q 203 880 214 878 q 175 882 192 882 q 148 880 159 882 q 130 876 137 878 q 120 869 123 873 q 117 860 117 865 l 117 18 q 119 8 117 12 q 129 2 122 4 q 147 -2 136 -1 q 175 -4 159 -4 q 203 -2 192 -4 q 221 2 214 -1 q 231 8 228 4 q 233 18 233 12 m 245 1037 q 230 1088 245 1074 q 178 1102 216 1102 q 124 1087 139 1102 q 110 1036 110 1073 q 124 984 110 998 q 176 970 138 970 q 230 985 215 970 q 245 1037 245 999 m 20 878 "},"Į":{"ha":350,"x_min":26,"x_max":279,"o":"m 279 -197 q 275 -170 279 -176 q 260 -163 271 -163 l 186 -163 q 149 -155 161 -163 q 136 -127 136 -146 q 142 -104 136 -117 q 170 -70 149 -91 l 220 -19 q 230 -3 227 -12 q 233 16 233 5 l 233 861 q 231 869 233 865 q 221 876 228 873 q 203 880 214 879 q 175 882 192 882 q 148 880 159 882 q 130 876 137 879 q 120 869 123 873 q 117 861 117 865 l 117 16 q 118 9 117 12 q 123 4 120 6 l 80 -39 q 52 -71 62 -56 q 35 -99 41 -86 q 28 -124 30 -113 q 26 -146 26 -136 q 62 -222 26 -197 q 160 -248 97 -248 q 211 -244 187 -248 q 257 -235 235 -241 q 268 -231 264 -233 q 275 -224 273 -229 q 278 -214 277 -220 q 279 -197 279 -208 "},"Ĳ":{"ha":793,"x_min":117,"x_max":679,"o":"m 233 18 l 233 860 q 231 869 233 865 q 221 876 228 873 q 203 880 214 878 q 175 882 192 882 q 148 880 159 882 q 130 876 137 878 q 120 869 123 873 q 117 860 117 865 l 117 18 q 119 8 117 12 q 129 2 122 4 q 147 -2 136 -1 q 175 -4 159 -4 q 203 -2 192 -4 q 221 2 214 -1 q 231 8 228 4 q 233 18 233 12 m 679 221 l 679 861 q 676 869 679 865 q 666 876 673 873 q 648 880 660 879 q 621 882 637 882 q 592 880 604 882 q 574 876 581 879 q 565 869 568 873 q 562 861 562 865 l 562 233 q 557 161 562 189 q 541 118 551 134 q 513 97 530 102 q 474 91 497 91 q 437 96 453 91 q 410 107 422 101 q 390 118 398 113 q 376 123 381 123 q 367 121 370 123 q 360 113 363 119 q 356 97 357 107 q 355 73 355 87 q 356 52 355 60 q 358 38 357 43 q 362 28 360 32 q 369 20 365 24 q 384 10 372 16 q 411 -1 395 4 q 445 -9 427 -6 q 483 -12 464 -12 q 576 4 538 -12 q 637 52 614 21 q 669 125 660 82 q 679 221 679 169 "},"J":{"ha":443,"x_min":5,"x_max":328,"o":"m 328 221 l 328 861 q 325 869 328 865 q 316 876 322 873 q 298 880 309 879 q 270 882 286 882 q 242 880 253 882 q 224 876 231 879 q 214 869 217 873 q 212 861 212 865 l 212 233 q 206 161 212 189 q 190 118 201 134 q 163 97 179 102 q 123 91 146 91 q 87 96 102 91 q 59 107 71 101 q 39 118 47 113 q 25 123 31 123 q 16 121 20 123 q 9 113 12 119 q 6 97 7 107 q 5 73 5 87 q 5 52 5 60 q 8 38 6 43 q 12 28 9 32 q 18 20 14 24 q 33 10 22 16 q 60 -1 45 4 q 95 -9 76 -6 q 132 -12 113 -12 q 225 4 188 -12 q 286 52 263 21 q 319 125 309 82 q 328 221 328 169 "},"Ĵ":{"ha":443,"x_min":-59,"x_max":474,"o":"m 328 221 l 328 861 q 325 869 328 865 q 316 876 322 873 q 298 880 309 879 q 270 882 286 882 q 242 880 253 882 q 224 876 231 879 q 214 869 217 873 q 212 861 212 865 l 212 233 q 206 161 212 189 q 190 118 201 134 q 163 97 179 102 q 123 91 146 91 q 87 96 102 91 q 59 107 71 101 q 39 118 47 113 q 25 123 31 123 q 16 121 20 123 q 9 113 12 119 q 6 97 7 107 q 5 73 5 87 q 5 52 5 60 q 8 38 6 43 q 12 28 9 32 q 18 20 14 24 q 33 10 22 16 q 60 -1 45 4 q 95 -9 76 -6 q 132 -12 113 -12 q 225 4 188 -12 q 286 52 263 21 q 319 125 309 82 q 328 221 328 169 m 256 1145 q 232 1145 242 1145 q 215 1142 222 1144 q 202 1136 208 1139 q 191 1126 196 1132 l 39 972 q 31 960 33 965 q 34 952 30 956 q 46 948 37 949 q 73 946 56 946 q 103 947 91 946 q 123 949 115 947 q 137 955 132 951 q 148 964 142 959 l 256 1078 l 360 961 q 368 955 363 958 q 380 950 372 951 q 399 947 387 948 q 432 946 412 946 q 456 947 447 946 q 470 952 466 949 q 473 960 474 955 q 465 972 471 965 l 320 1126 q 309 1136 314 1132 q 297 1142 304 1139 q 280 1145 290 1144 q 256 1145 271 1145 m -59 878 "},"K":{"ha":722,"x_min":117,"x_max":689,"o":"m 689 19 q 687 30 689 23 q 673 54 684 36 l 359 470 l 650 818 q 667 842 663 833 q 671 860 671 851 q 669 869 671 865 q 660 876 667 873 q 643 880 654 878 q 614 882 632 882 q 586 880 597 882 q 567 877 574 879 q 553 870 559 874 q 544 860 548 866 l 233 470 l 233 860 q 231 869 233 865 q 221 876 228 873 q 203 880 214 878 q 175 882 192 882 q 147 880 159 882 q 129 876 136 878 q 119 869 122 873 q 117 860 117 865 l 117 18 q 119 8 117 13 q 129 2 122 4 q 147 -2 136 -1 q 175 -4 159 -4 q 203 -2 192 -4 q 221 2 214 -1 q 231 8 228 4 q 233 18 233 13 l 233 456 l 556 18 q 568 5 561 11 q 591 -2 576 0 q 629 -4 606 -4 q 659 -2 648 -4 q 677 2 671 -1 q 687 9 684 5 q 689 19 689 14 "},"Ķ":{"ha":722,"x_min":117,"x_max":689,"o":"m 689 19 q 687 30 689 23 q 673 54 684 36 l 359 470 l 650 818 q 667 842 663 833 q 671 860 671 851 q 669 869 671 865 q 660 876 667 873 q 643 880 654 878 q 614 882 632 882 q 586 880 597 882 q 567 877 574 879 q 553 870 559 874 q 544 860 548 866 l 233 470 l 233 860 q 231 869 233 865 q 221 876 228 873 q 203 880 214 878 q 175 882 192 882 q 147 880 159 882 q 129 876 136 878 q 119 869 122 873 q 117 860 117 865 l 117 18 q 119 8 117 13 q 129 2 122 4 q 147 -2 136 -1 q 175 -4 159 -4 q 203 -2 192 -4 q 221 2 214 -1 q 231 8 228 4 q 233 18 233 13 l 233 456 l 556 18 q 568 5 561 11 q 591 -2 576 0 q 629 -4 606 -4 q 659 -2 648 -4 q 677 2 671 -1 q 687 9 684 5 q 689 19 689 14 m 327 -82 l 282 -219 q 279 -232 280 -227 q 282 -241 279 -237 q 293 -246 286 -244 q 315 -248 300 -248 q 338 -247 328 -248 q 354 -243 347 -245 q 364 -237 360 -241 q 371 -227 368 -233 l 437 -89 q 440 -76 440 -81 q 436 -65 441 -70 q 422 -59 432 -61 q 394 -56 412 -56 q 364 -58 376 -56 q 345 -62 352 -59 q 333 -70 337 -64 q 327 -82 329 -75 "},"L":{"ha":584,"x_min":117,"x_max":572,"o":"m 572 51 q 570 74 572 64 q 566 89 569 83 q 558 98 563 95 q 548 101 554 101 l 233 101 l 233 860 q 231 869 233 865 q 221 876 228 873 q 203 880 214 878 q 175 882 192 882 q 147 880 159 882 q 129 876 136 878 q 119 869 122 873 q 117 860 117 865 l 117 47 q 131 11 117 21 q 160 0 144 0 l 548 0 q 558 3 554 0 q 566 13 563 6 q 570 28 569 19 q 572 51 572 37 "},"Ĺ":{"ha":584,"x_min":87,"x_max":572,"o":"m 572 51 q 570 74 572 64 q 566 89 569 83 q 558 98 563 95 q 548 101 554 101 l 233 101 l 233 860 q 231 869 233 865 q 221 876 228 873 q 203 880 214 878 q 175 882 192 882 q 147 880 159 882 q 129 876 136 878 q 119 869 122 873 q 117 860 117 865 l 117 47 q 131 11 117 21 q 160 0 144 0 l 548 0 q 558 3 554 0 q 566 13 563 6 q 570 28 569 19 q 572 51 572 37 m 313 1120 l 185 975 q 178 962 179 968 q 180 953 176 957 q 192 948 183 949 q 216 946 201 946 q 240 947 231 946 q 258 950 250 948 q 271 957 265 953 q 283 967 277 960 l 437 1111 q 445 1124 444 1118 q 442 1135 447 1130 q 426 1142 437 1139 q 394 1145 414 1145 q 365 1144 377 1145 q 344 1141 353 1143 q 328 1133 335 1138 q 313 1120 321 1128 m 87 878 "},"Ľ":{"ha":587,"x_min":117,"x_max":572,"o":"m 572 51 q 570 74 572 64 q 566 89 569 83 q 558 98 563 95 q 548 101 554 101 l 233 101 l 233 860 q 231 869 233 865 q 221 876 228 873 q 203 880 214 878 q 175 882 192 882 q 147 880 159 882 q 129 876 136 878 q 119 869 122 873 q 117 860 117 865 l 117 47 q 131 11 117 21 q 160 0 144 0 l 548 0 q 558 3 554 0 q 566 13 563 6 q 570 28 569 19 q 572 51 572 37 m 410 892 l 347 685 q 347 676 346 680 q 350 669 347 672 q 359 665 353 667 q 375 664 365 664 q 398 665 389 664 q 413 667 408 665 q 422 672 419 669 q 427 680 425 675 l 511 891 q 513 903 513 898 q 508 910 513 907 q 495 915 504 913 q 471 916 487 916 q 445 915 456 916 q 427 911 433 913 q 416 903 420 908 q 410 892 412 899 m 256 645 "},"Ļ":{"ha":584,"x_min":117,"x_max":572,"o":"m 572 51 q 570 74 572 64 q 566 89 569 83 q 558 98 563 95 q 548 101 554 101 l 233 101 l 233 860 q 231 869 233 865 q 221 876 228 873 q 203 880 214 878 q 175 882 192 882 q 147 880 159 882 q 129 876 136 878 q 119 869 122 873 q 117 860 117 865 l 117 47 q 131 11 117 21 q 160 0 144 0 l 548 0 q 558 3 554 0 q 566 13 563 6 q 570 28 569 19 q 572 51 572 37 m 289 -82 l 244 -219 q 241 -232 242 -227 q 244 -241 241 -237 q 255 -246 248 -244 q 277 -248 262 -248 q 300 -247 290 -248 q 316 -243 309 -245 q 326 -237 322 -241 q 333 -227 330 -233 l 399 -89 q 402 -76 402 -81 q 398 -65 403 -70 q 384 -59 394 -61 q 356 -56 374 -56 q 326 -58 338 -56 q 307 -62 314 -59 q 295 -70 299 -64 q 289 -82 291 -75 "},"Ł":{"ha":597,"x_min":19,"x_max":585,"o":"m 585 51 q 583 74 585 64 q 578 89 582 83 q 571 98 575 95 q 561 101 566 101 l 246 101 l 246 444 l 404 542 q 413 550 410 545 q 419 561 416 555 q 422 576 421 568 q 423 597 423 585 q 417 635 423 626 q 399 638 411 645 l 246 542 l 246 861 q 243 869 246 865 q 234 876 241 873 q 216 880 227 879 q 188 882 204 882 q 160 880 171 882 q 142 876 149 879 q 132 869 135 873 q 130 861 130 865 l 130 469 l 39 411 q 29 403 33 408 q 23 392 25 399 q 20 376 20 385 q 19 356 19 368 q 25 317 19 326 q 43 315 31 308 l 130 371 l 130 47 q 143 11 130 21 q 172 0 157 0 l 561 0 q 571 3 566 0 q 578 13 575 6 q 583 28 582 19 q 585 51 585 37 "},"Ŀ":{"ha":758,"x_min":117,"x_max":671,"o":"m 572 51 q 570 74 572 64 q 566 89 569 83 q 558 98 563 95 q 548 101 554 101 l 233 101 l 233 860 q 231 869 233 865 q 221 876 228 873 q 203 880 214 878 q 175 882 192 882 q 147 880 159 882 q 129 876 136 878 q 119 869 122 873 q 117 860 117 865 l 117 47 q 131 11 117 21 q 160 0 144 0 l 548 0 q 558 3 554 0 q 566 13 563 6 q 570 28 569 19 q 572 51 572 37 m 671 454 q 655 516 671 500 q 599 532 640 532 q 541 516 557 532 q 525 452 525 500 q 541 389 525 405 q 597 374 556 374 q 655 390 639 374 q 671 454 671 406 "},"M":{"ha":1187,"x_min":117,"x_max":1071,"o":"m 1071 18 l 1071 825 q 1067 849 1071 839 q 1056 865 1063 859 q 1041 874 1050 871 q 1021 878 1031 878 l 947 878 q 918 874 930 878 q 894 862 905 870 q 875 839 884 853 q 859 804 866 825 l 594 171 l 591 171 l 336 806 q 322 838 330 825 q 302 861 314 852 q 273 873 290 869 q 235 878 257 878 l 165 878 q 132 865 146 878 q 117 825 117 853 l 117 18 q 119 8 117 12 q 128 2 121 4 q 145 -2 134 -1 q 172 -4 156 -4 q 200 -2 189 -4 q 218 2 211 -1 q 227 8 224 4 q 230 18 230 12 l 230 782 l 231 782 l 530 14 q 535 7 531 10 q 545 1 538 3 q 562 -3 552 -1 q 587 -4 572 -4 q 610 -3 600 -4 q 627 0 620 -2 q 638 6 634 3 q 644 14 642 9 l 956 782 l 958 782 l 958 18 q 960 8 958 12 q 969 2 963 4 q 987 -2 976 -1 q 1014 -4 998 -4 q 1041 -2 1031 -4 q 1059 2 1052 -1 q 1068 8 1065 4 q 1071 18 1071 12 "},"N":{"ha":897,"x_min":117,"x_max":780,"o":"m 780 48 l 780 858 q 777 867 780 863 q 768 874 774 871 q 751 878 762 877 q 726 880 741 880 q 698 878 709 880 q 681 874 688 877 q 672 867 675 871 q 669 858 669 863 l 669 382 q 670 270 669 328 q 671 159 670 212 l 671 159 q 638 222 654 191 q 604 286 621 254 q 569 352 587 319 q 531 421 551 386 l 318 806 q 297 841 307 827 q 276 863 287 855 q 253 874 266 871 q 220 878 239 878 l 164 878 q 132 866 146 878 q 117 827 117 854 l 117 18 q 119 8 117 13 q 128 2 122 4 q 145 -2 134 -1 q 172 -4 155 -4 q 198 -2 188 -4 q 215 2 209 -1 q 224 8 222 4 q 227 18 227 13 l 227 547 q 227 648 227 597 q 224 748 226 699 l 226 748 q 267 666 245 708 q 311 585 289 623 l 587 85 q 613 42 602 59 q 637 15 625 25 q 662 2 649 5 q 693 -2 675 -2 l 730 -2 q 748 1 739 -2 q 764 9 757 3 q 775 25 771 16 q 780 48 780 35 "},"Ń":{"ha":897,"x_min":117,"x_max":780,"o":"m 780 48 l 780 858 q 777 867 780 863 q 768 874 774 871 q 751 878 762 877 q 726 880 741 880 q 698 878 709 880 q 681 874 688 877 q 672 867 675 871 q 669 858 669 863 l 669 382 q 670 270 669 328 q 671 159 670 212 l 671 159 q 638 222 654 191 q 604 286 621 254 q 569 352 587 319 q 531 421 551 386 l 318 806 q 297 841 307 827 q 276 863 287 855 q 253 874 266 871 q 220 878 239 878 l 164 878 q 132 866 146 878 q 117 827 117 854 l 117 18 q 119 8 117 13 q 128 2 122 4 q 145 -2 134 -1 q 172 -4 155 -4 q 198 -2 188 -4 q 215 2 209 -1 q 224 8 222 4 q 227 18 227 13 l 227 547 q 227 648 227 597 q 224 748 226 699 l 226 748 q 267 666 245 708 q 311 585 289 623 l 587 85 q 613 42 602 59 q 637 15 625 25 q 662 2 649 5 q 693 -2 675 -2 l 730 -2 q 748 1 739 -2 q 764 9 757 3 q 775 25 771 16 q 780 48 780 35 m 537 1120 l 409 975 q 401 962 403 968 q 404 953 400 957 q 416 948 407 949 q 440 946 425 946 q 464 947 454 946 q 481 950 474 948 q 495 957 489 953 q 507 967 500 960 l 661 1111 q 669 1124 667 1118 q 666 1135 671 1130 q 650 1142 661 1139 q 618 1145 638 1145 q 589 1144 601 1145 q 568 1141 576 1143 q 552 1133 559 1138 q 537 1120 545 1128 m 311 878 "},"Ň":{"ha":897,"x_min":117,"x_max":780,"o":"m 780 48 l 780 858 q 777 867 780 863 q 768 874 774 871 q 751 878 762 877 q 726 880 741 880 q 698 878 709 880 q 681 874 688 877 q 672 867 675 871 q 669 858 669 863 l 669 382 q 670 270 669 328 q 671 159 670 212 l 671 159 q 638 222 654 191 q 604 286 621 254 q 569 352 587 319 q 531 421 551 386 l 318 806 q 297 841 307 827 q 276 863 287 855 q 253 874 266 871 q 220 878 239 878 l 164 878 q 132 866 146 878 q 117 827 117 854 l 117 18 q 119 8 117 13 q 128 2 122 4 q 145 -2 134 -1 q 172 -4 155 -4 q 198 -2 188 -4 q 215 2 209 -1 q 224 8 222 4 q 227 18 227 13 l 227 547 q 227 648 227 597 q 224 748 226 699 l 226 748 q 267 666 245 708 q 311 585 289 623 l 587 85 q 613 42 602 59 q 637 15 625 25 q 662 2 649 5 q 693 -2 675 -2 l 730 -2 q 748 1 739 -2 q 764 9 757 3 q 775 25 771 16 q 780 48 780 35 m 450 946 q 474 947 464 946 q 491 950 484 947 q 505 956 498 952 q 516 966 511 960 l 667 1120 q 674 1131 673 1126 q 673 1139 676 1136 q 660 1144 669 1142 q 633 1145 650 1145 q 603 1145 615 1145 q 583 1142 591 1144 q 569 1136 575 1140 q 559 1127 564 1133 l 450 1013 l 346 1130 q 338 1137 342 1133 q 326 1142 334 1140 q 307 1144 319 1143 q 274 1145 294 1145 q 250 1144 259 1145 q 236 1140 240 1143 q 233 1132 232 1137 q 241 1120 235 1126 l 386 966 q 397 956 392 960 q 409 949 402 951 q 426 947 416 947 q 450 946 435 946 m 144 878 "},"Ñ":{"ha":897,"x_min":117,"x_max":780,"o":"m 780 48 l 780 858 q 777 867 780 863 q 768 874 774 871 q 751 878 762 877 q 726 880 741 880 q 698 878 709 880 q 681 874 688 877 q 672 867 675 871 q 669 858 669 863 l 669 382 q 670 270 669 328 q 671 159 670 212 l 671 159 q 638 222 654 191 q 604 286 621 254 q 569 352 587 319 q 531 421 551 386 l 318 806 q 297 841 307 827 q 276 863 287 855 q 253 874 266 871 q 220 878 239 878 l 164 878 q 132 866 146 878 q 117 827 117 854 l 117 18 q 119 8 117 13 q 128 2 122 4 q 145 -2 134 -1 q 172 -4 155 -4 q 198 -2 188 -4 q 215 2 209 -1 q 224 8 222 4 q 227 18 227 13 l 227 547 q 227 648 227 597 q 224 748 226 699 l 226 748 q 267 666 245 708 q 311 585 289 623 l 587 85 q 613 42 602 59 q 637 15 625 25 q 662 2 649 5 q 693 -2 675 -2 l 730 -2 q 748 1 739 -2 q 764 9 757 3 q 775 25 771 16 q 780 48 780 35 m 597 1095 q 584 1046 597 1060 q 546 1032 570 1032 q 504 1044 524 1032 q 463 1071 485 1057 q 415 1097 441 1085 q 353 1109 389 1109 q 298 1100 323 1109 q 256 1074 273 1091 q 229 1032 238 1057 q 219 974 219 1006 q 227 952 219 958 q 258 947 234 947 q 276 947 268 947 q 289 949 283 947 q 297 954 294 951 q 300 962 300 957 q 312 1007 300 990 q 352 1024 323 1024 q 393 1012 374 1024 q 434 986 412 1000 q 483 959 456 971 q 545 947 509 947 q 644 983 609 947 q 679 1082 679 1019 q 671 1104 679 1099 q 640 1109 664 1109 q 607 1106 616 1109 q 597 1095 597 1103 m 132 878 "},"Ņ":{"ha":897,"x_min":117,"x_max":780,"o":"m 780 48 l 780 858 q 777 867 780 863 q 768 874 774 871 q 751 878 762 877 q 726 880 741 880 q 698 878 709 880 q 681 874 688 877 q 672 867 675 871 q 669 858 669 863 l 669 382 q 670 270 669 328 q 671 159 670 212 l 671 159 q 638 222 654 191 q 604 286 621 254 q 569 352 587 319 q 531 421 551 386 l 318 806 q 297 841 307 827 q 276 863 287 855 q 253 874 266 871 q 220 878 239 878 l 164 878 q 132 866 146 878 q 117 827 117 854 l 117 18 q 119 8 117 13 q 128 2 122 4 q 145 -2 134 -1 q 172 -4 155 -4 q 198 -2 188 -4 q 215 2 209 -1 q 224 8 222 4 q 227 18 227 13 l 227 547 q 227 648 227 597 q 224 748 226 699 l 226 748 q 267 666 245 708 q 311 585 289 623 l 587 85 q 613 42 602 59 q 637 15 625 25 q 662 2 649 5 q 693 -2 675 -2 l 730 -2 q 748 1 739 -2 q 764 9 757 3 q 775 25 771 16 q 780 48 780 35 m 376 -82 l 331 -219 q 328 -232 329 -227 q 331 -241 328 -237 q 342 -246 334 -244 q 363 -248 349 -248 q 387 -247 377 -248 q 402 -243 396 -245 q 413 -237 409 -241 q 420 -227 417 -233 l 486 -89 q 489 -76 489 -81 q 485 -65 490 -70 q 471 -59 481 -61 q 443 -56 460 -56 q 413 -58 425 -56 q 393 -62 401 -59 q 382 -70 386 -64 q 376 -82 378 -75 "},"Ŋ":{"ha":873,"x_min":117,"x_max":755,"o":"m 755 -22 l 755 859 q 753 867 755 863 q 744 874 750 871 q 726 878 737 877 q 701 880 715 880 q 674 878 684 880 q 657 874 663 877 q 648 867 650 871 q 645 859 645 863 l 645 459 q 645 332 645 397 q 648 205 646 267 l 646 205 q 585 320 616 262 q 522 433 553 378 l 300 823 q 284 848 292 838 q 268 865 277 859 q 247 874 258 871 q 220 878 235 878 l 163 878 q 131 866 145 878 q 117 827 117 854 l 117 17 q 119 8 117 12 q 129 1 122 4 q 146 -3 135 -1 q 172 -4 157 -4 q 199 -3 189 -4 q 216 1 210 -1 q 225 8 222 4 q 228 17 228 12 l 228 463 q 228 600 228 530 q 226 736 227 669 l 227 736 q 277 641 251 688 q 328 549 302 593 l 640 0 l 640 -28 q 635 -87 640 -63 q 620 -126 630 -111 q 593 -148 610 -141 q 555 -154 577 -154 q 524 -152 536 -154 q 505 -148 513 -151 q 493 -143 498 -145 q 481 -141 488 -141 q 474 -143 477 -141 q 469 -151 471 -146 q 466 -164 467 -156 q 465 -185 465 -173 q 467 -213 465 -203 q 473 -227 469 -223 q 486 -235 477 -231 q 507 -242 495 -239 q 534 -246 519 -245 q 568 -248 549 -248 q 658 -232 622 -248 q 715 -186 694 -216 q 746 -115 737 -157 q 755 -22 755 -73 "},"O":{"ha":920,"x_min":67,"x_max":852,"o":"m 852 449 q 828 638 852 555 q 757 776 805 720 q 637 861 709 832 q 469 890 566 890 q 293 858 368 890 q 168 767 218 826 q 92 623 117 707 q 67 434 67 538 q 90 242 67 326 q 160 102 113 159 q 280 17 208 46 q 451 -13 352 -13 q 627 19 551 -13 q 752 112 702 52 q 827 257 802 172 q 852 449 852 342 m 729 441 q 715 306 729 370 q 670 194 702 242 q 586 117 638 145 q 457 88 534 88 q 329 114 380 88 q 247 188 277 140 q 203 300 216 235 q 191 442 191 365 q 204 575 191 512 q 251 686 218 639 q 334 762 283 734 q 462 791 386 791 q 589 764 538 791 q 672 691 641 738 q 716 579 703 644 q 729 441 729 515 "},"Ò":{"ha":920,"x_min":67,"x_max":852,"o":"m 852 449 q 828 638 852 555 q 757 776 805 720 q 637 861 709 832 q 469 890 566 890 q 293 858 368 890 q 168 767 218 826 q 92 623 117 707 q 67 434 67 538 q 90 242 67 326 q 160 102 113 159 q 280 17 208 46 q 451 -13 352 -13 q 627 19 551 -13 q 752 112 702 52 q 827 257 802 172 q 852 449 852 342 m 729 441 q 715 306 729 370 q 670 194 702 242 q 586 117 638 145 q 457 88 534 88 q 329 114 380 88 q 247 188 277 140 q 203 300 216 235 q 191 442 191 365 q 204 575 191 512 q 251 686 218 639 q 334 762 283 734 q 462 791 386 791 q 589 764 538 791 q 672 691 641 738 q 716 579 703 644 q 729 441 729 515 m 513 975 l 386 1120 q 371 1133 378 1128 q 355 1141 363 1138 q 334 1144 346 1143 q 305 1145 322 1145 q 273 1142 285 1145 q 256 1135 261 1139 q 253 1124 252 1130 q 262 1111 255 1118 l 416 967 q 428 957 422 960 q 441 950 434 953 q 458 947 449 948 q 482 946 468 946 q 507 948 498 946 q 519 953 516 949 q 521 962 523 957 q 513 975 519 968 m 163 878 "},"Ó":{"ha":920,"x_min":67,"x_max":852,"o":"m 852 449 q 828 638 852 555 q 757 776 805 720 q 637 861 709 832 q 469 890 566 890 q 293 858 368 890 q 168 767 218 826 q 92 623 117 707 q 67 434 67 538 q 90 242 67 326 q 160 102 113 159 q 280 17 208 46 q 451 -13 352 -13 q 627 19 551 -13 q 752 112 702 52 q 827 257 802 172 q 852 449 852 342 m 729 441 q 715 306 729 370 q 670 194 702 242 q 586 117 638 145 q 457 88 534 88 q 329 114 380 88 q 247 188 277 140 q 203 300 216 235 q 191 442 191 365 q 204 575 191 512 q 251 686 218 639 q 334 762 283 734 q 462 791 386 791 q 589 764 538 791 q 672 691 641 738 q 716 579 703 644 q 729 441 729 515 m 530 1120 l 402 975 q 395 962 396 968 q 397 953 393 957 q 409 948 400 949 q 433 946 418 946 q 457 947 448 946 q 475 950 467 948 q 488 957 482 953 q 500 967 494 960 l 654 1111 q 662 1124 661 1118 q 659 1135 664 1130 q 643 1142 654 1139 q 611 1145 631 1145 q 582 1144 594 1145 q 561 1141 570 1143 q 545 1133 552 1138 q 530 1120 538 1128 m 304 878 "},"Ô":{"ha":920,"x_min":67,"x_max":852,"o":"m 852 449 q 828 638 852 555 q 757 776 805 720 q 637 861 709 832 q 469 890 566 890 q 293 858 368 890 q 168 767 218 826 q 92 623 117 707 q 67 434 67 538 q 90 242 67 326 q 160 102 113 159 q 280 17 208 46 q 451 -13 352 -13 q 627 19 551 -13 q 752 112 702 52 q 827 257 802 172 q 852 449 852 342 m 729 441 q 715 306 729 370 q 670 194 702 242 q 586 117 638 145 q 457 88 534 88 q 329 114 380 88 q 247 188 277 140 q 203 300 216 235 q 191 442 191 365 q 204 575 191 512 q 251 686 218 639 q 334 762 283 734 q 462 791 386 791 q 589 764 538 791 q 672 691 641 738 q 716 579 703 644 q 729 441 729 515 m 467 1145 q 443 1145 453 1145 q 426 1142 433 1144 q 413 1136 418 1139 q 401 1126 407 1132 l 250 972 q 242 960 243 965 q 244 952 241 956 q 257 948 248 949 q 283 946 267 946 q 314 947 302 946 q 334 949 326 947 q 348 955 342 951 q 359 964 353 959 l 467 1078 l 571 961 q 579 955 574 958 q 591 950 583 951 q 610 947 598 948 q 643 946 623 946 q 667 947 658 946 q 681 952 677 949 q 684 960 685 955 q 676 972 682 965 l 531 1126 q 520 1136 525 1132 q 508 1142 515 1139 q 491 1145 500 1144 q 467 1145 481 1145 m 152 878 "},"Õ":{"ha":920,"x_min":67,"x_max":852,"o":"m 852 449 q 828 638 852 555 q 757 776 805 720 q 637 861 709 832 q 469 890 566 890 q 293 858 368 890 q 168 767 218 826 q 92 623 117 707 q 67 434 67 538 q 90 242 67 326 q 160 102 113 159 q 280 17 208 46 q 451 -13 352 -13 q 627 19 551 -13 q 752 112 702 52 q 827 257 802 172 q 852 449 852 342 m 729 441 q 715 306 729 370 q 670 194 702 242 q 586 117 638 145 q 457 88 534 88 q 329 114 380 88 q 247 188 277 140 q 203 300 216 235 q 191 442 191 365 q 204 575 191 512 q 251 686 218 639 q 334 762 283 734 q 462 791 386 791 q 589 764 538 791 q 672 691 641 738 q 716 579 703 644 q 729 441 729 515 m 612 1095 q 598 1046 612 1060 q 561 1032 585 1032 q 519 1044 538 1032 q 478 1071 500 1057 q 430 1097 456 1085 q 368 1109 404 1109 q 313 1100 338 1109 q 271 1074 288 1091 q 243 1032 253 1057 q 234 974 234 1006 q 241 952 234 958 q 273 947 249 947 q 291 947 283 947 q 304 949 298 947 q 312 954 309 951 q 315 962 315 957 q 327 1007 315 990 q 367 1024 338 1024 q 408 1012 389 1024 q 449 986 427 1000 q 498 959 471 971 q 560 947 524 947 q 659 983 624 947 q 694 1082 694 1019 q 686 1104 694 1099 q 654 1109 679 1109 q 622 1106 631 1109 q 612 1095 612 1103 m 146 878 "},"Ö":{"ha":920,"x_min":67,"x_max":852,"o":"m 852 449 q 828 638 852 555 q 757 776 805 720 q 637 861 709 832 q 469 890 566 890 q 293 858 368 890 q 168 767 218 826 q 92 623 117 707 q 67 434 67 538 q 90 242 67 326 q 160 102 113 159 q 280 17 208 46 q 451 -13 352 -13 q 627 19 551 -13 q 752 112 702 52 q 827 257 802 172 q 852 449 852 342 m 729 441 q 715 306 729 370 q 670 194 702 242 q 586 117 638 145 q 457 88 534 88 q 329 114 380 88 q 247 188 277 140 q 203 300 216 235 q 191 442 191 365 q 204 575 191 512 q 251 686 218 639 q 334 762 283 734 q 462 791 386 791 q 589 764 538 791 q 672 691 641 738 q 716 579 703 644 q 729 441 729 515 m 388 1037 q 374 1088 388 1074 q 322 1101 360 1101 q 270 1087 284 1101 q 256 1036 256 1074 q 270 984 256 998 q 321 970 283 970 q 374 985 359 970 q 388 1037 388 999 m 668 1037 q 654 1088 668 1074 q 602 1101 641 1101 q 551 1087 565 1101 q 536 1036 536 1074 q 550 984 536 998 q 602 970 564 970 q 654 985 640 970 q 668 1037 668 999 m 167 878 "},"Ō":{"ha":920,"x_min":67,"x_max":852,"o":"m 852 449 q 828 638 852 555 q 757 776 805 720 q 637 861 709 832 q 469 890 566 890 q 293 858 368 890 q 168 767 218 826 q 92 623 117 707 q 67 434 67 538 q 90 242 67 326 q 160 102 113 159 q 280 17 208 46 q 451 -13 352 -13 q 627 19 551 -13 q 752 112 702 52 q 827 257 802 172 q 852 449 852 342 m 729 441 q 715 306 729 370 q 670 194 702 242 q 586 117 638 145 q 457 88 534 88 q 329 114 380 88 q 247 188 277 140 q 203 300 216 235 q 191 442 191 365 q 204 575 191 512 q 251 686 218 639 q 334 762 283 734 q 462 791 386 791 q 589 764 538 791 q 672 691 641 738 q 716 579 703 644 q 729 441 729 515 m 648 1078 l 278 1078 q 268 1076 273 1078 q 261 1067 264 1073 q 257 1053 258 1062 q 256 1034 256 1044 q 257 1014 256 1022 q 261 999 258 1005 q 268 991 264 994 q 278 988 273 988 l 648 988 q 657 991 653 988 q 664 999 661 994 q 668 1014 667 1005 q 669 1034 669 1022 q 668 1054 669 1045 q 664 1067 667 1062 q 657 1076 661 1073 q 648 1078 653 1078 m 166 878 "},"Ŏ":{"ha":920,"x_min":67,"x_max":852,"o":"m 852 449 q 828 638 852 555 q 757 776 805 720 q 637 861 709 832 q 469 890 566 890 q 293 858 368 890 q 168 767 218 826 q 92 623 117 707 q 67 434 67 538 q 90 242 67 326 q 160 102 113 159 q 280 17 208 46 q 451 -13 352 -13 q 627 19 551 -13 q 752 112 702 52 q 827 257 802 172 q 852 449 852 342 m 729 441 q 715 306 729 370 q 670 194 702 242 q 586 117 638 145 q 457 88 534 88 q 329 114 380 88 q 247 188 277 140 q 203 300 216 235 q 191 442 191 365 q 204 575 191 512 q 251 686 218 639 q 334 762 283 734 q 462 791 386 791 q 589 764 538 791 q 672 691 641 738 q 716 579 703 644 q 729 441 729 515 m 640 1128 q 631 1143 640 1139 q 598 1147 623 1147 q 564 1142 571 1147 q 555 1121 556 1137 q 547 1083 555 1105 q 518 1044 539 1061 q 463 1028 498 1028 q 421 1036 439 1028 q 393 1059 404 1044 q 375 1097 381 1074 q 369 1131 370 1120 q 359 1144 369 1141 q 325 1147 349 1147 q 293 1143 301 1147 q 286 1128 286 1139 q 296 1055 286 1088 q 328 998 306 1022 q 382 960 349 974 q 461 946 416 946 q 536 959 503 946 q 593 995 570 971 q 628 1052 616 1019 q 640 1128 640 1086 m 196 878 "},"Ő":{"ha":920,"x_min":67,"x_max":852,"o":"m 852 449 q 828 638 852 555 q 757 776 805 720 q 637 861 709 832 q 469 890 566 890 q 293 858 368 890 q 168 767 218 826 q 92 623 117 707 q 67 434 67 538 q 90 242 67 326 q 160 102 113 159 q 280 17 208 46 q 451 -13 352 -13 q 627 19 551 -13 q 752 112 702 52 q 827 257 802 172 q 852 449 852 342 m 729 441 q 715 306 729 370 q 670 194 702 242 q 586 117 638 145 q 457 88 534 88 q 329 114 380 88 q 247 188 277 140 q 203 300 216 235 q 191 442 191 365 q 204 575 191 512 q 251 686 218 639 q 334 762 283 734 q 462 791 386 791 q 589 764 538 791 q 672 691 641 738 q 716 579 703 644 q 729 441 729 515 m 378 960 l 530 1116 q 539 1129 537 1123 q 535 1139 541 1135 q 514 1145 529 1143 q 473 1147 498 1147 q 444 1146 456 1147 q 424 1143 432 1145 q 410 1137 416 1141 q 401 1128 405 1133 l 286 969 q 288 952 279 959 q 317 946 296 946 q 340 946 330 946 q 356 948 349 947 q 369 952 363 949 q 378 960 374 956 m 636 961 l 791 1119 q 798 1130 798 1125 q 792 1139 798 1135 q 772 1145 786 1143 q 736 1147 759 1147 q 705 1146 718 1147 q 684 1143 692 1145 q 669 1137 675 1141 q 660 1128 663 1133 l 538 968 q 536 959 535 963 q 542 951 536 954 q 555 947 547 949 q 577 946 564 946 q 600 946 591 946 q 615 948 609 947 q 627 952 622 949 q 636 961 631 956 m 193 878 "},"Ø":{"ha":922,"x_min":67,"x_max":854,"o":"m 854 449 q 845 571 854 515 q 817 673 836 627 q 771 758 798 720 q 707 822 744 795 l 793 997 q 798 1011 798 1005 q 793 1022 798 1018 q 779 1029 789 1027 q 752 1032 769 1032 q 727 1031 738 1032 q 708 1029 716 1031 q 696 1023 701 1027 q 688 1015 691 1020 l 615 865 q 546 884 581 878 q 469 890 511 890 q 293 858 369 890 q 168 767 218 826 q 92 623 117 707 q 67 434 67 538 q 76 308 67 366 q 104 203 85 250 q 150 118 122 155 q 214 54 177 81 l 127 -121 q 123 -135 123 -129 q 127 -146 123 -142 q 142 -154 132 -151 q 170 -156 153 -156 q 194 -155 184 -156 q 213 -152 205 -154 q 225 -147 220 -151 q 232 -140 230 -144 l 307 11 q 374 -7 338 -1 q 452 -13 410 -13 q 627 19 551 -13 q 753 112 702 52 q 829 257 804 172 q 854 449 854 342 m 733 442 q 720 305 733 370 q 674 192 706 241 q 589 115 642 144 q 459 87 536 87 q 400 92 427 87 q 352 108 374 98 l 653 714 q 714 596 696 665 q 733 442 733 527 m 571 770 l 269 162 q 207 282 226 210 q 189 441 189 354 q 202 576 189 513 q 249 688 216 640 q 333 764 281 736 q 462 792 385 792 q 522 787 495 792 q 571 770 549 781 "},"Ǿ":{"ha":922,"x_min":67,"x_max":854,"o":"m 854 449 q 845 571 854 515 q 817 673 836 627 q 771 758 798 720 q 707 822 744 795 l 793 997 q 798 1011 798 1005 q 793 1022 798 1018 q 779 1029 789 1027 q 752 1032 769 1032 q 727 1031 738 1032 q 708 1029 716 1031 q 696 1023 701 1027 q 688 1015 691 1020 l 615 865 q 546 884 581 878 q 469 890 511 890 q 293 858 369 890 q 168 767 218 826 q 92 623 117 707 q 67 434 67 538 q 76 308 67 366 q 104 203 85 250 q 150 118 122 155 q 214 54 177 81 l 127 -121 q 123 -135 123 -129 q 127 -146 123 -142 q 142 -154 132 -151 q 170 -156 153 -156 q 194 -155 184 -156 q 213 -152 205 -154 q 225 -147 220 -151 q 232 -140 230 -144 l 307 11 q 374 -7 338 -1 q 452 -13 410 -13 q 627 19 551 -13 q 753 112 702 52 q 829 257 804 172 q 854 449 854 342 m 733 442 q 720 305 733 370 q 674 192 706 241 q 589 115 642 144 q 459 87 536 87 q 400 92 427 87 q 352 108 374 98 l 653 714 q 714 596 696 665 q 733 442 733 527 m 571 770 l 269 162 q 207 282 226 210 q 189 441 189 354 q 202 576 189 513 q 249 688 216 640 q 333 764 281 736 q 462 792 385 792 q 522 787 495 792 q 571 770 549 781 m 465 1120 l 336 975 q 329 962 330 968 q 331 953 328 957 q 343 948 334 949 q 368 946 352 946 q 392 947 382 946 q 409 950 401 948 q 422 957 416 953 q 435 967 428 960 l 589 1111 q 596 1124 595 1118 q 593 1135 598 1130 q 577 1142 589 1139 q 545 1145 566 1145 q 516 1144 528 1145 q 495 1141 504 1143 q 479 1133 486 1138 q 465 1120 472 1128 m 239 878 "},"Œ":{"ha":1204,"x_min":67,"x_max":1130,"o":"m 1130 48 q 1128 71 1130 62 q 1124 86 1127 80 q 1116 94 1120 92 q 1107 97 1112 97 l 758 97 l 758 408 l 1053 408 q 1062 410 1058 408 q 1070 419 1067 413 q 1074 434 1073 425 q 1076 456 1076 443 q 1074 478 1076 469 q 1070 493 1073 487 q 1062 502 1067 499 q 1053 505 1058 505 l 758 505 l 758 781 l 1101 781 q 1111 783 1107 781 q 1118 792 1116 786 q 1123 807 1121 798 q 1124 828 1124 816 q 1123 851 1124 842 q 1118 866 1121 860 q 1111 875 1116 872 q 1101 878 1107 878 l 688 878 q 665 871 676 878 q 650 849 654 865 q 567 879 614 867 q 469 890 519 890 q 293 858 368 890 q 168 767 218 826 q 92 623 117 707 q 67 434 67 538 q 90 242 67 326 q 160 102 113 158 q 280 16 208 45 q 451 -13 352 -13 q 560 -1 510 -13 q 650 33 610 10 q 665 7 652 14 q 689 0 677 0 l 1107 0 q 1116 3 1112 0 q 1124 12 1120 5 q 1128 27 1127 18 q 1130 48 1130 36 m 642 736 l 642 146 q 561 104 607 119 q 457 88 515 88 q 329 114 380 88 q 247 188 277 140 q 203 300 216 235 q 191 442 191 365 q 204 576 191 513 q 251 687 218 639 q 334 763 283 734 q 462 791 386 791 q 560 776 516 791 q 642 736 604 761 "},"P":{"ha":718,"x_min":117,"x_max":656,"o":"m 656 621 q 642 711 656 670 q 602 783 628 752 q 539 836 576 814 q 467 865 503 857 q 405 875 431 873 q 351 878 379 878 l 163 878 q 131 866 145 878 q 117 827 117 854 l 117 18 q 119 8 117 12 q 129 2 122 4 q 147 -2 136 -1 q 175 -4 158 -4 q 203 -2 192 -4 q 221 2 214 -1 q 230 8 227 4 q 233 18 233 12 l 233 334 l 333 334 q 473 354 414 334 q 572 412 532 374 q 634 502 612 449 q 656 621 656 555 m 533 611 q 521 538 533 572 q 485 480 509 505 q 426 443 461 456 q 338 429 391 429 l 233 429 l 233 781 l 341 781 q 402 777 371 781 q 464 754 434 772 q 513 701 493 736 q 533 611 533 665 "},"Þ":{"ha":718,"x_min":117,"x_max":656,"o":"m 656 473 q 642 563 656 522 q 603 635 629 604 q 541 688 577 667 q 458 720 504 709 q 406 727 433 725 q 351 730 379 730 l 233 730 l 233 862 q 230 871 233 867 q 221 878 227 875 q 203 882 214 880 q 175 883 192 883 q 147 882 158 883 q 129 878 136 880 q 119 871 122 875 q 117 862 117 867 l 117 15 q 119 6 117 9 q 129 -1 122 2 q 147 -5 136 -3 q 175 -6 158 -6 q 203 -5 192 -6 q 221 -1 214 -3 q 230 6 227 2 q 233 15 233 9 l 233 186 l 348 186 q 476 206 419 186 q 573 264 534 227 q 634 354 613 301 q 656 473 656 408 m 533 463 q 522 390 533 424 q 487 333 510 357 q 432 295 465 309 q 357 281 399 281 l 233 281 l 233 633 l 343 633 q 379 632 359 633 q 417 625 399 631 q 503 569 473 611 q 533 463 533 527 "},"Q":{"ha":935,"x_min":67,"x_max":960,"o":"m 960 -77 q 957 -46 960 -58 q 947 -27 954 -34 q 927 -16 941 -21 q 889 1 913 -11 q 827 35 865 12 q 741 98 790 58 q 790 167 769 129 q 825 250 811 205 q 845 345 839 294 q 852 450 852 395 q 827 638 852 556 q 754 776 803 720 q 634 861 706 832 q 469 890 563 890 q 293 858 368 890 q 168 767 218 826 q 92 623 117 707 q 67 434 67 538 q 90 242 67 326 q 160 102 113 158 q 280 16 208 45 q 451 -13 352 -13 q 569 2 518 -13 q 653 37 620 17 q 740 -34 695 -3 q 824 -86 785 -64 q 893 -118 863 -107 q 937 -130 924 -130 q 945 -127 941 -130 q 953 -120 949 -125 q 958 -103 956 -114 q 960 -77 960 -93 m 729 441 q 715 306 729 370 q 670 194 702 242 q 586 117 638 145 q 457 88 534 88 q 329 114 380 88 q 247 188 277 140 q 203 300 216 235 q 191 442 191 365 q 204 576 191 513 q 251 687 218 639 q 334 763 283 734 q 462 791 386 791 q 589 764 538 791 q 672 691 641 738 q 716 580 703 644 q 729 441 729 516 "},"R":{"ha":754,"x_min":117,"x_max":702,"o":"m 702 18 q 699 33 702 23 q 687 67 696 43 l 608 260 q 581 320 595 294 q 552 367 568 347 q 519 402 537 387 q 480 426 502 416 q 550 459 519 439 q 604 506 581 479 q 638 567 626 532 q 650 646 650 602 q 636 729 650 692 q 597 796 623 767 q 531 844 570 825 q 441 872 492 863 q 402 876 424 874 q 347 878 380 878 l 160 878 q 131 867 144 878 q 117 830 117 857 l 117 18 q 119 8 117 12 q 129 2 122 4 q 147 -2 136 -1 q 175 -4 158 -4 q 203 -2 192 -4 q 221 2 214 -1 q 230 8 227 4 q 233 18 233 12 l 233 391 l 311 391 q 380 379 351 391 q 429 346 408 368 q 466 295 450 325 q 495 231 481 266 l 576 24 q 582 10 578 16 q 593 2 586 5 q 611 -3 600 -1 q 640 -4 622 -4 q 672 -3 660 -4 q 691 1 684 -1 q 700 8 698 4 q 702 18 702 12 m 526 634 q 516 575 526 602 q 483 528 505 548 q 427 497 460 508 q 347 486 393 486 l 233 486 l 233 781 l 332 781 q 388 779 366 781 q 426 772 409 777 q 503 721 480 757 q 526 634 526 686 "},"Ŕ":{"ha":754,"x_min":117,"x_max":702,"o":"m 702 18 q 699 33 702 23 q 687 67 696 43 l 608 260 q 581 320 595 294 q 552 367 568 347 q 519 402 537 387 q 480 426 502 416 q 550 459 519 439 q 604 506 581 479 q 638 567 626 532 q 650 646 650 602 q 636 729 650 692 q 597 796 623 767 q 531 844 570 825 q 441 872 492 863 q 402 876 424 874 q 347 878 380 878 l 160 878 q 131 867 144 878 q 117 830 117 857 l 117 18 q 119 8 117 12 q 129 2 122 4 q 147 -2 136 -1 q 175 -4 158 -4 q 203 -2 192 -4 q 221 2 214 -1 q 230 8 227 4 q 233 18 233 12 l 233 391 l 311 391 q 380 379 351 391 q 429 346 408 368 q 466 295 450 325 q 495 231 481 266 l 576 24 q 582 10 578 16 q 593 2 586 5 q 611 -3 600 -1 q 640 -4 622 -4 q 672 -3 660 -4 q 691 1 684 -1 q 700 8 698 4 q 702 18 702 12 m 526 634 q 516 575 526 602 q 483 528 505 548 q 427 497 460 508 q 347 486 393 486 l 233 486 l 233 781 l 332 781 q 388 779 366 781 q 426 772 409 777 q 503 721 480 757 q 526 634 526 686 m 421 1120 l 293 975 q 286 962 287 968 q 288 953 284 957 q 300 948 291 949 q 324 946 309 946 q 348 947 338 946 q 366 950 358 948 q 379 957 373 953 q 391 967 385 960 l 545 1111 q 553 1124 551 1118 q 550 1135 555 1130 q 534 1142 545 1139 q 502 1145 522 1145 q 473 1144 485 1145 q 452 1141 460 1143 q 436 1133 443 1138 q 421 1120 429 1128 m 195 878 "},"Ř":{"ha":754,"x_min":56,"x_max":702,"o":"m 702 18 q 699 33 702 23 q 687 67 696 43 l 608 260 q 581 320 595 294 q 552 367 568 347 q 519 402 537 387 q 480 426 502 416 q 550 459 519 439 q 604 506 581 479 q 638 567 626 532 q 650 646 650 602 q 636 729 650 692 q 597 796 623 767 q 531 844 570 825 q 441 872 492 863 q 402 876 424 874 q 347 878 380 878 l 160 878 q 131 867 144 878 q 117 830 117 857 l 117 18 q 119 8 117 12 q 129 2 122 4 q 147 -2 136 -1 q 175 -4 158 -4 q 203 -2 192 -4 q 221 2 214 -1 q 230 8 227 4 q 233 18 233 12 l 233 391 l 311 391 q 380 379 351 391 q 429 346 408 368 q 466 295 450 325 q 495 231 481 266 l 576 24 q 582 10 578 16 q 593 2 586 5 q 611 -3 600 -1 q 640 -4 622 -4 q 672 -3 660 -4 q 691 1 684 -1 q 700 8 698 4 q 702 18 702 12 m 526 634 q 516 575 526 602 q 483 528 505 548 q 427 497 460 508 q 347 486 393 486 l 233 486 l 233 781 l 332 781 q 388 779 366 781 q 426 772 409 777 q 503 721 480 757 q 526 634 526 686 m 362 946 q 386 947 376 946 q 404 950 396 947 q 417 956 411 952 q 429 966 423 960 l 580 1120 q 587 1131 585 1126 q 585 1139 589 1136 q 572 1144 582 1142 q 546 1145 562 1145 q 515 1145 528 1145 q 495 1142 503 1144 q 482 1136 488 1140 q 471 1127 476 1133 l 363 1013 l 258 1130 q 250 1137 254 1133 q 239 1142 246 1140 q 219 1144 231 1143 q 186 1145 207 1145 q 162 1144 172 1145 q 149 1140 153 1143 q 146 1132 144 1137 q 153 1120 147 1126 l 298 966 q 310 956 304 960 q 322 949 315 951 q 338 947 329 947 q 362 946 348 946 m 56 878 "},"Ŗ":{"ha":754,"x_min":117,"x_max":702,"o":"m 702 18 q 699 33 702 23 q 687 67 696 43 l 608 260 q 581 320 595 294 q 552 367 568 347 q 519 402 537 387 q 480 426 502 416 q 550 459 519 439 q 604 506 581 479 q 638 567 626 532 q 650 646 650 602 q 636 729 650 692 q 597 796 623 767 q 531 844 570 825 q 441 872 492 863 q 402 876 424 874 q 347 878 380 878 l 160 878 q 131 867 144 878 q 117 830 117 857 l 117 18 q 119 8 117 12 q 129 2 122 4 q 147 -2 136 -1 q 175 -4 158 -4 q 203 -2 192 -4 q 221 2 214 -1 q 230 8 227 4 q 233 18 233 12 l 233 391 l 311 391 q 380 379 351 391 q 429 346 408 368 q 466 295 450 325 q 495 231 481 266 l 576 24 q 582 10 578 16 q 593 2 586 5 q 611 -3 600 -1 q 640 -4 622 -4 q 672 -3 660 -4 q 691 1 684 -1 q 700 8 698 4 q 702 18 702 12 m 526 634 q 516 575 526 602 q 483 528 505 548 q 427 497 460 508 q 347 486 393 486 l 233 486 l 233 781 l 332 781 q 388 779 366 781 q 426 772 409 777 q 503 721 480 757 q 526 634 526 686 m 333 -82 l 288 -219 q 286 -232 286 -227 q 288 -241 285 -237 q 299 -246 292 -244 q 321 -248 307 -248 q 344 -247 334 -248 q 360 -243 353 -245 q 370 -237 366 -241 q 377 -227 374 -233 l 443 -89 q 447 -76 446 -81 q 443 -65 447 -70 q 428 -59 438 -61 q 400 -56 418 -56 q 370 -58 382 -56 q 351 -62 358 -59 q 339 -70 343 -64 q 333 -82 335 -75 "},"S":{"ha":638,"x_min":48,"x_max":588,"o":"m 588 246 q 571 337 588 298 q 525 403 553 375 q 461 452 497 431 q 388 490 425 473 q 315 524 351 507 q 251 562 279 541 q 205 608 222 582 q 189 671 189 635 q 197 719 189 696 q 224 758 206 741 q 269 784 241 774 q 332 793 296 793 q 403 784 372 793 q 458 762 435 774 q 497 741 481 750 q 520 731 513 731 q 529 734 525 731 q 534 744 532 737 q 537 760 536 750 q 538 781 538 769 q 538 802 538 794 q 536 816 537 810 q 532 826 534 822 q 524 836 530 829 q 497 853 517 842 q 451 872 477 863 q 395 885 425 880 q 336 890 366 890 q 230 875 279 890 q 145 831 181 860 q 90 759 110 802 q 70 661 70 715 q 87 569 70 607 q 132 502 104 530 q 195 452 160 473 q 268 414 231 431 q 341 380 305 397 q 404 343 376 363 q 449 297 432 323 q 466 233 466 271 q 454 172 466 199 q 419 126 441 144 q 365 97 396 107 q 295 87 333 87 q 207 99 245 87 q 141 124 168 111 q 97 149 114 138 q 70 161 79 161 q 60 158 64 161 q 54 150 56 156 q 50 134 51 144 q 48 109 48 124 q 52 76 48 88 q 63 55 56 63 q 91 35 71 47 q 141 13 111 24 q 208 -5 170 2 q 290 -13 245 -13 q 407 4 353 -13 q 502 55 462 21 q 565 136 543 88 q 588 246 588 184 "},"Ś":{"ha":638,"x_min":48,"x_max":588,"o":"m 588 246 q 571 337 588 298 q 525 403 553 375 q 461 452 497 431 q 388 490 425 473 q 315 524 351 507 q 251 562 279 541 q 205 608 222 582 q 189 671 189 635 q 197 719 189 696 q 224 758 206 741 q 269 784 241 774 q 332 793 296 793 q 403 784 372 793 q 458 762 435 774 q 497 741 481 750 q 520 731 513 731 q 529 734 525 731 q 534 744 532 737 q 537 760 536 750 q 538 781 538 769 q 538 802 538 794 q 536 816 537 810 q 532 826 534 822 q 524 836 530 829 q 497 853 517 842 q 451 872 477 863 q 395 885 425 880 q 336 890 366 890 q 230 875 279 890 q 145 831 181 860 q 90 759 110 802 q 70 661 70 715 q 87 569 70 607 q 132 502 104 530 q 195 452 160 473 q 268 414 231 431 q 341 380 305 397 q 404 343 376 363 q 449 297 432 323 q 466 233 466 271 q 454 172 466 199 q 419 126 441 144 q 365 97 396 107 q 295 87 333 87 q 207 99 245 87 q 141 124 168 111 q 97 149 114 138 q 70 161 79 161 q 60 158 64 161 q 54 150 56 156 q 50 134 51 144 q 48 109 48 124 q 52 76 48 88 q 63 55 56 63 q 91 35 71 47 q 141 13 111 24 q 208 -5 170 2 q 290 -13 245 -13 q 407 4 353 -13 q 502 55 462 21 q 565 136 543 88 q 588 246 588 184 m 405 1120 l 277 975 q 269 962 271 968 q 271 953 268 957 q 283 948 275 949 q 308 946 292 946 q 332 947 322 946 q 349 950 342 948 q 362 957 357 953 q 375 967 368 960 l 529 1111 q 537 1124 535 1118 q 534 1135 538 1130 q 517 1142 529 1139 q 486 1145 506 1145 q 456 1144 469 1145 q 435 1141 444 1143 q 419 1133 427 1138 q 405 1120 412 1128 m 179 878 "},"Ŝ":{"ha":638,"x_min":14,"x_max":588,"o":"m 588 246 q 571 337 588 298 q 525 403 553 375 q 461 452 497 431 q 388 490 425 473 q 315 524 351 507 q 251 562 279 541 q 205 608 222 582 q 189 671 189 635 q 197 719 189 696 q 224 758 206 741 q 269 784 241 774 q 332 793 296 793 q 403 784 372 793 q 458 762 435 774 q 497 741 481 750 q 520 731 513 731 q 529 734 525 731 q 534 744 532 737 q 537 760 536 750 q 538 781 538 769 q 538 802 538 794 q 536 816 537 810 q 532 826 534 822 q 524 836 530 829 q 497 853 517 842 q 451 872 477 863 q 395 885 425 880 q 336 890 366 890 q 230 875 279 890 q 145 831 181 860 q 90 759 110 802 q 70 661 70 715 q 87 569 70 607 q 132 502 104 530 q 195 452 160 473 q 268 414 231 431 q 341 380 305 397 q 404 343 376 363 q 449 297 432 323 q 466 233 466 271 q 454 172 466 199 q 419 126 441 144 q 365 97 396 107 q 295 87 333 87 q 207 99 245 87 q 141 124 168 111 q 97 149 114 138 q 70 161 79 161 q 60 158 64 161 q 54 150 56 156 q 50 134 51 144 q 48 109 48 124 q 52 76 48 88 q 63 55 56 63 q 91 35 71 47 q 141 13 111 24 q 208 -5 170 2 q 290 -13 245 -13 q 407 4 353 -13 q 502 55 462 21 q 565 136 543 88 q 588 246 588 184 m 330 1145 q 306 1145 315 1145 q 288 1142 296 1144 q 275 1136 281 1139 q 264 1126 269 1132 l 112 972 q 104 960 106 965 q 107 952 103 956 q 120 948 111 949 q 146 946 129 946 q 176 947 164 946 q 197 949 189 947 q 210 955 205 951 q 221 964 216 959 l 329 1078 l 433 961 q 441 955 437 958 q 453 950 446 951 q 473 947 460 948 q 505 946 485 946 q 530 947 520 946 q 543 952 539 949 q 546 960 547 955 q 538 972 545 965 l 393 1126 q 382 1136 387 1132 q 370 1142 377 1139 q 353 1145 363 1144 q 330 1145 344 1145 m 14 878 "},"Š":{"ha":638,"x_min":16,"x_max":588,"o":"m 588 246 q 571 337 588 298 q 525 403 553 375 q 461 452 497 431 q 388 490 425 473 q 315 524 351 507 q 251 562 279 541 q 205 608 222 582 q 189 671 189 635 q 197 719 189 696 q 224 758 206 741 q 269 784 241 774 q 332 793 296 793 q 403 784 372 793 q 458 762 435 774 q 497 741 481 750 q 520 731 513 731 q 529 734 525 731 q 534 744 532 737 q 537 760 536 750 q 538 781 538 769 q 538 802 538 794 q 536 816 537 810 q 532 826 534 822 q 524 836 530 829 q 497 853 517 842 q 451 872 477 863 q 395 885 425 880 q 336 890 366 890 q 230 875 279 890 q 145 831 181 860 q 90 759 110 802 q 70 661 70 715 q 87 569 70 607 q 132 502 104 530 q 195 452 160 473 q 268 414 231 431 q 341 380 305 397 q 404 343 376 363 q 449 297 432 323 q 466 233 466 271 q 454 172 466 199 q 419 126 441 144 q 365 97 396 107 q 295 87 333 87 q 207 99 245 87 q 141 124 168 111 q 97 149 114 138 q 70 161 79 161 q 60 158 64 161 q 54 150 56 156 q 50 134 51 144 q 48 109 48 124 q 52 76 48 88 q 63 55 56 63 q 91 35 71 47 q 141 13 111 24 q 208 -5 170 2 q 290 -13 245 -13 q 407 4 353 -13 q 502 55 462 21 q 565 136 543 88 q 588 246 588 184 m 322 946 q 346 947 336 946 q 363 950 356 947 q 377 956 371 952 q 389 966 383 960 l 540 1120 q 547 1131 545 1126 q 545 1139 549 1136 q 532 1144 542 1142 q 506 1145 522 1145 q 475 1145 488 1145 q 455 1142 463 1144 q 442 1136 448 1140 q 431 1127 436 1133 l 323 1013 l 218 1130 q 210 1137 214 1133 q 199 1142 206 1140 q 179 1144 191 1143 q 146 1145 167 1145 q 122 1144 132 1145 q 109 1140 113 1143 q 106 1132 104 1137 q 113 1120 107 1126 l 258 966 q 270 956 264 960 q 282 949 275 951 q 298 947 289 947 q 322 946 308 946 m 16 878 "},"Ş":{"ha":638,"x_min":48,"x_max":588,"o":"m 351 -8 q 486 42 433 4 q 563 132 538 79 q 588 246 588 185 q 571 337 588 298 q 525 403 553 375 q 461 452 497 431 q 388 490 425 473 q 315 524 351 507 q 251 562 279 541 q 205 608 222 582 q 189 671 189 635 q 197 719 189 696 q 224 758 206 741 q 269 784 241 774 q 332 793 296 793 q 403 784 372 793 q 458 762 435 774 q 497 741 481 750 q 520 731 513 731 q 529 734 525 731 q 534 744 532 737 q 537 760 536 750 q 538 781 538 769 q 538 802 538 794 q 536 816 537 810 q 532 826 534 822 q 524 836 530 829 q 497 853 517 842 q 451 872 477 863 q 395 885 425 880 q 336 890 366 890 q 230 875 279 890 q 145 831 181 860 q 90 759 110 802 q 70 661 70 715 q 87 569 70 607 q 132 502 104 530 q 195 452 160 473 q 268 414 231 431 q 341 380 305 397 q 404 343 376 363 q 449 297 432 323 q 466 233 466 271 q 454 172 466 199 q 419 126 441 144 q 365 97 396 107 q 295 87 333 87 q 207 99 245 87 q 141 124 168 111 q 97 149 114 138 q 70 161 79 161 q 60 158 64 161 q 54 150 56 156 q 50 134 51 144 q 48 109 48 124 q 52 76 48 88 q 63 55 56 63 q 91 36 71 47 q 139 14 111 24 q 196 -3 168 3 q 254 -12 223 -9 l 283 -77 q 294 -105 290 -92 q 298 -127 298 -118 q 286 -154 298 -145 q 252 -163 274 -163 l 168 -163 q 153 -171 157 -163 q 149 -199 149 -178 q 150 -215 149 -209 q 154 -225 151 -221 q 161 -232 156 -229 q 182 -238 167 -235 q 219 -244 197 -241 q 264 -248 240 -248 q 318 -240 294 -248 q 360 -219 342 -233 q 387 -184 378 -205 q 397 -138 397 -164 q 390 -101 397 -121 q 370 -50 384 -81 l 351 -8 "},"Ș":{"ha":638,"x_min":48,"x_max":588,"o":"m 588 246 q 571 337 588 298 q 525 403 553 375 q 461 452 497 431 q 388 490 425 473 q 315 524 351 507 q 251 562 279 541 q 205 608 222 582 q 189 671 189 635 q 197 719 189 696 q 224 758 206 741 q 269 784 241 774 q 332 793 296 793 q 403 784 372 793 q 458 762 435 774 q 497 741 481 750 q 520 731 513 731 q 529 734 525 731 q 534 744 532 737 q 537 760 536 750 q 538 781 538 769 q 538 802 538 794 q 536 816 537 810 q 532 826 534 822 q 524 836 530 829 q 497 853 517 842 q 451 872 477 863 q 395 885 425 880 q 336 890 366 890 q 230 875 279 890 q 145 831 181 860 q 90 759 110 802 q 70 661 70 715 q 87 569 70 607 q 132 502 104 530 q 195 452 160 473 q 268 414 231 431 q 341 380 305 397 q 404 343 376 363 q 449 297 432 323 q 466 233 466 271 q 454 172 466 199 q 419 126 441 144 q 365 97 396 107 q 295 87 333 87 q 207 99 245 87 q 141 124 168 111 q 97 149 114 138 q 70 161 79 161 q 60 158 64 161 q 54 150 56 156 q 50 134 51 144 q 48 109 48 124 q 52 76 48 88 q 63 55 56 63 q 91 35 71 47 q 141 13 111 24 q 208 -5 170 2 q 290 -13 245 -13 q 407 4 353 -13 q 502 55 462 21 q 565 136 543 88 q 588 246 588 184 m 253 -82 l 208 -219 q 205 -232 206 -227 q 208 -241 205 -237 q 219 -246 212 -244 q 241 -248 227 -248 q 264 -247 254 -248 q 280 -243 273 -245 q 290 -237 286 -241 q 297 -227 294 -233 l 363 -89 q 367 -76 366 -81 q 362 -65 367 -70 q 348 -59 358 -61 q 320 -56 338 -56 q 290 -58 302 -56 q 271 -62 278 -59 q 259 -70 263 -64 q 253 -82 255 -75 "},"T":{"ha":677,"x_min":10,"x_max":667,"o":"m 667 827 q 665 850 667 840 q 661 866 664 860 q 653 875 658 872 q 644 878 649 878 l 33 878 q 23 875 28 878 q 16 866 19 872 q 12 850 14 860 q 10 827 10 840 q 12 805 10 814 q 16 790 14 795 q 23 781 19 784 q 33 779 28 779 l 280 779 l 280 18 q 283 8 280 12 q 292 2 286 4 q 311 -2 299 -1 q 338 -4 322 -4 q 367 -2 355 -4 q 385 2 378 -1 q 394 8 391 4 q 397 18 397 12 l 397 779 l 644 779 q 653 781 649 779 q 661 790 658 784 q 665 805 664 795 q 667 827 667 814 "},"Ť":{"ha":677,"x_min":10,"x_max":667,"o":"m 667 827 q 665 850 667 840 q 661 866 664 860 q 653 875 658 872 q 644 878 649 878 l 33 878 q 23 875 28 878 q 16 866 19 872 q 12 850 14 860 q 10 827 10 840 q 12 805 10 814 q 16 790 14 795 q 23 781 19 784 q 33 779 28 779 l 280 779 l 280 18 q 283 8 280 12 q 292 2 286 4 q 311 -2 299 -1 q 338 -4 322 -4 q 367 -2 355 -4 q 385 2 378 -1 q 394 8 391 4 q 397 18 397 12 l 397 779 l 644 779 q 653 781 649 779 q 661 790 658 784 q 665 805 664 795 q 667 827 667 814 m 334 946 q 358 947 348 946 q 375 950 368 947 q 389 956 382 952 q 400 966 395 960 l 551 1120 q 558 1131 557 1126 q 557 1139 560 1136 q 544 1144 553 1142 q 517 1145 534 1145 q 487 1145 499 1145 q 467 1142 475 1144 q 453 1136 459 1140 q 443 1127 448 1133 l 334 1013 l 230 1130 q 222 1137 226 1133 q 210 1142 218 1140 q 191 1144 203 1143 q 158 1145 178 1145 q 134 1144 143 1145 q 120 1140 124 1143 q 117 1132 116 1137 q 125 1120 119 1126 l 270 966 q 281 956 276 960 q 293 949 286 951 q 310 947 300 947 q 334 946 319 946 m 28 878 "},"Ț":{"ha":677,"x_min":10,"x_max":667,"o":"m 667 827 q 665 850 667 840 q 661 866 664 860 q 653 875 658 872 q 644 878 649 878 l 33 878 q 23 875 28 878 q 16 866 19 872 q 12 850 14 860 q 10 827 10 840 q 12 805 10 814 q 16 790 14 795 q 23 781 19 784 q 33 779 28 779 l 280 779 l 280 18 q 283 8 280 12 q 292 2 286 4 q 311 -2 299 -1 q 338 -4 322 -4 q 367 -2 355 -4 q 385 2 378 -1 q 394 8 391 4 q 397 18 397 12 l 397 779 l 644 779 q 653 781 649 779 q 661 790 658 784 q 665 805 664 795 q 667 827 667 814 m 280 -82 l 235 -219 q 233 -232 233 -227 q 235 -241 232 -237 q 246 -246 239 -244 q 268 -248 254 -248 q 291 -247 281 -248 q 307 -243 300 -245 q 317 -237 313 -241 q 324 -227 321 -233 l 390 -89 q 394 -76 393 -81 q 390 -65 394 -70 q 375 -59 385 -61 q 347 -56 365 -56 q 317 -58 329 -56 q 298 -62 305 -59 q 286 -70 290 -64 q 280 -82 282 -75 "},"Ŧ":{"ha":677,"x_min":10,"x_max":667,"o":"m 397 498 l 397 779 l 644 779 q 653 781 649 779 q 661 790 658 784 q 665 805 664 795 q 667 827 667 814 q 665 850 667 840 q 661 866 664 860 q 653 875 658 872 q 644 878 649 878 l 33 878 q 23 875 28 878 q 16 866 19 872 q 12 850 14 860 q 10 827 10 840 q 12 805 10 814 q 16 790 14 795 q 23 781 19 784 q 33 779 28 779 l 280 779 l 280 498 l 100 498 q 90 495 94 498 q 83 487 85 492 q 78 472 80 481 q 77 450 77 463 q 78 428 77 437 q 83 413 80 418 q 90 404 85 407 q 100 401 94 401 l 280 401 l 280 17 q 283 8 280 12 q 292 1 286 4 q 311 -3 299 -1 q 338 -4 322 -4 q 367 -3 355 -4 q 385 1 378 -1 q 394 8 391 4 q 397 17 397 12 l 397 401 l 577 401 q 587 404 583 401 q 594 413 591 407 q 599 428 597 419 q 600 450 600 437 q 599 472 600 463 q 594 487 597 481 q 587 495 591 492 q 577 498 583 498 l 397 498 "},"U":{"ha":891,"x_min":115,"x_max":777,"o":"m 777 324 l 777 860 q 773 869 777 865 q 764 876 770 873 q 746 880 758 878 q 719 882 735 882 q 691 880 702 882 q 673 876 680 878 q 663 869 666 873 q 661 860 661 865 l 661 323 q 646 220 661 264 q 604 146 631 176 q 537 102 576 117 q 446 87 497 87 q 357 102 397 87 q 289 148 317 117 q 246 223 261 178 q 231 330 231 269 l 231 860 q 229 869 231 865 q 219 876 226 873 q 201 880 213 878 q 174 882 190 882 q 145 880 156 882 q 127 876 134 878 q 118 869 121 873 q 115 860 115 865 l 115 315 q 138 173 115 235 q 204 70 161 111 q 307 8 247 29 q 439 -13 366 -13 q 581 9 518 -13 q 686 75 643 32 q 753 181 730 119 q 777 324 777 244 "},"Ù":{"ha":891,"x_min":115,"x_max":777,"o":"m 777 324 l 777 860 q 773 869 777 865 q 764 876 770 873 q 746 880 758 878 q 719 882 735 882 q 691 880 702 882 q 673 876 680 878 q 663 869 666 873 q 661 860 661 865 l 661 323 q 646 220 661 264 q 604 146 631 176 q 537 102 576 117 q 446 87 497 87 q 357 102 397 87 q 289 148 317 117 q 246 223 261 178 q 231 330 231 269 l 231 860 q 229 869 231 865 q 219 876 226 873 q 201 880 213 878 q 174 882 190 882 q 145 880 156 882 q 127 876 134 878 q 118 869 121 873 q 115 860 115 865 l 115 315 q 138 173 115 235 q 204 70 161 111 q 307 8 247 29 q 439 -13 366 -13 q 581 9 518 -13 q 686 75 643 32 q 753 181 730 119 q 777 324 777 244 m 487 975 l 359 1120 q 345 1133 352 1128 q 328 1141 337 1138 q 308 1144 319 1143 q 279 1145 296 1145 q 247 1142 258 1145 q 230 1135 235 1139 q 227 1124 225 1130 q 236 1111 229 1118 l 389 967 q 402 957 396 960 q 415 950 408 953 q 432 947 422 948 q 456 946 441 946 q 480 948 471 946 q 493 953 490 949 q 495 962 496 957 q 487 975 493 968 m 137 878 "},"Ú":{"ha":891,"x_min":115,"x_max":777,"o":"m 777 324 l 777 860 q 773 869 777 865 q 764 876 770 873 q 746 880 758 878 q 719 882 735 882 q 691 880 702 882 q 673 876 680 878 q 663 869 666 873 q 661 860 661 865 l 661 323 q 646 220 661 264 q 604 146 631 176 q 537 102 576 117 q 446 87 497 87 q 357 102 397 87 q 289 148 317 117 q 246 223 261 178 q 231 330 231 269 l 231 860 q 229 869 231 865 q 219 876 226 873 q 201 880 213 878 q 174 882 190 882 q 145 880 156 882 q 127 876 134 878 q 118 869 121 873 q 115 860 115 865 l 115 315 q 138 173 115 235 q 204 70 161 111 q 307 8 247 29 q 439 -13 366 -13 q 581 9 518 -13 q 686 75 643 32 q 753 181 730 119 q 777 324 777 244 m 516 1120 l 388 975 q 380 962 382 968 q 382 953 379 957 q 395 948 386 949 q 419 946 404 946 q 443 947 433 946 q 460 950 453 948 q 474 957 468 953 q 486 967 479 960 l 640 1111 q 648 1124 646 1118 q 645 1135 650 1130 q 629 1142 640 1139 q 597 1145 617 1145 q 568 1144 580 1145 q 547 1141 555 1143 q 531 1133 538 1138 q 516 1120 524 1128 m 290 878 "},"Û":{"ha":891,"x_min":115,"x_max":777,"o":"m 777 324 l 777 860 q 773 869 777 865 q 764 876 770 873 q 746 880 758 878 q 719 882 735 882 q 691 880 702 882 q 673 876 680 878 q 663 869 666 873 q 661 860 661 865 l 661 323 q 646 220 661 264 q 604 146 631 176 q 537 102 576 117 q 446 87 497 87 q 357 102 397 87 q 289 148 317 117 q 246 223 261 178 q 231 330 231 269 l 231 860 q 229 869 231 865 q 219 876 226 873 q 201 880 213 878 q 174 882 190 882 q 145 880 156 882 q 127 876 134 878 q 118 869 121 873 q 115 860 115 865 l 115 315 q 138 173 115 235 q 204 70 161 111 q 307 8 247 29 q 439 -13 366 -13 q 581 9 518 -13 q 686 75 643 32 q 753 181 730 119 q 777 324 777 244 m 448 1145 q 424 1145 434 1145 q 407 1142 414 1144 q 394 1136 399 1139 q 382 1126 388 1132 l 231 972 q 223 960 224 965 q 225 952 222 956 q 238 948 229 949 q 264 946 248 946 q 295 947 283 946 q 315 949 307 947 q 329 955 323 951 q 340 964 334 959 l 448 1078 l 552 961 q 560 955 555 958 q 572 950 564 951 q 591 947 579 948 q 624 946 604 946 q 648 947 639 946 q 662 952 658 949 q 665 960 666 955 q 657 972 663 965 l 512 1126 q 501 1136 506 1132 q 489 1142 496 1139 q 472 1145 481 1144 q 448 1145 463 1145 m 133 878 "},"Ũ":{"ha":891,"x_min":115,"x_max":777,"o":"m 777 324 l 777 860 q 773 869 777 865 q 764 876 770 873 q 746 880 758 878 q 719 882 735 882 q 691 880 702 882 q 673 876 680 878 q 663 869 666 873 q 661 860 661 865 l 661 323 q 646 220 661 264 q 604 146 631 176 q 537 102 576 117 q 446 87 497 87 q 357 102 397 87 q 289 148 317 117 q 246 223 261 178 q 231 330 231 269 l 231 860 q 229 869 231 865 q 219 876 226 873 q 201 880 213 878 q 174 882 190 882 q 145 880 156 882 q 127 876 134 878 q 118 869 121 873 q 115 860 115 865 l 115 315 q 138 173 115 235 q 204 70 161 111 q 307 8 247 29 q 439 -13 366 -13 q 581 9 518 -13 q 686 75 643 32 q 753 181 730 119 q 777 324 777 244 m 594 1095 q 580 1046 594 1060 q 543 1032 566 1032 q 501 1044 520 1032 q 460 1071 481 1057 q 412 1097 438 1085 q 349 1109 385 1109 q 295 1100 319 1109 q 252 1074 270 1091 q 225 1032 235 1057 q 216 974 216 1006 q 223 952 216 958 q 255 947 231 947 q 272 947 264 947 q 286 949 280 947 q 294 954 291 951 q 297 962 297 957 q 309 1007 297 990 q 349 1024 320 1024 q 390 1012 370 1024 q 431 986 409 1000 q 479 959 453 971 q 542 947 506 947 q 641 983 606 947 q 675 1082 675 1019 q 668 1104 675 1099 q 636 1109 661 1109 q 604 1106 613 1109 q 594 1095 594 1103 m 128 878 "},"Ü":{"ha":891,"x_min":115,"x_max":777,"o":"m 777 324 l 777 860 q 773 869 777 865 q 764 876 770 873 q 746 880 758 878 q 719 882 735 882 q 691 880 702 882 q 673 876 680 878 q 663 869 666 873 q 661 860 661 865 l 661 323 q 646 220 661 264 q 604 146 631 176 q 537 102 576 117 q 446 87 497 87 q 357 102 397 87 q 289 148 317 117 q 246 223 261 178 q 231 330 231 269 l 231 860 q 229 869 231 865 q 219 876 226 873 q 201 880 213 878 q 174 882 190 882 q 145 880 156 882 q 127 876 134 878 q 118 869 121 873 q 115 860 115 865 l 115 315 q 138 173 115 235 q 204 70 161 111 q 307 8 247 29 q 439 -13 366 -13 q 581 9 518 -13 q 686 75 643 32 q 753 181 730 119 q 777 324 777 244 m 370 1037 q 356 1088 370 1074 q 304 1101 342 1101 q 253 1087 267 1101 q 239 1036 239 1074 q 252 984 239 998 q 304 970 266 970 q 356 985 342 970 q 370 1037 370 999 m 650 1037 q 637 1088 650 1074 q 585 1101 623 1101 q 533 1087 547 1101 q 519 1036 519 1074 q 533 984 519 998 q 584 970 547 970 q 636 985 623 970 q 650 1037 650 999 m 149 878 "},"Ū":{"ha":891,"x_min":115,"x_max":777,"o":"m 777 324 l 777 860 q 773 869 777 865 q 764 876 770 873 q 746 880 758 878 q 719 882 735 882 q 691 880 702 882 q 673 876 680 878 q 663 869 666 873 q 661 860 661 865 l 661 323 q 646 220 661 264 q 604 146 631 176 q 537 102 576 117 q 446 87 497 87 q 357 102 397 87 q 289 148 317 117 q 246 223 261 178 q 231 330 231 269 l 231 860 q 229 869 231 865 q 219 876 226 873 q 201 880 213 878 q 174 882 190 882 q 145 880 156 882 q 127 876 134 878 q 118 869 121 873 q 115 860 115 865 l 115 315 q 138 173 115 235 q 204 70 161 111 q 307 8 247 29 q 439 -13 366 -13 q 581 9 518 -13 q 686 75 643 32 q 753 181 730 119 q 777 324 777 244 m 630 1078 l 260 1078 q 250 1076 254 1078 q 243 1067 245 1073 q 239 1053 240 1062 q 237 1034 237 1044 q 239 1014 237 1022 q 243 999 240 1005 q 250 991 245 994 q 260 988 254 988 l 630 988 q 639 991 635 988 q 646 999 643 994 q 650 1014 649 1005 q 651 1034 651 1022 q 650 1054 651 1045 q 646 1067 649 1062 q 639 1076 643 1073 q 630 1078 635 1078 m 148 878 "},"Ŭ":{"ha":891,"x_min":115,"x_max":777,"o":"m 777 324 l 777 860 q 773 869 777 865 q 764 876 770 873 q 746 880 758 878 q 719 882 735 882 q 691 880 702 882 q 673 876 680 878 q 663 869 666 873 q 661 860 661 865 l 661 323 q 646 220 661 264 q 604 146 631 176 q 537 102 576 117 q 446 87 497 87 q 357 102 397 87 q 289 148 317 117 q 246 223 261 178 q 231 330 231 269 l 231 860 q 229 869 231 865 q 219 876 226 873 q 201 880 213 878 q 174 882 190 882 q 145 880 156 882 q 127 876 134 878 q 118 869 121 873 q 115 860 115 865 l 115 315 q 138 173 115 235 q 204 70 161 111 q 307 8 247 29 q 439 -13 366 -13 q 581 9 518 -13 q 686 75 643 32 q 753 181 730 119 q 777 324 777 244 m 621 1128 q 613 1143 621 1139 q 580 1147 605 1147 q 545 1142 553 1147 q 537 1121 538 1137 q 529 1083 536 1105 q 500 1044 521 1061 q 445 1028 479 1028 q 403 1036 420 1028 q 374 1059 386 1044 q 357 1097 363 1074 q 351 1131 351 1120 q 341 1144 351 1141 q 307 1147 331 1147 q 275 1143 283 1147 q 267 1128 267 1139 q 277 1055 267 1088 q 309 998 288 1022 q 364 960 331 974 q 443 946 397 946 q 518 959 485 946 q 574 995 551 971 q 609 1052 597 1019 q 621 1128 621 1086 m 178 878 "},"Ů":{"ha":891,"x_min":115,"x_max":777,"o":"m 777 324 l 777 860 q 773 869 777 865 q 764 876 770 873 q 746 880 758 878 q 719 882 735 882 q 691 880 702 882 q 673 876 680 878 q 663 869 666 873 q 661 860 661 865 l 661 323 q 646 220 661 264 q 604 146 631 176 q 537 102 576 117 q 446 87 497 87 q 357 102 397 87 q 289 148 317 117 q 246 223 261 178 q 231 330 231 269 l 231 860 q 229 869 231 865 q 219 876 226 873 q 201 880 213 878 q 174 882 190 882 q 145 880 156 882 q 127 876 134 878 q 118 869 121 873 q 115 860 115 865 l 115 315 q 138 173 115 235 q 204 70 161 111 q 307 8 247 29 q 439 -13 366 -13 q 581 9 518 -13 q 686 75 643 32 q 753 181 730 119 q 777 324 777 244 m 583 1052 q 547 1143 583 1110 q 446 1176 512 1176 q 387 1166 413 1176 q 342 1140 361 1157 q 315 1100 324 1124 q 306 1047 306 1076 q 314 996 306 1019 q 339 957 322 973 q 381 931 356 941 q 441 922 407 922 q 500 932 474 922 q 545 959 526 942 q 573 1000 563 976 q 583 1052 583 1023 m 507 1048 q 492 1002 507 1020 q 446 984 477 984 q 396 1002 410 984 q 381 1052 381 1021 q 397 1098 381 1081 q 444 1115 413 1115 q 492 1096 477 1115 q 507 1048 507 1076 m 216 878 "},"Ű":{"ha":891,"x_min":115,"x_max":781,"o":"m 777 324 l 777 860 q 773 869 777 865 q 764 876 770 873 q 746 880 758 878 q 719 882 735 882 q 691 880 702 882 q 673 876 680 878 q 663 869 666 873 q 661 860 661 865 l 661 323 q 646 220 661 264 q 604 146 631 176 q 537 102 576 117 q 446 87 497 87 q 357 102 397 87 q 289 148 317 117 q 246 223 261 178 q 231 330 231 269 l 231 860 q 229 869 231 865 q 219 876 226 873 q 201 880 213 878 q 174 882 190 882 q 145 880 156 882 q 127 876 134 878 q 118 869 121 873 q 115 860 115 865 l 115 315 q 138 173 115 235 q 204 70 161 111 q 307 8 247 29 q 439 -13 366 -13 q 581 9 518 -13 q 686 75 643 32 q 753 181 730 119 q 777 324 777 244 m 361 960 l 513 1116 q 522 1129 520 1123 q 518 1139 524 1135 q 497 1145 512 1143 q 456 1147 481 1147 q 427 1146 439 1147 q 407 1143 415 1145 q 393 1137 399 1141 q 384 1128 388 1133 l 269 969 q 271 952 262 959 q 300 946 279 946 q 323 946 313 946 q 339 948 332 947 q 352 952 347 949 q 361 960 357 956 m 619 961 l 774 1119 q 781 1130 781 1125 q 775 1139 781 1135 q 755 1145 769 1143 q 720 1147 742 1147 q 688 1146 701 1147 q 667 1143 675 1145 q 652 1137 658 1141 q 643 1128 646 1133 l 522 968 q 519 959 518 963 q 525 951 519 954 q 538 947 530 949 q 560 946 547 946 q 583 946 574 946 q 598 948 592 947 q 610 952 605 949 q 619 961 614 956 m 176 878 "},"Ų":{"ha":891,"x_min":115,"x_max":777,"o":"m 777 324 l 777 861 q 773 869 777 865 q 764 876 770 873 q 747 880 758 879 q 720 882 736 882 q 691 880 703 882 q 673 876 680 879 q 663 869 666 873 q 661 861 661 865 l 661 323 q 646 220 661 264 q 604 146 631 176 q 537 102 576 117 q 446 87 497 87 q 357 102 397 87 q 289 147 317 117 q 246 222 261 177 q 231 326 231 267 l 231 861 q 229 869 231 865 q 219 876 226 873 q 201 880 213 879 q 174 882 190 882 q 145 880 157 882 q 127 876 134 879 q 118 869 121 873 q 115 861 115 865 l 115 315 q 126 215 115 260 q 157 133 137 169 q 206 69 177 96 q 270 24 235 42 q 347 -3 305 6 q 433 -12 388 -12 q 453 -11 444 -12 q 468 -9 462 -9 l 435 -41 q 408 -73 418 -58 q 392 -101 397 -88 q 386 -124 387 -113 q 384 -145 384 -136 q 419 -222 384 -196 q 517 -248 454 -248 q 570 -244 545 -248 q 616 -235 595 -241 q 628 -231 623 -233 q 634 -224 632 -229 q 637 -214 636 -220 q 639 -197 639 -208 q 638 -180 639 -186 q 634 -170 637 -174 q 629 -165 632 -166 q 621 -163 625 -163 l 544 -163 q 507 -155 519 -163 q 494 -127 494 -146 q 499 -105 494 -119 q 520 -76 504 -92 l 554 -43 q 590 -7 576 -21 q 614 16 604 6 q 633 32 625 25 q 652 47 642 39 q 746 162 715 94 q 777 324 777 231 "},"V":{"ha":788,"x_min":23,"x_max":765,"o":"m 471 20 l 758 836 q 764 860 763 850 q 761 873 765 869 q 744 880 756 878 q 711 882 732 882 q 678 881 690 882 q 659 877 666 880 q 650 869 652 874 q 645 857 647 865 l 400 120 l 399 120 l 148 859 q 142 870 145 865 q 133 877 139 874 q 116 881 127 880 q 85 882 104 882 q 49 880 62 882 q 29 874 35 879 q 23 860 23 869 q 29 836 24 851 l 316 21 q 320 12 318 16 q 327 5 323 8 q 337 1 331 3 q 351 -2 342 -1 q 370 -4 359 -3 q 396 -4 381 -4 q 429 -3 416 -4 q 451 1 442 -2 q 464 8 459 3 q 471 20 469 13 "},"W":{"ha":1236,"x_min":41,"x_max":1194,"o":"m 957 26 l 1190 836 q 1193 860 1193 851 q 1188 873 1194 869 q 1171 880 1183 878 q 1139 882 1159 882 q 1107 880 1119 882 q 1089 876 1095 879 q 1080 868 1082 873 q 1076 857 1078 863 l 883 122 l 882 122 l 680 856 q 675 868 678 863 q 665 876 672 873 q 647 880 659 879 q 617 882 636 882 q 584 880 597 882 q 565 876 572 879 q 555 868 558 873 q 550 856 552 863 l 363 122 l 362 122 l 165 857 q 161 869 163 865 q 152 877 159 874 q 134 881 146 880 q 100 882 121 882 q 66 880 79 882 q 47 874 53 879 q 42 861 41 869 q 46 836 42 852 l 278 26 q 285 11 280 16 q 300 2 290 5 q 324 -3 309 -1 q 361 -4 339 -4 q 397 -3 383 -4 q 420 2 411 -1 q 433 11 429 5 q 440 26 438 16 l 610 688 l 611 688 l 795 26 q 802 11 798 16 q 817 2 807 5 q 841 -3 826 -1 q 876 -4 855 -4 q 910 -3 897 -4 q 934 2 924 -1 q 949 11 943 5 q 957 26 954 16 "},"Ẁ":{"ha":1236,"x_min":41,"x_max":1194,"o":"m 957 26 l 1190 836 q 1193 860 1193 851 q 1188 873 1194 869 q 1171 880 1183 878 q 1139 882 1159 882 q 1107 880 1119 882 q 1089 876 1095 879 q 1080 868 1082 873 q 1076 857 1078 863 l 883 122 l 882 122 l 680 856 q 675 868 678 863 q 665 876 672 873 q 647 880 659 879 q 617 882 636 882 q 584 880 597 882 q 565 876 572 879 q 555 868 558 873 q 550 856 552 863 l 363 122 l 362 122 l 165 857 q 161 869 163 865 q 152 877 159 874 q 134 881 146 880 q 100 882 121 882 q 66 880 79 882 q 47 874 53 879 q 42 861 41 869 q 46 836 42 852 l 278 26 q 285 11 280 16 q 300 2 290 5 q 324 -3 309 -1 q 361 -4 339 -4 q 397 -3 383 -4 q 420 2 411 -1 q 433 11 429 5 q 440 26 438 16 l 610 688 l 611 688 l 795 26 q 802 11 798 16 q 817 2 807 5 q 841 -3 826 -1 q 876 -4 855 -4 q 910 -3 897 -4 q 934 2 924 -1 q 949 11 943 5 q 957 26 954 16 m 651 975 l 524 1120 q 509 1133 516 1128 q 492 1141 501 1138 q 472 1144 484 1143 q 443 1145 460 1145 q 411 1142 422 1145 q 394 1135 399 1139 q 391 1124 389 1130 q 400 1111 393 1118 l 553 967 q 566 957 560 960 q 579 950 572 953 q 596 947 587 948 q 620 946 606 946 q 645 948 635 946 q 657 953 654 949 q 659 962 661 957 q 651 975 657 968 m 301 878 "},"Ẃ":{"ha":1236,"x_min":41,"x_max":1194,"o":"m 957 26 l 1190 836 q 1193 860 1193 851 q 1188 873 1194 869 q 1171 880 1183 878 q 1139 882 1159 882 q 1107 880 1119 882 q 1089 876 1095 879 q 1080 868 1082 873 q 1076 857 1078 863 l 883 122 l 882 122 l 680 856 q 675 868 678 863 q 665 876 672 873 q 647 880 659 879 q 617 882 636 882 q 584 880 597 882 q 565 876 572 879 q 555 868 558 873 q 550 856 552 863 l 363 122 l 362 122 l 165 857 q 161 869 163 865 q 152 877 159 874 q 134 881 146 880 q 100 882 121 882 q 66 880 79 882 q 47 874 53 879 q 42 861 41 869 q 46 836 42 852 l 278 26 q 285 11 280 16 q 300 2 290 5 q 324 -3 309 -1 q 361 -4 339 -4 q 397 -3 383 -4 q 420 2 411 -1 q 433 11 429 5 q 440 26 438 16 l 610 688 l 611 688 l 795 26 q 802 11 798 16 q 817 2 807 5 q 841 -3 826 -1 q 876 -4 855 -4 q 910 -3 897 -4 q 934 2 924 -1 q 949 11 943 5 q 957 26 954 16 m 699 1120 l 571 975 q 564 962 565 968 q 566 953 562 957 q 578 948 569 949 q 602 946 587 946 q 626 947 616 946 q 644 950 636 948 q 657 957 651 953 q 669 967 663 960 l 823 1111 q 831 1124 829 1118 q 828 1135 833 1130 q 812 1142 823 1139 q 780 1145 800 1145 q 751 1144 763 1145 q 730 1141 739 1143 q 714 1133 721 1138 q 699 1120 707 1128 m 473 878 "},"Ŵ":{"ha":1236,"x_min":41,"x_max":1194,"o":"m 957 26 l 1190 836 q 1193 860 1193 851 q 1188 873 1194 869 q 1171 880 1183 878 q 1139 882 1159 882 q 1107 880 1119 882 q 1089 876 1095 879 q 1080 868 1082 873 q 1076 857 1078 863 l 883 122 l 882 122 l 680 856 q 675 868 678 863 q 665 876 672 873 q 647 880 659 879 q 617 882 636 882 q 584 880 597 882 q 565 876 572 879 q 555 868 558 873 q 550 856 552 863 l 363 122 l 362 122 l 165 857 q 161 869 163 865 q 152 877 159 874 q 134 881 146 880 q 100 882 121 882 q 66 880 79 882 q 47 874 53 879 q 42 861 41 869 q 46 836 42 852 l 278 26 q 285 11 280 16 q 300 2 290 5 q 324 -3 309 -1 q 361 -4 339 -4 q 397 -3 383 -4 q 420 2 411 -1 q 433 11 429 5 q 440 26 438 16 l 610 688 l 611 688 l 795 26 q 802 11 798 16 q 817 2 807 5 q 841 -3 826 -1 q 876 -4 855 -4 q 910 -3 897 -4 q 934 2 924 -1 q 949 11 943 5 q 957 26 954 16 m 627 1145 q 603 1145 612 1145 q 585 1142 593 1144 q 572 1136 578 1139 q 561 1126 566 1132 l 409 972 q 401 960 403 965 q 404 952 400 956 q 417 948 408 949 q 443 946 426 946 q 473 947 461 946 q 494 949 486 947 q 507 955 502 951 q 518 964 513 959 l 626 1078 l 730 961 q 738 955 734 958 q 750 950 743 951 q 770 947 758 948 q 802 946 782 946 q 827 947 817 946 q 840 952 836 949 q 843 960 844 955 q 836 972 842 965 l 690 1126 q 679 1136 684 1132 q 667 1142 674 1139 q 650 1145 660 1144 q 627 1145 641 1145 m 311 878 "},"Ẅ":{"ha":1236,"x_min":41,"x_max":1194,"o":"m 957 26 l 1190 836 q 1193 860 1193 851 q 1188 873 1194 869 q 1171 880 1183 878 q 1139 882 1159 882 q 1107 880 1119 882 q 1089 876 1095 879 q 1080 868 1082 873 q 1076 857 1078 863 l 883 122 l 882 122 l 680 856 q 675 868 678 863 q 665 876 672 873 q 647 880 659 879 q 617 882 636 882 q 584 880 597 882 q 565 876 572 879 q 555 868 558 873 q 550 856 552 863 l 363 122 l 362 122 l 165 857 q 161 869 163 865 q 152 877 159 874 q 134 881 146 880 q 100 882 121 882 q 66 880 79 882 q 47 874 53 879 q 42 861 41 869 q 46 836 42 852 l 278 26 q 285 11 280 16 q 300 2 290 5 q 324 -3 309 -1 q 361 -4 339 -4 q 397 -3 383 -4 q 420 2 411 -1 q 433 11 429 5 q 440 26 438 16 l 610 688 l 611 688 l 795 26 q 802 11 798 16 q 817 2 807 5 q 841 -3 826 -1 q 876 -4 855 -4 q 910 -3 897 -4 q 934 2 924 -1 q 949 11 943 5 q 957 26 954 16 m 548 1037 q 534 1088 548 1074 q 482 1101 520 1101 q 430 1087 444 1101 q 416 1036 416 1074 q 430 984 416 998 q 481 970 444 970 q 534 985 519 970 q 548 1037 548 999 m 828 1037 q 814 1088 828 1074 q 762 1101 801 1101 q 711 1087 725 1101 q 696 1036 696 1074 q 710 984 696 998 q 762 970 724 970 q 814 985 800 970 q 828 1037 828 999 m 327 878 "},"X":{"ha":721,"x_min":33,"x_max":688,"o":"m 675 42 l 438 448 l 666 836 q 675 860 674 850 q 671 873 677 869 q 652 880 665 878 q 618 882 639 882 q 587 881 598 882 q 569 877 575 880 q 559 870 562 875 q 552 861 555 866 l 365 532 l 176 861 q 169 870 172 866 q 158 877 165 875 q 138 881 151 880 q 104 882 125 882 q 67 880 81 882 q 48 874 54 879 q 45 860 43 869 q 56 836 47 850 l 284 446 l 45 42 q 34 18 36 27 q 38 4 33 9 q 56 -2 43 -1 q 91 -4 68 -4 q 123 -3 111 -4 q 143 0 136 -2 q 154 7 150 3 q 161 17 158 11 l 359 366 l 554 17 q 561 7 557 11 q 571 1 564 3 q 591 -3 578 -2 q 625 -4 603 -4 q 662 -2 648 -4 q 682 4 675 -1 q 686 18 688 9 q 675 42 684 27 "},"Y":{"ha":677,"x_min":20,"x_max":656,"o":"m 397 341 l 645 836 q 654 860 652 851 q 650 873 656 869 q 631 880 645 878 q 593 882 617 882 q 564 880 575 882 q 546 877 552 879 q 535 869 539 874 q 530 858 532 865 l 408 604 q 374 529 391 567 q 342 452 357 490 l 340 452 q 306 531 323 492 q 272 606 289 570 l 151 859 q 143 870 147 865 q 132 877 140 874 q 112 880 125 879 q 79 882 100 882 q 44 880 57 882 q 25 874 31 879 q 22 861 20 869 q 31 836 24 852 l 279 341 l 279 18 q 282 8 279 12 q 292 2 285 4 q 310 -2 299 -1 q 338 -4 321 -4 q 366 -2 355 -4 q 385 2 378 -1 q 394 8 391 4 q 397 18 397 12 l 397 341 "},"Ỳ":{"ha":677,"x_min":20,"x_max":656,"o":"m 397 341 l 645 836 q 654 860 652 851 q 650 873 656 869 q 631 880 645 878 q 593 882 617 882 q 564 880 575 882 q 546 877 552 879 q 535 869 539 874 q 530 858 532 865 l 408 604 q 374 529 391 567 q 342 452 357 490 l 340 452 q 306 531 323 492 q 272 606 289 570 l 151 859 q 143 870 147 865 q 132 877 140 874 q 112 880 125 879 q 79 882 100 882 q 44 880 57 882 q 25 874 31 879 q 22 861 20 869 q 31 836 24 852 l 279 341 l 279 18 q 282 8 279 12 q 292 2 285 4 q 310 -2 299 -1 q 338 -4 321 -4 q 366 -2 355 -4 q 385 2 378 -1 q 394 8 391 4 q 397 18 397 12 l 397 341 m 385 975 l 258 1120 q 243 1133 250 1128 q 227 1141 235 1138 q 206 1144 218 1143 q 177 1145 194 1145 q 145 1142 157 1145 q 128 1135 133 1139 q 125 1124 123 1130 q 134 1111 127 1118 l 288 967 q 300 957 294 960 q 313 950 306 953 q 330 947 321 948 q 354 946 340 946 q 379 948 370 946 q 391 953 388 949 q 393 962 395 957 q 385 975 391 968 m 35 878 "},"Ý":{"ha":677,"x_min":20,"x_max":656,"o":"m 397 341 l 645 836 q 654 860 652 851 q 650 873 656 869 q 631 880 645 878 q 593 882 617 882 q 564 880 575 882 q 546 877 552 879 q 535 869 539 874 q 530 858 532 865 l 408 604 q 374 529 391 567 q 342 452 357 490 l 340 452 q 306 531 323 492 q 272 606 289 570 l 151 859 q 143 870 147 865 q 132 877 140 874 q 112 880 125 879 q 79 882 100 882 q 44 880 57 882 q 25 874 31 879 q 22 861 20 869 q 31 836 24 852 l 279 341 l 279 18 q 282 8 279 12 q 292 2 285 4 q 310 -2 299 -1 q 338 -4 321 -4 q 366 -2 355 -4 q 385 2 378 -1 q 394 8 391 4 q 397 18 397 12 l 397 341 m 439 1120 l 311 975 q 303 962 304 968 q 305 953 302 957 q 317 948 309 949 q 342 946 326 946 q 366 947 356 946 q 383 950 376 948 q 396 957 391 953 q 409 967 402 960 l 563 1111 q 571 1124 569 1118 q 568 1135 572 1130 q 551 1142 563 1139 q 519 1145 540 1145 q 490 1144 503 1145 q 469 1141 478 1143 q 453 1133 460 1138 q 439 1120 446 1128 m 213 878 "},"Ŷ":{"ha":677,"x_min":20,"x_max":656,"o":"m 397 341 l 645 836 q 654 860 652 851 q 650 873 656 869 q 631 880 645 878 q 593 882 617 882 q 564 880 575 882 q 546 877 552 879 q 535 869 539 874 q 530 858 532 865 l 408 604 q 374 529 391 567 q 342 452 357 490 l 340 452 q 306 531 323 492 q 272 606 289 570 l 151 859 q 143 870 147 865 q 132 877 140 874 q 112 880 125 879 q 79 882 100 882 q 44 880 57 882 q 25 874 31 879 q 22 861 20 869 q 31 836 24 852 l 279 341 l 279 18 q 282 8 279 12 q 292 2 285 4 q 310 -2 299 -1 q 338 -4 321 -4 q 366 -2 355 -4 q 385 2 378 -1 q 394 8 391 4 q 397 18 397 12 l 397 341 m 341 1145 q 317 1145 327 1145 q 300 1142 307 1144 q 287 1136 292 1139 q 275 1126 281 1132 l 123 972 q 116 960 117 965 q 118 952 115 956 q 131 948 122 949 q 157 946 140 946 q 188 947 176 946 q 208 949 200 947 q 222 955 216 951 q 233 964 227 959 l 340 1078 l 445 961 q 453 955 448 958 q 465 950 457 951 q 484 947 472 948 q 517 946 496 946 q 541 947 532 946 q 555 952 551 949 q 557 960 559 955 q 550 972 556 965 l 405 1126 q 394 1136 399 1132 q 381 1142 389 1139 q 365 1145 374 1144 q 341 1145 355 1145 m 26 878 "},"Ÿ":{"ha":677,"x_min":20,"x_max":656,"o":"m 397 341 l 645 836 q 654 860 652 851 q 650 873 656 869 q 631 880 645 878 q 593 882 617 882 q 564 880 575 882 q 546 877 552 879 q 535 869 539 874 q 530 858 532 865 l 408 604 q 374 529 391 567 q 342 452 357 490 l 340 452 q 306 531 323 492 q 272 606 289 570 l 151 859 q 143 870 147 865 q 132 877 140 874 q 112 880 125 879 q 79 882 100 882 q 44 880 57 882 q 25 874 31 879 q 22 861 20 869 q 31 836 24 852 l 279 341 l 279 18 q 282 8 279 12 q 292 2 285 4 q 310 -2 299 -1 q 338 -4 321 -4 q 366 -2 355 -4 q 385 2 378 -1 q 394 8 391 4 q 397 18 397 12 l 397 341 m 265 1037 q 251 1088 265 1074 q 199 1101 237 1101 q 148 1087 161 1101 q 134 1036 134 1074 q 147 984 134 998 q 199 970 161 970 q 251 985 237 970 q 265 1037 265 999 m 545 1037 q 532 1088 545 1074 q 479 1101 518 1101 q 428 1087 442 1101 q 414 1036 414 1074 q 428 984 414 998 q 479 970 441 970 q 531 985 517 970 q 545 1037 545 999 m 44 878 "},"Z":{"ha":650,"x_min":40,"x_max":621,"o":"m 621 49 q 615 87 621 75 q 597 98 609 98 l 169 98 l 572 729 q 587 753 581 743 q 596 772 593 763 q 601 789 600 781 q 602 808 602 798 l 602 835 q 592 867 602 857 q 563 878 581 878 l 75 878 q 63 875 68 878 q 55 866 58 872 q 51 850 52 860 q 50 827 50 841 q 51 806 50 815 q 55 791 52 797 q 63 783 58 785 q 75 780 68 780 l 475 780 l 70 146 q 55 122 61 132 q 45 103 49 111 q 41 87 42 94 q 40 71 40 79 l 40 45 q 51 11 40 22 q 79 0 62 0 l 597 0 q 608 3 604 0 q 615 12 612 5 q 620 27 618 18 q 621 49 621 36 "},"Ź":{"ha":650,"x_min":40,"x_max":621,"o":"m 621 49 q 615 87 621 75 q 597 98 609 98 l 169 98 l 572 729 q 587 753 581 743 q 596 772 593 763 q 601 789 600 781 q 602 808 602 798 l 602 835 q 592 867 602 857 q 563 878 581 878 l 75 878 q 63 875 68 878 q 55 866 58 872 q 51 850 52 860 q 50 827 50 841 q 51 806 50 815 q 55 791 52 797 q 63 783 58 785 q 75 780 68 780 l 475 780 l 70 146 q 55 122 61 132 q 45 103 49 111 q 41 87 42 94 q 40 71 40 79 l 40 45 q 51 11 40 22 q 79 0 62 0 l 597 0 q 608 3 604 0 q 615 12 612 5 q 620 27 618 18 q 621 49 621 36 m 393 1120 l 265 975 q 258 962 259 968 q 260 953 256 957 q 272 948 263 949 q 296 946 281 946 q 320 947 311 946 q 338 950 330 948 q 351 957 345 953 q 363 967 357 960 l 517 1111 q 525 1124 524 1118 q 522 1135 527 1130 q 506 1142 517 1139 q 474 1145 494 1145 q 445 1144 457 1145 q 424 1141 433 1143 q 408 1133 415 1138 q 393 1120 401 1128 m 168 878 "},"Ž":{"ha":650,"x_min":18,"x_max":621,"o":"m 621 49 q 615 87 621 75 q 597 98 609 98 l 169 98 l 572 729 q 587 753 581 743 q 596 772 593 763 q 601 789 600 781 q 602 808 602 798 l 602 835 q 592 867 602 857 q 563 878 581 878 l 75 878 q 63 875 68 878 q 55 866 58 872 q 51 850 52 860 q 50 827 50 841 q 51 806 50 815 q 55 791 52 797 q 63 783 58 785 q 75 780 68 780 l 475 780 l 70 146 q 55 122 61 132 q 45 103 49 111 q 41 87 42 94 q 40 71 40 79 l 40 45 q 51 11 40 22 q 79 0 62 0 l 597 0 q 608 3 604 0 q 615 12 612 5 q 620 27 618 18 q 621 49 621 36 m 323 946 q 348 947 338 946 q 365 950 357 947 q 378 956 372 952 q 390 966 385 960 l 541 1120 q 548 1131 547 1126 q 547 1139 550 1136 q 533 1144 543 1142 q 507 1145 524 1145 q 477 1145 489 1145 q 457 1142 465 1144 q 443 1136 449 1140 q 433 1127 437 1133 l 324 1013 l 220 1130 q 212 1137 216 1133 q 200 1142 208 1140 q 180 1144 193 1143 q 148 1145 168 1145 q 123 1144 133 1145 q 110 1140 114 1143 q 107 1132 106 1137 q 115 1120 109 1126 l 260 966 q 271 956 266 960 q 283 949 276 951 q 300 947 290 947 q 323 946 309 946 m 18 878 "},"Ż":{"ha":650,"x_min":40,"x_max":621,"o":"m 621 49 q 615 87 621 75 q 597 98 609 98 l 169 98 l 572 729 q 587 753 581 743 q 596 772 593 763 q 601 789 600 781 q 602 808 602 798 l 602 835 q 592 867 602 857 q 563 878 581 878 l 75 878 q 63 875 68 878 q 55 866 58 872 q 51 850 52 860 q 50 827 50 841 q 51 806 50 815 q 55 791 52 797 q 63 783 58 785 q 75 780 68 780 l 475 780 l 70 146 q 55 122 61 132 q 45 103 49 111 q 41 87 42 94 q 40 71 40 79 l 40 45 q 51 11 40 22 q 79 0 62 0 l 597 0 q 608 3 604 0 q 615 12 612 5 q 620 27 618 18 q 621 49 621 36 m 396 1037 q 381 1088 396 1074 q 329 1102 367 1102 q 276 1087 290 1102 q 261 1036 261 1073 q 275 984 261 998 q 328 970 290 970 q 381 985 366 970 q 396 1037 396 999 m 172 878 "},"a":{"ha":665,"x_min":62,"x_max":564,"o":"m 564 16 l 564 428 q 551 528 564 485 q 509 599 538 570 q 435 643 481 628 q 323 658 389 658 q 253 651 288 658 q 189 635 218 645 q 138 613 160 625 q 106 593 115 602 q 95 574 97 584 q 92 547 92 564 q 94 529 92 537 q 98 515 95 520 q 105 507 101 509 q 115 504 109 504 q 139 514 123 504 q 181 535 156 524 q 238 557 205 547 q 313 567 271 567 q 378 558 351 567 q 421 531 404 549 q 445 486 437 513 q 452 423 452 458 l 452 376 l 368 376 q 240 363 297 376 q 144 326 183 351 q 83 262 104 300 q 62 173 62 224 q 78 94 62 129 q 120 36 93 60 q 187 0 148 12 q 274 -13 226 -13 q 378 11 329 -13 q 467 77 427 35 l 467 16 q 472 4 467 8 q 487 -2 477 0 q 515 -4 498 -4 q 543 -2 534 -4 q 558 4 553 0 q 564 16 564 8 m 452 295 l 452 165 q 373 97 411 119 q 292 75 336 75 q 207 103 237 75 q 177 178 177 131 q 188 228 177 206 q 220 264 198 249 q 277 287 243 279 q 357 295 311 295 l 452 295 "},"à":{"ha":665,"x_min":62,"x_max":564,"o":"m 564 16 l 564 428 q 551 528 564 485 q 509 599 538 570 q 435 643 481 628 q 323 658 389 658 q 253 651 288 658 q 189 635 218 645 q 138 613 160 625 q 106 593 115 602 q 95 574 97 584 q 92 547 92 564 q 94 529 92 537 q 98 515 95 520 q 105 507 101 509 q 115 504 109 504 q 139 514 123 504 q 181 535 156 524 q 238 557 205 547 q 313 567 271 567 q 378 558 351 567 q 421 531 404 549 q 445 486 437 513 q 452 423 452 458 l 452 376 l 368 376 q 240 363 297 376 q 144 326 183 351 q 83 262 104 300 q 62 173 62 224 q 78 94 62 129 q 120 36 93 60 q 187 0 148 12 q 274 -13 226 -13 q 378 11 329 -13 q 467 77 427 35 l 467 16 q 472 4 467 8 q 487 -2 477 0 q 515 -4 498 -4 q 543 -2 534 -4 q 558 4 553 0 q 564 16 564 8 m 452 295 l 452 165 q 373 97 411 119 q 292 75 336 75 q 207 103 237 75 q 177 178 177 131 q 188 228 177 206 q 220 264 198 249 q 277 287 243 279 q 357 295 311 295 l 452 295 m 382 769 l 285 926 q 274 938 279 933 q 261 945 269 943 q 242 949 254 948 q 215 951 231 951 q 184 948 196 951 q 168 942 172 946 q 163 931 163 937 q 170 920 164 926 l 292 762 q 302 751 297 755 q 313 744 307 747 q 328 741 319 742 q 351 740 337 740 q 374 742 366 740 q 386 747 382 744 q 389 756 390 751 q 382 769 387 762 m 74 645 "},"á":{"ha":665,"x_min":62,"x_max":564,"o":"m 564 16 l 564 428 q 551 528 564 485 q 509 599 538 570 q 435 643 481 628 q 323 658 389 658 q 253 651 288 658 q 189 635 218 645 q 138 613 160 625 q 106 593 115 602 q 95 574 97 584 q 92 547 92 564 q 94 529 92 537 q 98 515 95 520 q 105 507 101 509 q 115 504 109 504 q 139 514 123 504 q 181 535 156 524 q 238 557 205 547 q 313 567 271 567 q 378 558 351 567 q 421 531 404 549 q 445 486 437 513 q 452 423 452 458 l 452 376 l 368 376 q 240 363 297 376 q 144 326 183 351 q 83 262 104 300 q 62 173 62 224 q 78 94 62 129 q 120 36 93 60 q 187 0 148 12 q 274 -13 226 -13 q 378 11 329 -13 q 467 77 427 35 l 467 16 q 472 4 467 8 q 487 -2 477 0 q 515 -4 498 -4 q 543 -2 534 -4 q 558 4 553 0 q 564 16 564 8 m 452 295 l 452 165 q 373 97 411 119 q 292 75 336 75 q 207 103 237 75 q 177 178 177 131 q 188 228 177 206 q 220 264 198 249 q 277 287 243 279 q 357 295 311 295 l 452 295 m 385 926 l 287 769 q 281 756 282 762 q 284 747 280 751 q 296 742 288 744 q 320 740 305 740 q 343 741 334 740 q 358 744 352 742 q 368 751 363 747 q 378 762 372 755 l 500 920 q 507 931 506 926 q 503 942 507 937 q 486 948 498 946 q 455 951 474 951 q 427 949 439 951 q 408 945 416 948 q 395 938 400 943 q 385 926 389 933 m 191 645 "},"â":{"ha":665,"x_min":62,"x_max":564,"o":"m 564 16 l 564 428 q 551 528 564 485 q 509 599 538 570 q 435 643 481 628 q 323 658 389 658 q 253 651 288 658 q 189 635 218 645 q 138 613 160 625 q 106 593 115 602 q 95 574 97 584 q 92 547 92 564 q 94 529 92 537 q 98 515 95 520 q 105 507 101 509 q 115 504 109 504 q 139 514 123 504 q 181 535 156 524 q 238 557 205 547 q 313 567 271 567 q 378 558 351 567 q 421 531 404 549 q 445 486 437 513 q 452 423 452 458 l 452 376 l 368 376 q 240 363 297 376 q 144 326 183 351 q 83 262 104 300 q 62 173 62 224 q 78 94 62 129 q 120 36 93 60 q 187 0 148 12 q 274 -13 226 -13 q 378 11 329 -13 q 467 77 427 35 l 467 16 q 472 4 467 8 q 487 -2 477 0 q 515 -4 498 -4 q 543 -2 534 -4 q 558 4 553 0 q 564 16 564 8 m 452 295 l 452 165 q 373 97 411 119 q 292 75 336 75 q 207 103 237 75 q 177 178 177 131 q 188 228 177 206 q 220 264 198 249 q 277 287 243 279 q 357 295 311 295 l 452 295 m 249 760 l 337 882 l 425 760 q 433 750 430 754 q 442 744 437 746 q 456 741 448 742 q 479 740 465 740 q 507 742 496 740 q 520 749 517 745 q 520 761 523 753 q 510 778 517 768 l 398 933 q 390 941 395 938 q 379 946 386 944 q 363 950 372 949 q 339 951 353 951 q 314 950 324 951 q 296 947 303 949 q 284 942 289 945 q 276 933 279 939 l 164 778 q 153 761 156 768 q 154 749 151 753 q 167 742 157 745 q 195 740 177 740 q 217 741 208 740 q 231 744 225 742 q 241 750 237 746 q 249 760 245 753 m 63 645 "},"ã":{"ha":665,"x_min":20,"x_max":564,"o":"m 564 16 l 564 428 q 551 528 564 485 q 509 599 538 570 q 435 643 481 628 q 323 658 389 658 q 253 651 288 658 q 189 635 218 645 q 138 613 160 625 q 106 593 115 602 q 95 574 97 584 q 92 547 92 564 q 94 529 92 537 q 98 515 95 520 q 105 507 101 509 q 115 504 109 504 q 139 514 123 504 q 181 535 156 524 q 238 557 205 547 q 313 567 271 567 q 378 558 351 567 q 421 531 404 549 q 445 486 437 513 q 452 423 452 458 l 452 376 l 368 376 q 240 363 297 376 q 144 326 183 351 q 83 262 104 300 q 62 173 62 224 q 78 94 62 129 q 120 36 93 60 q 187 0 148 12 q 274 -13 226 -13 q 378 11 329 -13 q 467 77 427 35 l 467 16 q 472 4 467 8 q 487 -2 477 0 q 515 -4 498 -4 q 543 -2 534 -4 q 558 4 553 0 q 564 16 564 8 m 452 295 l 452 165 q 373 97 411 119 q 292 75 336 75 q 207 103 237 75 q 177 178 177 131 q 188 228 177 206 q 220 264 198 249 q 277 287 243 279 q 357 295 311 295 l 452 295 m 559 891 q 551 914 559 909 q 517 919 543 919 q 487 915 494 919 q 479 901 479 911 q 467 847 479 865 q 430 829 454 829 q 390 844 408 829 q 350 874 371 858 q 302 905 328 891 q 239 919 275 919 q 142 879 176 919 q 108 772 108 839 q 110 757 108 763 q 116 748 112 751 q 128 744 121 745 q 146 743 136 743 q 168 744 159 743 q 181 747 176 745 q 186 752 185 749 q 188 761 188 756 q 199 813 188 793 q 237 833 210 833 q 264 826 252 833 q 291 810 277 820 q 317 788 304 800 q 347 766 331 777 q 383 750 363 756 q 428 743 403 743 q 524 781 488 743 q 559 891 559 819 m 20 645 "},"ä":{"ha":665,"x_min":62,"x_max":564,"o":"m 564 16 l 564 428 q 551 528 564 485 q 509 599 538 570 q 435 643 481 628 q 323 658 389 658 q 253 651 288 658 q 189 635 218 645 q 138 613 160 625 q 106 593 115 602 q 95 574 97 584 q 92 547 92 564 q 94 529 92 537 q 98 515 95 520 q 105 507 101 509 q 115 504 109 504 q 139 514 123 504 q 181 535 156 524 q 238 557 205 547 q 313 567 271 567 q 378 558 351 567 q 421 531 404 549 q 445 486 437 513 q 452 423 452 458 l 452 376 l 368 376 q 240 363 297 376 q 144 326 183 351 q 83 262 104 300 q 62 173 62 224 q 78 94 62 129 q 120 36 93 60 q 187 0 148 12 q 274 -13 226 -13 q 378 11 329 -13 q 467 77 427 35 l 467 16 q 472 4 467 8 q 487 -2 477 0 q 515 -4 498 -4 q 543 -2 534 -4 q 558 4 553 0 q 564 16 564 8 m 452 295 l 452 165 q 373 97 411 119 q 292 75 336 75 q 207 103 237 75 q 177 178 177 131 q 188 228 177 206 q 220 264 198 249 q 277 287 243 279 q 357 295 311 295 l 452 295 m 279 825 q 266 875 279 861 q 216 888 253 888 q 166 875 179 888 q 153 823 153 861 q 165 774 153 787 q 215 761 178 761 q 265 774 252 761 q 279 825 279 788 m 519 825 q 506 875 519 861 q 456 888 493 888 q 406 875 419 888 q 393 823 393 861 q 406 774 393 787 q 455 761 418 761 q 505 774 492 761 q 519 825 519 788 m 63 645 "},"ā":{"ha":665,"x_min":62,"x_max":564,"o":"m 564 16 l 564 428 q 551 528 564 485 q 509 599 538 570 q 435 643 481 628 q 323 658 389 658 q 253 651 288 658 q 189 635 218 645 q 138 613 160 625 q 106 593 115 602 q 95 574 97 584 q 92 547 92 564 q 94 529 92 537 q 98 515 95 520 q 105 507 101 509 q 115 504 109 504 q 139 514 123 504 q 181 535 156 524 q 238 557 205 547 q 313 567 271 567 q 378 558 351 567 q 421 531 404 549 q 445 486 437 513 q 452 423 452 458 l 452 376 l 368 376 q 240 363 297 376 q 144 326 183 351 q 83 262 104 300 q 62 173 62 224 q 78 94 62 129 q 120 36 93 60 q 187 0 148 12 q 274 -13 226 -13 q 378 11 329 -13 q 467 77 427 35 l 467 16 q 472 4 467 8 q 487 -2 477 0 q 515 -4 498 -4 q 543 -2 534 -4 q 558 4 553 0 q 564 16 564 8 m 452 295 l 452 165 q 373 97 411 119 q 292 75 336 75 q 207 103 237 75 q 177 178 177 131 q 188 228 177 206 q 220 264 198 249 q 277 287 243 279 q 357 295 311 295 l 452 295 m 499 877 l 174 877 q 164 874 169 877 q 157 867 160 872 q 153 853 155 862 q 152 833 152 845 q 153 813 152 821 q 157 800 155 806 q 164 792 160 795 q 174 789 169 789 l 499 789 q 509 792 505 789 q 515 800 513 795 q 519 813 517 806 q 521 833 521 821 q 519 853 521 845 q 515 867 517 862 q 509 874 513 872 q 499 877 505 877 m 62 645 "},"ă":{"ha":665,"x_min":62,"x_max":564,"o":"m 564 16 l 564 428 q 551 528 564 485 q 509 599 538 570 q 435 643 481 628 q 323 658 389 658 q 253 651 288 658 q 189 635 218 645 q 138 613 160 625 q 106 593 115 602 q 95 574 97 584 q 92 547 92 564 q 94 529 92 537 q 98 515 95 520 q 105 507 101 509 q 115 504 109 504 q 139 514 123 504 q 181 535 156 524 q 238 557 205 547 q 313 567 271 567 q 378 558 351 567 q 421 531 404 549 q 445 486 437 513 q 452 423 452 458 l 452 376 l 368 376 q 240 363 297 376 q 144 326 183 351 q 83 262 104 300 q 62 173 62 224 q 78 94 62 129 q 120 36 93 60 q 187 0 148 12 q 274 -13 226 -13 q 378 11 329 -13 q 467 77 427 35 l 467 16 q 472 4 467 8 q 487 -2 477 0 q 515 -4 498 -4 q 543 -2 534 -4 q 558 4 553 0 q 564 16 564 8 m 452 295 l 452 165 q 373 97 411 119 q 292 75 336 75 q 207 103 237 75 q 177 178 177 131 q 188 228 177 206 q 220 264 198 249 q 277 287 243 279 q 357 295 311 295 l 452 295 m 431 926 q 422 879 429 898 q 402 847 414 859 q 372 828 389 834 q 335 823 355 823 q 294 830 311 823 q 266 850 277 837 q 249 883 254 864 q 241 926 243 903 q 239 935 241 931 q 232 941 237 939 q 220 945 228 943 q 200 946 212 946 q 169 941 177 946 q 161 925 161 936 q 171 848 161 882 q 202 791 180 814 q 256 755 223 768 q 335 743 289 743 q 411 755 378 743 q 466 789 444 766 q 499 847 488 812 q 511 927 511 881 q 509 936 511 932 q 503 942 507 939 q 491 945 498 944 q 470 946 483 946 q 439 941 447 946 q 431 926 431 936 m 71 645 "},"å":{"ha":665,"x_min":62,"x_max":564,"o":"m 564 16 l 564 428 q 551 528 564 485 q 509 599 538 570 q 435 643 481 628 q 323 658 389 658 q 253 651 288 658 q 189 635 218 645 q 138 613 160 625 q 106 593 115 602 q 95 574 97 584 q 92 547 92 564 q 94 529 92 537 q 98 515 95 520 q 105 507 101 509 q 115 504 109 504 q 139 514 123 504 q 181 535 156 524 q 238 557 205 547 q 313 567 271 567 q 378 558 351 567 q 421 531 404 549 q 445 486 437 513 q 452 423 452 458 l 452 376 l 368 376 q 240 363 297 376 q 144 326 183 351 q 83 262 104 300 q 62 173 62 224 q 78 94 62 129 q 120 36 93 60 q 187 0 148 12 q 274 -13 226 -13 q 378 11 329 -13 q 467 77 427 35 l 467 16 q 472 4 467 8 q 487 -2 477 0 q 515 -4 498 -4 q 543 -2 534 -4 q 558 4 553 0 q 564 16 564 8 m 452 295 l 452 165 q 373 97 411 119 q 292 75 336 75 q 207 103 237 75 q 177 178 177 131 q 188 228 177 206 q 220 264 198 249 q 277 287 243 279 q 357 295 311 295 l 452 295 m 469 853 q 434 940 469 908 q 338 972 400 972 q 280 964 305 972 q 237 938 254 955 q 211 899 220 922 q 202 848 202 876 q 210 799 202 821 q 234 761 218 777 q 274 736 250 745 q 332 728 299 728 q 389 737 364 728 q 432 763 414 746 q 459 803 450 780 q 469 853 469 825 m 397 848 q 381 803 397 821 q 336 785 366 785 q 288 804 302 785 q 274 852 274 823 q 289 898 274 880 q 334 915 304 915 q 382 896 368 915 q 397 848 397 876 m 113 645 "},"ǻ":{"ha":665,"x_min":62,"x_max":564,"o":"m 564 16 l 564 428 q 551 528 564 485 q 509 599 538 570 q 435 643 481 628 q 323 658 389 658 q 253 651 288 658 q 189 635 218 645 q 138 613 160 625 q 106 593 115 602 q 95 574 97 584 q 92 547 92 564 q 94 529 92 537 q 98 515 95 520 q 105 507 101 509 q 115 504 109 504 q 139 514 123 504 q 181 535 156 524 q 238 557 205 547 q 313 567 271 567 q 378 558 351 567 q 421 531 404 549 q 445 486 437 513 q 452 423 452 458 l 452 376 l 368 376 q 240 363 297 376 q 144 326 183 351 q 83 262 104 300 q 62 173 62 224 q 78 94 62 129 q 120 36 93 60 q 187 0 148 12 q 274 -13 226 -13 q 378 11 329 -13 q 467 77 427 35 l 467 16 q 472 4 467 8 q 487 -2 477 0 q 515 -4 498 -4 q 543 -2 534 -4 q 558 4 553 0 q 564 16 564 8 m 452 295 l 452 165 q 373 97 411 119 q 292 75 336 75 q 207 103 237 75 q 177 178 177 131 q 188 228 177 206 q 220 264 198 249 q 277 287 243 279 q 357 295 311 295 l 452 295 m 453 818 q 445 861 453 842 q 421 893 437 880 q 382 915 406 907 q 330 922 359 922 q 276 914 300 922 q 236 891 252 906 q 211 857 220 877 q 203 813 203 837 q 211 771 203 790 q 235 738 219 751 q 274 715 250 724 q 328 707 297 707 q 380 716 357 707 q 419 739 403 724 q 444 774 435 754 q 453 818 453 795 m 386 813 q 372 775 386 791 q 329 759 358 759 q 283 775 296 759 q 270 818 270 792 q 284 857 270 841 q 328 872 299 872 q 354 867 343 872 q 372 854 366 863 q 382 836 379 846 q 386 813 386 825 m 381 1086 l 284 989 q 276 977 278 982 q 277 969 273 972 q 288 963 280 965 q 312 962 296 962 q 333 963 324 962 q 348 967 341 964 q 360 973 354 969 q 372 983 366 977 l 492 1080 q 500 1091 498 1086 q 497 1100 502 1096 q 481 1106 493 1104 q 451 1109 470 1109 q 426 1108 436 1109 q 408 1105 416 1107 q 394 1098 400 1102 q 381 1086 388 1093 m 121 645 "},"ą":{"ha":665,"x_min":62,"x_max":610,"o":"m 610 -197 q 606 -171 610 -177 q 591 -164 602 -164 l 527 -164 q 479 -128 479 -164 q 484 -104 479 -117 q 506 -75 490 -92 l 545 -37 q 559 -11 555 -25 q 564 22 564 4 l 564 428 q 551 528 564 485 q 509 599 538 570 q 435 643 481 628 q 323 658 389 658 q 253 651 288 658 q 189 635 218 645 q 138 613 160 625 q 106 593 115 602 q 95 574 97 584 q 92 547 92 564 q 94 529 92 537 q 98 515 95 520 q 105 507 101 509 q 115 504 109 504 q 139 514 123 504 q 181 535 156 524 q 238 557 205 547 q 313 567 271 567 q 378 558 351 567 q 421 531 404 549 q 445 486 437 513 q 452 423 452 458 l 452 376 l 368 376 q 240 363 297 376 q 144 326 183 351 q 83 262 104 300 q 62 173 62 224 q 78 94 62 129 q 120 36 93 60 q 187 0 148 12 q 274 -13 226 -13 q 378 11 330 -13 q 467 79 427 35 l 468 79 l 468 3 l 426 -39 q 398 -70 409 -56 q 381 -97 388 -84 q 373 -122 375 -111 q 370 -146 370 -134 q 405 -222 370 -196 q 502 -248 440 -248 q 550 -245 529 -248 q 589 -236 571 -242 q 599 -231 595 -234 q 606 -224 603 -229 q 609 -214 608 -220 q 610 -197 610 -208 m 452 295 l 452 165 q 373 97 411 119 q 292 75 336 75 q 207 103 237 75 q 177 178 177 131 q 188 228 177 206 q 220 264 198 249 q 277 287 243 279 q 357 295 311 295 l 452 295 "},"æ":{"ha":1074,"x_min":62,"x_max":1007,"o":"m 1007 349 l 1007 369 q 992 480 1007 428 q 944 572 977 533 q 862 635 912 612 q 742 658 812 658 q 616 631 671 658 q 528 554 560 604 q 499 596 517 577 q 457 629 482 616 q 399 650 433 643 q 323 658 366 658 q 253 651 288 658 q 189 635 218 645 q 138 613 160 625 q 106 593 115 602 q 95 574 97 584 q 92 547 92 564 q 94 529 92 537 q 98 515 95 520 q 104 507 100 509 q 113 504 108 504 q 138 514 121 504 q 180 535 155 524 q 238 557 205 547 q 313 567 271 567 q 378 558 351 567 q 421 531 404 549 q 445 486 437 513 q 452 423 452 458 l 452 376 l 368 376 q 240 363 297 376 q 144 326 183 351 q 83 262 104 300 q 62 172 62 224 q 78 94 62 129 q 120 36 93 60 q 187 0 148 12 q 274 -13 226 -13 q 341 -5 309 -13 q 402 17 373 2 q 457 54 431 33 q 505 101 483 75 q 546 53 523 74 q 600 17 570 32 q 668 -5 630 2 q 752 -13 705 -13 q 833 -6 795 -13 q 901 8 871 0 q 948 25 930 16 q 970 37 966 33 q 976 45 974 41 q 980 54 979 49 q 981 65 981 59 q 982 81 982 72 q 981 101 982 93 q 978 115 980 110 q 972 122 975 119 q 964 124 968 124 q 940 117 956 124 q 899 101 924 110 q 841 85 874 92 q 764 78 807 78 q 670 94 709 78 q 608 138 632 109 q 574 208 585 168 q 564 300 564 249 l 964 300 q 994 311 981 300 q 1007 349 1007 322 m 895 382 l 564 382 q 577 453 566 419 q 609 513 588 488 q 662 555 631 539 q 734 570 693 570 q 805 557 774 570 q 856 519 836 544 q 886 460 876 495 q 895 382 896 426 m 466 181 q 378 100 420 125 q 292 75 336 75 q 207 103 237 75 q 177 178 177 131 q 188 228 177 206 q 220 264 198 249 q 277 287 243 279 q 357 295 311 295 l 451 295 q 455 235 451 267 q 466 181 458 204 "},"ǽ":{"ha":1074,"x_min":62,"x_max":1007,"o":"m 1007 349 l 1007 369 q 992 480 1007 428 q 944 572 977 533 q 862 635 912 612 q 742 658 812 658 q 616 631 671 658 q 528 554 560 604 q 499 596 517 577 q 457 629 482 616 q 399 650 433 643 q 323 658 366 658 q 253 651 288 658 q 189 635 218 645 q 138 613 160 625 q 106 593 115 602 q 95 574 97 584 q 92 547 92 564 q 94 529 92 537 q 98 515 95 520 q 104 507 100 509 q 113 504 108 504 q 138 514 121 504 q 180 535 155 524 q 238 557 205 547 q 313 567 271 567 q 378 558 351 567 q 421 531 404 549 q 445 486 437 513 q 452 423 452 458 l 452 376 l 368 376 q 240 363 297 376 q 144 326 183 351 q 83 262 104 300 q 62 172 62 224 q 78 94 62 129 q 120 36 93 60 q 187 0 148 12 q 274 -13 226 -13 q 341 -5 309 -13 q 402 17 373 2 q 457 54 431 33 q 505 101 483 75 q 546 53 523 74 q 600 17 570 32 q 668 -5 630 2 q 752 -13 705 -13 q 833 -6 795 -13 q 901 8 871 0 q 948 25 930 16 q 970 37 966 33 q 976 45 974 41 q 980 54 979 49 q 981 65 981 59 q 982 81 982 72 q 981 101 982 93 q 978 115 980 110 q 972 122 975 119 q 964 124 968 124 q 940 117 956 124 q 899 101 924 110 q 841 85 874 92 q 764 78 807 78 q 670 94 709 78 q 608 138 632 109 q 574 208 585 168 q 564 300 564 249 l 964 300 q 994 311 981 300 q 1007 349 1007 322 m 895 382 l 564 382 q 577 453 566 419 q 609 513 588 488 q 662 555 631 539 q 734 570 693 570 q 805 557 774 570 q 856 519 836 544 q 886 460 876 495 q 895 382 896 426 m 466 181 q 378 100 420 125 q 292 75 336 75 q 207 103 237 75 q 177 178 177 131 q 188 228 177 206 q 220 264 198 249 q 277 287 243 279 q 357 295 311 295 l 451 295 q 455 235 451 267 q 466 181 458 204 m 595 926 l 496 769 q 491 756 492 762 q 493 747 490 751 q 506 742 497 744 q 530 740 515 740 q 552 741 543 740 q 567 744 562 742 q 577 751 573 747 q 587 762 582 755 l 710 920 q 716 931 715 926 q 712 942 717 937 q 695 948 707 946 q 665 951 684 951 q 637 949 648 951 q 617 945 625 948 q 604 938 610 943 q 595 926 599 933 m 401 645 "},"b":{"ha":730,"x_min":104,"x_max":665,"o":"m 665 330 q 652 456 665 397 q 609 561 638 516 q 532 631 579 605 q 418 658 485 658 q 367 652 391 658 q 318 635 342 647 q 268 604 294 623 q 216 557 243 585 l 216 923 q 213 932 216 928 q 204 939 210 937 q 187 943 198 942 q 159 945 176 945 q 132 943 143 945 q 115 939 121 942 q 106 932 109 937 q 104 923 104 928 l 104 17 q 106 7 104 12 q 114 1 108 3 q 130 -3 120 -1 q 153 -4 139 -4 q 176 -3 167 -4 q 191 1 185 -1 q 200 7 197 3 q 203 17 203 12 l 203 92 q 253 44 229 64 q 300 12 277 24 q 349 -7 324 -1 q 403 -13 374 -13 q 515 11 466 -13 q 597 79 564 35 q 648 188 631 124 q 665 330 665 251 m 547 317 q 539 233 547 275 q 512 158 530 191 q 463 104 493 124 q 391 83 433 83 q 304 113 346 83 q 216 199 262 142 l 216 442 q 266 498 242 476 q 311 535 289 521 q 353 555 332 549 q 396 562 374 562 q 469 541 439 562 q 515 486 498 520 q 540 408 533 452 q 547 317 547 364 "},"c":{"ha":587,"x_min":61,"x_max":543,"o":"m 543 110 q 542 133 543 123 q 538 150 541 143 q 532 159 536 156 q 524 161 529 161 q 502 150 516 161 q 466 123 487 138 q 415 96 444 109 q 347 84 386 84 q 275 99 307 84 q 222 143 243 113 q 189 217 200 173 q 178 321 178 262 q 221 501 178 439 q 345 563 264 563 q 413 552 384 563 q 462 527 441 541 q 495 502 482 513 q 519 491 509 491 q 534 502 528 491 q 540 538 540 512 q 539 559 540 551 q 536 573 538 567 q 531 585 534 580 q 520 597 528 589 q 494 617 512 606 q 453 637 476 629 q 402 652 430 646 q 346 657 375 657 q 234 637 286 657 q 143 576 182 617 q 83 470 105 534 q 61 315 61 405 q 79 175 61 235 q 131 72 97 114 q 216 9 165 31 q 333 -13 267 -13 q 395 -7 365 -13 q 450 9 425 -1 q 496 32 475 19 q 525 53 516 44 q 535 65 533 61 q 539 76 538 70 q 542 90 541 81 q 543 110 543 98 "},"ć":{"ha":587,"x_min":61,"x_max":543,"o":"m 543 110 q 542 133 543 123 q 538 150 541 143 q 532 159 536 156 q 524 161 529 161 q 502 150 516 161 q 466 123 487 138 q 415 96 444 109 q 347 84 386 84 q 275 99 307 84 q 222 143 243 113 q 189 217 200 173 q 178 321 178 262 q 221 501 178 439 q 345 563 264 563 q 413 552 384 563 q 462 527 441 541 q 495 502 482 513 q 519 491 509 491 q 534 502 528 491 q 540 538 540 512 q 539 559 540 551 q 536 573 538 567 q 531 585 534 580 q 520 597 528 589 q 494 617 512 606 q 453 637 476 629 q 402 652 430 646 q 346 657 375 657 q 234 637 286 657 q 143 576 182 617 q 83 470 105 534 q 61 315 61 405 q 79 175 61 235 q 131 72 97 114 q 216 9 165 31 q 333 -13 267 -13 q 395 -7 365 -13 q 450 9 425 -1 q 496 32 475 19 q 525 53 516 44 q 535 65 533 61 q 539 76 538 70 q 542 90 541 81 q 543 110 543 98 m 374 926 l 275 769 q 270 756 271 762 q 272 747 269 751 q 285 742 276 744 q 309 740 294 740 q 331 741 322 740 q 346 744 340 742 q 356 751 352 747 q 366 762 361 755 l 489 920 q 495 931 494 926 q 491 942 496 937 q 474 948 486 946 q 444 951 463 951 q 416 949 427 951 q 396 945 404 948 q 383 938 389 943 q 374 926 378 933 m 180 645 "},"ĉ":{"ha":587,"x_min":53,"x_max":543,"o":"m 543 110 q 542 133 543 123 q 538 150 541 143 q 532 159 536 156 q 524 161 529 161 q 502 150 516 161 q 466 123 487 138 q 415 96 444 109 q 347 84 386 84 q 275 99 307 84 q 222 143 243 113 q 189 217 200 173 q 178 321 178 262 q 221 501 178 439 q 345 563 264 563 q 413 552 384 563 q 462 527 441 541 q 495 502 482 513 q 519 491 509 491 q 534 502 528 491 q 540 538 540 512 q 539 559 540 551 q 536 573 538 567 q 531 585 534 580 q 520 597 528 589 q 494 617 512 606 q 453 637 476 629 q 402 652 430 646 q 346 657 375 657 q 234 637 286 657 q 143 576 182 617 q 83 470 105 534 q 61 315 61 405 q 79 175 61 235 q 131 72 97 114 q 216 9 165 31 q 333 -13 267 -13 q 395 -7 365 -13 q 450 9 425 -1 q 496 32 475 19 q 525 53 516 44 q 535 65 533 61 q 539 76 538 70 q 542 90 541 81 q 543 110 543 98 m 239 760 l 327 882 l 415 760 q 423 750 420 754 q 432 744 427 746 q 446 741 437 742 q 469 740 454 740 q 496 742 486 740 q 510 749 507 745 q 510 761 513 753 q 500 778 507 768 l 388 933 q 380 941 385 938 q 369 946 376 944 q 353 950 362 949 q 329 951 343 951 q 303 950 314 951 q 286 947 293 949 q 274 942 279 945 q 266 933 269 939 l 154 778 q 143 761 146 768 q 144 749 140 753 q 157 742 147 745 q 185 740 167 740 q 207 741 198 740 q 221 744 215 742 q 231 750 227 746 q 239 760 235 753 m 53 645 "},"č":{"ha":587,"x_min":59,"x_max":543,"o":"m 543 110 q 542 133 543 123 q 538 150 541 143 q 532 159 536 156 q 524 161 529 161 q 502 150 516 161 q 466 123 487 138 q 415 96 444 109 q 347 84 386 84 q 275 99 307 84 q 222 143 243 113 q 189 217 200 173 q 178 321 178 262 q 221 501 178 439 q 345 563 264 563 q 413 552 384 563 q 462 527 441 541 q 495 502 482 513 q 519 491 509 491 q 534 502 528 491 q 540 538 540 512 q 539 559 540 551 q 536 573 538 567 q 531 585 534 580 q 520 597 528 589 q 494 617 512 606 q 453 637 476 629 q 402 652 430 646 q 346 657 375 657 q 234 637 286 657 q 143 576 182 617 q 83 470 105 534 q 61 315 61 405 q 79 175 61 235 q 131 72 97 114 q 216 9 165 31 q 333 -13 267 -13 q 395 -7 365 -13 q 450 9 425 -1 q 496 32 475 19 q 525 53 516 44 q 535 65 533 61 q 539 76 538 70 q 542 90 541 81 q 543 110 543 98 m 421 930 l 333 808 l 245 930 q 237 940 241 937 q 228 946 233 944 q 214 950 222 949 q 191 951 205 951 q 164 948 174 951 q 151 942 154 946 q 150 930 147 937 q 160 913 153 922 l 272 758 q 280 749 275 753 q 291 744 284 746 q 308 741 298 742 q 332 740 317 740 q 357 741 347 740 q 374 744 367 742 q 386 749 381 745 q 395 758 391 752 l 507 913 q 517 930 514 923 q 516 942 519 937 q 503 948 513 946 q 475 951 493 951 q 454 950 463 951 q 439 946 446 949 q 430 940 433 944 q 421 930 426 937 m 59 645 "},"ċ":{"ha":587,"x_min":61,"x_max":543,"o":"m 543 110 q 542 133 543 123 q 538 150 541 143 q 532 159 536 156 q 524 161 529 161 q 502 150 516 161 q 466 123 487 138 q 415 96 444 109 q 347 84 386 84 q 275 99 307 84 q 222 143 243 113 q 189 217 200 173 q 178 321 178 262 q 221 501 178 439 q 345 563 264 563 q 413 552 384 563 q 462 527 441 541 q 495 502 482 513 q 519 491 509 491 q 534 502 528 491 q 540 538 540 512 q 539 559 540 551 q 536 573 538 567 q 531 585 534 580 q 520 597 528 589 q 494 617 512 606 q 453 637 476 629 q 402 652 430 646 q 346 657 375 657 q 234 637 286 657 q 143 576 182 617 q 83 470 105 534 q 61 315 61 405 q 79 175 61 235 q 131 72 97 114 q 216 9 165 31 q 333 -13 267 -13 q 395 -7 365 -13 q 450 9 425 -1 q 496 32 475 19 q 525 53 516 44 q 535 65 533 61 q 539 76 538 70 q 542 90 541 81 q 543 110 543 98 m 399 836 q 385 886 399 872 q 332 900 370 900 q 279 886 294 900 q 264 833 264 871 q 279 783 264 797 q 331 769 293 769 q 385 783 370 769 q 399 836 399 798 m 175 645 "},"ç":{"ha":587,"x_min":61,"x_max":543,"o":"m 543 110 q 542 133 543 123 q 538 150 541 143 q 532 159 536 156 q 524 161 529 161 q 502 150 516 161 q 466 123 487 138 q 415 96 444 109 q 347 84 386 84 q 275 99 307 84 q 222 143 243 113 q 189 217 200 173 q 178 321 178 262 q 221 501 178 439 q 345 563 264 563 q 413 552 384 563 q 462 527 441 541 q 495 502 482 513 q 519 491 509 491 q 534 502 528 491 q 540 538 540 512 q 539 559 540 551 q 536 573 538 567 q 531 585 534 580 q 520 597 528 589 q 494 617 512 606 q 453 637 476 629 q 402 652 430 646 q 346 657 375 657 q 234 637 286 657 q 143 576 182 617 q 83 470 105 534 q 61 315 61 405 q 84 157 61 224 q 153 48 107 90 q 269 -6 199 7 l 300 -77 q 311 -105 307 -92 q 315 -127 315 -118 q 303 -154 315 -145 q 269 -163 291 -163 l 185 -163 q 171 -171 175 -163 q 166 -199 166 -178 q 167 -215 166 -209 q 171 -225 168 -221 q 179 -232 173 -229 q 200 -238 184 -235 q 236 -244 215 -241 q 281 -248 258 -248 q 336 -240 311 -248 q 378 -219 360 -233 q 405 -184 395 -205 q 414 -138 414 -164 q 408 -101 414 -121 q 387 -50 401 -81 l 370 -11 q 441 6 410 -6 q 495 31 473 18 q 525 53 516 44 q 535 65 533 61 q 539 76 538 70 q 542 90 541 81 q 543 110 543 98 "},"d":{"ha":730,"x_min":65,"x_max":627,"o":"m 627 17 l 627 920 q 624 929 627 925 q 614 936 621 934 q 597 940 608 939 q 570 942 587 942 q 543 940 553 942 q 526 936 532 939 q 516 929 519 934 q 514 920 514 925 l 514 566 q 426 634 471 611 q 328 658 382 658 q 215 634 264 658 q 132 565 165 610 q 82 457 99 520 q 65 315 65 393 q 79 188 65 248 q 122 84 92 128 q 199 13 151 39 q 313 -13 246 -13 q 427 16 375 -13 q 527 98 479 45 l 527 17 q 530 7 527 12 q 538 1 532 3 q 554 -3 545 -1 q 578 -4 564 -4 q 601 -3 591 -4 q 616 1 610 -1 q 624 7 622 3 q 627 17 627 12 m 514 446 l 514 202 q 464 146 488 169 q 418 109 440 123 q 376 89 397 95 q 333 83 355 83 q 260 103 289 83 q 213 158 231 124 q 188 237 195 193 q 181 327 181 281 q 190 412 181 370 q 217 488 198 454 q 265 541 235 521 q 338 562 295 562 q 426 532 384 562 q 514 446 469 503 "},"ď":{"ha":789,"x_min":65,"x_max":852,"o":"m 627 17 l 627 920 q 624 929 627 925 q 614 936 621 934 q 597 940 608 939 q 570 942 587 942 q 543 940 553 942 q 526 936 532 939 q 516 929 519 934 q 514 920 514 925 l 514 566 q 426 634 471 611 q 328 658 382 658 q 215 634 264 658 q 132 565 165 610 q 82 457 99 520 q 65 315 65 393 q 79 188 65 248 q 122 84 92 128 q 199 13 151 39 q 313 -13 246 -13 q 427 16 375 -13 q 527 98 479 45 l 527 17 q 530 7 527 12 q 538 1 532 3 q 554 -3 545 -1 q 578 -4 564 -4 q 601 -3 591 -4 q 616 1 610 -1 q 624 7 622 3 q 627 17 627 12 m 514 446 l 514 202 q 464 146 488 169 q 418 109 440 123 q 376 89 397 95 q 333 83 355 83 q 260 103 289 83 q 213 158 231 124 q 188 237 195 193 q 181 327 181 281 q 190 412 181 370 q 217 488 198 454 q 265 541 235 521 q 338 562 295 562 q 426 532 384 562 q 514 446 469 503 m 748 923 l 686 716 q 685 707 684 711 q 688 701 686 703 q 697 696 691 698 q 713 695 703 695 q 737 696 728 695 q 752 698 746 696 q 761 703 758 700 q 765 711 764 706 l 850 922 q 851 934 852 929 q 847 942 851 939 q 834 946 842 945 q 810 947 825 947 q 783 946 794 947 q 765 942 772 945 q 754 935 758 939 q 748 923 750 930 m 595 676 "},"đ":{"ha":766,"x_min":65,"x_max":740,"o":"m 740 792 q 739 813 740 804 q 734 827 737 821 q 727 834 731 832 q 718 836 723 836 l 627 836 l 627 920 q 624 929 627 925 q 614 936 621 934 q 597 940 608 939 q 570 942 587 942 q 543 940 553 942 q 526 936 532 939 q 516 929 519 934 q 514 920 514 925 l 514 836 l 348 836 q 338 834 342 836 q 331 827 334 832 q 327 813 328 821 q 326 792 326 804 q 327 772 326 781 q 331 758 328 764 q 338 750 334 753 q 348 748 342 748 l 514 748 l 514 565 q 426 633 471 610 q 328 656 382 656 q 215 632 264 656 q 132 564 165 608 q 82 456 99 519 q 65 315 65 393 q 79 188 65 248 q 122 84 92 128 q 199 13 151 39 q 313 -13 246 -13 q 427 16 375 -13 q 527 98 479 45 l 527 17 q 530 7 527 12 q 538 1 532 3 q 554 -3 545 -1 q 578 -4 564 -4 q 601 -3 591 -4 q 616 1 610 -1 q 624 7 622 3 q 627 17 627 12 l 627 748 l 718 748 q 727 750 724 748 q 734 758 731 753 q 739 772 737 764 q 740 792 740 781 m 514 445 l 514 202 q 464 146 488 169 q 418 109 440 123 q 376 89 397 95 q 333 83 355 83 q 260 103 289 83 q 213 158 231 124 q 188 236 195 193 q 181 326 181 280 q 190 412 181 370 q 217 487 198 454 q 265 541 235 520 q 337 561 295 561 q 426 531 384 561 q 514 445 469 501 "},"ð":{"ha":730,"x_min":66,"x_max":642,"o":"m 201 727 l 387 774 q 431 717 412 745 q 463 665 450 690 q 484 618 475 640 q 498 580 493 597 q 458 614 479 600 q 417 638 438 629 q 374 653 395 648 q 328 658 352 658 q 219 635 268 658 q 136 570 170 613 q 84 463 102 526 q 66 315 66 399 q 79 187 66 247 q 124 83 93 127 q 206 13 155 39 q 332 -13 257 -13 q 468 14 410 -13 q 563 92 526 41 q 619 218 601 143 q 637 388 637 292 q 630 508 637 453 q 605 612 622 562 q 562 708 589 661 q 499 802 536 754 l 615 832 q 627 837 623 833 q 635 845 632 840 q 640 859 638 850 q 642 878 642 867 q 640 898 642 890 q 635 909 638 906 q 627 914 632 913 q 616 913 623 915 l 444 869 q 428 887 442 872 q 396 924 414 903 q 385 932 391 928 q 369 938 378 936 q 345 942 359 941 q 310 943 331 943 q 273 941 286 943 q 255 937 260 939 q 250 929 250 934 q 256 920 251 925 q 274 901 264 911 q 294 880 283 890 q 313 859 304 869 q 330 841 322 849 l 201 808 q 190 803 195 806 q 181 795 184 800 q 177 782 178 790 q 176 763 176 774 q 177 742 176 750 q 181 731 178 734 q 189 726 184 727 q 201 727 194 726 m 522 374 q 510 242 522 297 q 475 152 498 188 q 417 100 452 117 q 336 83 382 83 q 262 103 292 83 q 214 157 232 123 q 189 235 196 191 q 181 327 181 279 q 191 418 181 375 q 220 492 200 460 q 269 543 239 524 q 338 562 298 562 q 379 555 359 562 q 422 534 400 548 q 469 497 444 519 q 519 446 493 475 q 522 415 521 433 q 522 374 522 397 "},"e":{"ha":691,"x_min":63,"x_max":625,"o":"m 625 349 l 625 369 q 609 481 625 429 q 562 573 594 534 q 478 635 529 612 q 356 658 428 658 q 235 634 289 658 q 142 567 180 611 q 83 461 104 524 q 63 319 63 398 q 83 174 63 237 q 141 71 102 112 q 236 8 180 29 q 368 -13 293 -13 q 450 -6 412 -13 q 517 8 488 0 q 565 25 547 16 q 587 37 583 33 q 593 45 591 41 q 596 54 595 49 q 598 65 597 59 q 599 81 599 72 q 598 101 599 93 q 595 115 597 110 q 589 122 593 119 q 581 124 585 124 q 556 117 572 124 q 516 101 541 110 q 457 85 491 92 q 380 78 423 78 q 287 94 325 78 q 225 138 249 109 q 191 208 201 168 q 181 300 181 249 l 581 300 q 611 311 598 300 q 625 349 625 322 m 512 382 l 181 382 q 194 453 182 419 q 227 513 205 488 q 279 555 248 539 q 351 570 310 570 q 473 520 432 570 q 512 382 514 470 "},"è":{"ha":691,"x_min":63,"x_max":625,"o":"m 625 349 l 625 369 q 609 481 625 429 q 562 573 594 534 q 478 635 529 612 q 356 658 428 658 q 235 634 289 658 q 142 567 180 611 q 83 461 104 524 q 63 319 63 398 q 83 174 63 237 q 141 71 102 112 q 236 8 180 29 q 368 -13 293 -13 q 450 -6 412 -13 q 517 8 488 0 q 565 25 547 16 q 587 37 583 33 q 593 45 591 41 q 596 54 595 49 q 598 65 597 59 q 599 81 599 72 q 598 101 599 93 q 595 115 597 110 q 589 122 593 119 q 581 124 585 124 q 556 117 572 124 q 516 101 541 110 q 457 85 491 92 q 380 78 423 78 q 287 94 325 78 q 225 138 249 109 q 191 208 201 168 q 181 300 181 249 l 581 300 q 611 311 598 300 q 625 349 625 322 m 512 382 l 181 382 q 194 453 182 419 q 227 513 205 488 q 279 555 248 539 q 351 570 310 570 q 473 520 432 570 q 512 382 514 470 m 401 769 l 303 926 q 292 938 298 933 q 279 945 287 943 q 261 949 272 948 q 233 951 250 951 q 202 948 214 951 q 186 942 191 946 q 182 931 181 937 q 188 920 182 926 l 311 762 q 320 751 315 755 q 331 744 325 747 q 347 741 338 742 q 369 740 355 740 q 392 742 384 740 q 405 747 401 744 q 407 756 408 751 q 401 769 406 762 m 92 645 "},"é":{"ha":691,"x_min":63,"x_max":625,"o":"m 625 349 l 625 369 q 609 481 625 429 q 562 573 594 534 q 478 635 529 612 q 356 658 428 658 q 235 634 289 658 q 142 567 180 611 q 83 461 104 524 q 63 319 63 398 q 83 174 63 237 q 141 71 102 112 q 236 8 180 29 q 368 -13 293 -13 q 450 -6 412 -13 q 517 8 488 0 q 565 25 547 16 q 587 37 583 33 q 593 45 591 41 q 596 54 595 49 q 598 65 597 59 q 599 81 599 72 q 598 101 599 93 q 595 115 597 110 q 589 122 593 119 q 581 124 585 124 q 556 117 572 124 q 516 101 541 110 q 457 85 491 92 q 380 78 423 78 q 287 94 325 78 q 225 138 249 109 q 191 208 201 168 q 181 300 181 249 l 581 300 q 611 311 598 300 q 625 349 625 322 m 512 382 l 181 382 q 194 453 182 419 q 227 513 205 488 q 279 555 248 539 q 351 570 310 570 q 473 520 432 570 q 512 382 514 470 m 402 926 l 304 769 q 298 756 299 762 q 301 747 297 751 q 313 742 304 744 q 337 740 322 740 q 360 741 351 740 q 375 744 369 742 q 385 751 380 747 q 395 762 389 755 l 517 920 q 524 931 523 926 q 519 942 524 937 q 503 948 515 946 q 472 951 491 951 q 444 949 456 951 q 425 945 433 948 q 412 938 417 943 q 402 926 406 933 m 208 645 "},"ê":{"ha":691,"x_min":63,"x_max":625,"o":"m 625 349 l 625 369 q 609 481 625 429 q 562 573 594 534 q 478 635 529 612 q 356 658 428 658 q 235 634 289 658 q 142 567 180 611 q 83 461 104 524 q 63 319 63 398 q 83 174 63 237 q 141 71 102 112 q 236 8 180 29 q 368 -13 293 -13 q 450 -6 412 -13 q 517 8 488 0 q 565 25 547 16 q 587 37 583 33 q 593 45 591 41 q 596 54 595 49 q 598 65 597 59 q 599 81 599 72 q 598 101 599 93 q 595 115 597 110 q 589 122 593 119 q 581 124 585 124 q 556 117 572 124 q 516 101 541 110 q 457 85 491 92 q 380 78 423 78 q 287 94 325 78 q 225 138 249 109 q 191 208 201 168 q 181 300 181 249 l 581 300 q 611 311 598 300 q 625 349 625 322 m 512 382 l 181 382 q 194 453 182 419 q 227 513 205 488 q 279 555 248 539 q 351 570 310 570 q 473 520 432 570 q 512 382 514 470 m 262 760 l 351 882 l 439 760 q 447 750 444 754 q 456 744 450 746 q 470 741 461 742 q 492 740 478 740 q 520 742 510 740 q 533 749 530 745 q 534 761 536 753 q 524 778 531 768 l 412 933 q 404 941 408 938 q 393 946 399 944 q 376 950 386 949 q 353 951 367 951 q 327 950 338 951 q 310 947 317 949 q 298 942 302 945 q 290 933 293 939 l 178 778 q 167 761 170 768 q 168 749 164 753 q 181 742 171 745 q 209 740 191 740 q 230 741 222 740 q 244 744 239 742 q 254 750 250 746 q 262 760 258 753 m 77 645 "},"ě":{"ha":691,"x_min":63,"x_max":625,"o":"m 625 349 l 625 369 q 609 481 625 429 q 562 573 594 534 q 478 635 529 612 q 356 658 428 658 q 235 634 289 658 q 142 567 180 611 q 83 461 104 524 q 63 319 63 398 q 83 174 63 237 q 141 71 102 112 q 236 8 180 29 q 368 -13 293 -13 q 450 -6 412 -13 q 517 8 488 0 q 565 25 547 16 q 587 37 583 33 q 593 45 591 41 q 596 54 595 49 q 598 65 597 59 q 599 81 599 72 q 598 101 599 93 q 595 115 597 110 q 589 122 593 119 q 581 124 585 124 q 556 117 572 124 q 516 101 541 110 q 457 85 491 92 q 380 78 423 78 q 287 94 325 78 q 225 138 249 109 q 191 208 201 168 q 181 300 181 249 l 581 300 q 611 311 598 300 q 625 349 625 322 m 512 382 l 181 382 q 194 453 182 419 q 227 513 205 488 q 279 555 248 539 q 351 570 310 570 q 473 520 432 570 q 512 382 514 470 m 437 930 l 349 808 l 261 930 q 253 940 257 937 q 244 946 250 944 q 230 950 239 949 q 208 951 222 951 q 180 948 190 951 q 167 942 170 946 q 166 930 163 937 q 176 913 169 922 l 288 758 q 296 749 292 753 q 308 744 300 746 q 324 741 315 742 q 348 740 334 740 q 373 741 363 740 q 390 744 383 742 q 402 749 397 745 q 411 758 407 752 l 523 913 q 533 930 530 923 q 533 942 536 937 q 519 948 530 946 q 492 951 509 951 q 470 950 479 951 q 456 946 462 949 q 446 940 450 944 q 437 930 442 937 m 75 645 "},"ë":{"ha":691,"x_min":63,"x_max":625,"o":"m 625 349 l 625 369 q 609 481 625 429 q 562 573 594 534 q 478 635 529 612 q 356 658 428 658 q 235 634 289 658 q 142 567 180 611 q 83 461 104 524 q 63 319 63 398 q 83 174 63 237 q 141 71 102 112 q 236 8 180 29 q 368 -13 293 -13 q 450 -6 412 -13 q 517 8 488 0 q 565 25 547 16 q 587 37 583 33 q 593 45 591 41 q 596 54 595 49 q 598 65 597 59 q 599 81 599 72 q 598 101 599 93 q 595 115 597 110 q 589 122 593 119 q 581 124 585 124 q 556 117 572 124 q 516 101 541 110 q 457 85 491 92 q 380 78 423 78 q 287 94 325 78 q 225 138 249 109 q 191 208 201 168 q 181 300 181 249 l 581 300 q 611 311 598 300 q 625 349 625 322 m 512 382 l 181 382 q 194 453 182 419 q 227 513 205 488 q 279 555 248 539 q 351 570 310 570 q 473 520 432 570 q 512 382 514 470 m 294 825 q 281 875 294 861 q 231 888 268 888 q 181 875 194 888 q 168 823 168 861 q 180 774 168 787 q 230 761 193 761 q 280 774 267 761 q 294 825 294 788 m 534 825 q 521 875 534 861 q 471 888 508 888 q 421 875 434 888 q 408 823 408 861 q 420 774 408 787 q 470 761 433 761 q 520 774 507 761 q 534 825 534 788 m 78 645 "},"ē":{"ha":691,"x_min":63,"x_max":625,"o":"m 625 349 l 625 369 q 609 481 625 429 q 562 573 594 534 q 478 635 529 612 q 356 658 428 658 q 235 634 289 658 q 142 567 180 611 q 83 461 104 524 q 63 319 63 398 q 83 174 63 237 q 141 71 102 112 q 236 8 180 29 q 368 -13 293 -13 q 450 -6 412 -13 q 517 8 488 0 q 565 25 547 16 q 587 37 583 33 q 593 45 591 41 q 596 54 595 49 q 598 65 597 59 q 599 81 599 72 q 598 101 599 93 q 595 115 597 110 q 589 122 593 119 q 581 124 585 124 q 556 117 572 124 q 516 101 541 110 q 457 85 491 92 q 380 78 423 78 q 287 94 325 78 q 225 138 249 109 q 191 208 201 168 q 181 300 181 249 l 581 300 q 611 311 598 300 q 625 349 625 322 m 512 382 l 181 382 q 194 453 182 419 q 227 513 205 488 q 279 555 248 539 q 351 570 310 570 q 473 520 432 570 q 512 382 514 470 m 514 877 l 189 877 q 179 874 184 877 q 172 867 175 872 q 168 853 170 862 q 167 833 167 845 q 168 813 167 821 q 172 800 170 806 q 179 792 175 795 q 189 789 184 789 l 514 789 q 524 792 519 789 q 530 800 528 795 q 534 813 532 806 q 536 833 536 821 q 534 853 536 845 q 530 867 532 862 q 524 874 528 872 q 514 877 519 877 m 77 645 "},"ĕ":{"ha":691,"x_min":63,"x_max":625,"o":"m 625 349 l 625 369 q 609 481 625 429 q 562 573 594 534 q 478 635 529 612 q 356 658 428 658 q 235 634 289 658 q 142 567 180 611 q 83 461 104 524 q 63 319 63 398 q 83 174 63 237 q 141 71 102 112 q 236 8 180 29 q 368 -13 293 -13 q 450 -6 412 -13 q 517 8 488 0 q 565 25 547 16 q 587 37 583 33 q 593 45 591 41 q 596 54 595 49 q 598 65 597 59 q 599 81 599 72 q 598 101 599 93 q 595 115 597 110 q 589 122 593 119 q 581 124 585 124 q 556 117 572 124 q 516 101 541 110 q 457 85 491 92 q 380 78 423 78 q 287 94 325 78 q 225 138 249 109 q 191 208 201 168 q 181 300 181 249 l 581 300 q 611 311 598 300 q 625 349 625 322 m 512 382 l 181 382 q 194 453 182 419 q 227 513 205 488 q 279 555 248 539 q 351 570 310 570 q 473 520 432 570 q 512 382 514 470 m 441 926 q 432 879 439 898 q 412 847 425 859 q 382 828 399 834 q 345 823 366 823 q 304 830 321 823 q 276 850 287 837 q 259 883 264 864 q 251 926 253 903 q 249 935 251 931 q 242 941 247 939 q 230 945 238 943 q 210 946 222 946 q 179 941 187 946 q 171 925 171 936 q 181 848 171 882 q 212 791 191 814 q 266 755 233 768 q 345 743 299 743 q 421 755 389 743 q 476 789 454 766 q 510 847 498 812 q 521 927 521 881 q 519 936 521 932 q 513 942 517 939 q 501 945 509 944 q 480 946 493 946 q 449 941 457 946 q 441 926 441 936 m 81 645 "},"ė":{"ha":691,"x_min":63,"x_max":625,"o":"m 625 349 l 625 369 q 609 481 625 429 q 562 573 594 534 q 478 635 529 612 q 356 658 428 658 q 235 634 289 658 q 142 567 180 611 q 83 461 104 524 q 63 319 63 398 q 83 174 63 237 q 141 71 102 112 q 236 8 180 29 q 368 -13 293 -13 q 450 -6 412 -13 q 517 8 488 0 q 565 25 547 16 q 587 37 583 33 q 593 45 591 41 q 596 54 595 49 q 598 65 597 59 q 599 81 599 72 q 598 101 599 93 q 595 115 597 110 q 589 122 593 119 q 581 124 585 124 q 556 117 572 124 q 516 101 541 110 q 457 85 491 92 q 380 78 423 78 q 287 94 325 78 q 225 138 249 109 q 191 208 201 168 q 181 300 181 249 l 581 300 q 611 311 598 300 q 625 349 625 322 m 512 382 l 181 382 q 194 453 182 419 q 227 513 205 488 q 279 555 248 539 q 351 570 310 570 q 473 520 432 570 q 512 382 514 470 m 421 836 q 407 886 421 872 q 354 900 392 900 q 301 886 315 900 q 286 833 286 871 q 300 783 286 797 q 353 769 315 769 q 406 783 391 769 q 421 836 421 798 m 197 645 "},"ę":{"ha":691,"x_min":63,"x_max":625,"o":"m 625 349 l 625 369 q 609 481 625 429 q 562 573 594 534 q 478 635 529 612 q 356 658 428 658 q 235 634 289 658 q 142 567 180 611 q 83 461 104 524 q 63 319 63 398 q 83 175 63 237 q 140 72 102 113 q 233 9 178 30 q 361 -12 289 -12 q 407 -10 387 -12 q 444 -3 427 -7 l 407 -41 q 381 -70 391 -56 q 365 -96 371 -83 q 356 -121 359 -109 q 353 -146 353 -133 q 389 -222 353 -196 q 487 -248 424 -248 q 537 -244 514 -248 q 582 -235 559 -241 q 593 -231 589 -233 q 600 -224 597 -229 q 603 -213 602 -220 q 604 -194 604 -205 q 600 -170 604 -176 q 586 -164 595 -164 l 512 -164 q 473 -155 485 -164 q 462 -127 462 -146 q 467 -105 462 -118 q 490 -74 473 -92 l 583 19 q 592 30 589 25 q 596 42 595 35 q 598 58 598 49 q 599 81 599 67 q 598 101 599 93 q 595 115 597 110 q 589 122 593 119 q 581 124 585 124 q 556 117 572 124 q 516 101 541 110 q 457 85 491 92 q 380 78 423 78 q 287 94 325 78 q 225 138 249 109 q 191 208 201 168 q 181 300 181 249 l 581 300 q 611 311 598 300 q 625 349 625 322 m 512 382 l 181 382 q 194 453 182 419 q 227 513 205 488 q 279 555 248 539 q 351 570 310 570 q 473 520 432 570 q 512 382 514 470 "},"f":{"ha":424,"x_min":25,"x_max":438,"o":"m 438 878 q 437 900 438 891 q 433 916 436 909 q 427 926 431 922 q 410 936 422 930 q 376 945 398 941 q 330 949 353 949 q 242 936 279 949 q 181 892 205 922 q 145 818 157 863 q 133 708 133 772 l 133 645 l 47 645 q 37 643 41 645 q 31 634 33 640 q 26 620 28 629 q 25 598 25 611 q 31 563 25 574 q 47 552 36 552 l 133 552 l 133 17 q 136 8 133 12 q 145 1 138 4 q 162 -3 151 -1 q 189 -4 173 -4 q 216 -3 205 -4 q 234 1 227 -1 q 243 8 240 4 q 245 17 245 12 l 245 552 l 382 552 q 398 563 392 552 q 404 598 404 574 q 402 620 404 611 q 398 634 401 629 q 391 643 395 640 q 382 645 387 645 l 245 645 l 245 711 q 250 778 245 751 q 266 823 255 806 q 294 848 277 840 q 337 857 312 857 q 369 853 355 857 q 393 847 383 850 q 411 840 404 843 q 422 837 418 837 q 429 839 427 837 q 434 845 432 840 q 437 858 435 850 q 438 878 438 865 "},"ﬀ":{"ha":810,"x_min":25,"x_max":825,"o":"m 825 879 q 824 901 825 892 q 820 917 823 910 q 813 927 818 923 q 803 934 809 931 q 766 945 789 940 q 714 950 743 950 q 630 936 666 950 q 569 893 593 922 q 532 819 545 864 q 519 711 519 774 l 519 645 l 245 645 l 245 704 q 266 814 245 780 q 336 849 286 849 q 368 846 354 849 q 392 839 381 843 q 410 832 403 836 q 422 829 417 829 q 435 839 431 829 q 438 871 438 849 q 437 893 438 884 q 433 908 436 902 q 427 919 431 915 q 416 926 422 923 q 379 937 401 932 q 327 942 357 942 q 242 928 279 942 q 182 885 206 914 q 145 811 157 856 q 133 703 133 766 l 133 645 l 47 645 q 37 643 41 645 q 31 634 33 640 q 26 620 28 629 q 25 598 25 611 q 31 563 25 574 q 47 552 36 552 l 133 552 l 133 17 q 136 8 133 12 q 145 1 138 4 q 162 -3 151 -1 q 189 -4 173 -4 q 216 -3 205 -4 q 234 1 227 -1 q 243 8 240 4 q 245 17 245 12 l 245 552 l 519 552 l 519 17 q 522 8 519 12 q 531 1 525 4 q 549 -3 538 -1 q 576 -4 559 -4 q 603 -3 592 -4 q 620 1 614 -1 q 629 8 627 4 q 632 17 632 12 l 632 552 l 768 552 q 785 563 779 552 q 791 598 791 574 q 789 620 791 611 q 785 634 788 629 q 778 643 782 640 q 768 645 774 645 l 632 645 l 632 712 q 653 823 632 788 q 724 857 673 857 q 755 854 741 857 q 779 847 768 851 q 797 841 789 844 q 809 838 804 838 q 821 848 818 838 q 825 879 825 857 "},"ﬁ":{"ha":735,"x_min":25,"x_max":644,"o":"m 644 833 q 641 864 644 852 q 631 885 638 877 q 610 897 623 894 q 576 900 597 900 q 544 897 557 900 q 523 885 530 894 q 511 864 515 877 q 508 833 508 852 q 511 801 508 814 q 523 780 515 788 q 544 769 530 772 q 576 766 557 766 q 610 769 597 766 q 631 780 623 772 q 641 801 638 788 q 644 833 644 814 m 632 17 l 632 610 q 624 636 632 627 q 597 645 615 645 l 245 645 l 245 712 q 265 823 245 788 q 332 857 285 857 q 363 855 351 857 q 385 850 376 852 q 399 845 393 847 q 410 842 405 842 q 422 852 418 842 q 425 883 425 861 q 425 903 425 895 q 422 916 424 911 q 419 925 421 922 q 414 932 417 929 q 401 939 410 936 q 380 945 392 942 q 353 949 368 947 q 323 950 338 950 q 241 936 277 950 q 181 893 205 922 q 145 819 157 864 q 133 711 133 774 l 133 645 l 47 645 q 37 643 41 645 q 31 634 33 640 q 26 620 28 629 q 25 598 25 611 q 31 563 25 574 q 47 552 36 552 l 133 552 l 133 17 q 136 8 133 12 q 145 1 138 4 q 162 -3 151 -1 q 189 -4 173 -4 q 216 -3 205 -4 q 234 1 227 -1 q 243 8 240 4 q 245 17 245 12 l 245 552 l 519 552 l 519 17 q 522 8 519 12 q 531 1 525 4 q 549 -3 538 -1 q 576 -4 559 -4 q 603 -3 592 -4 q 620 1 614 -1 q 629 8 627 4 q 632 17 632 12 "},"ﬃ":{"ha":1122,"x_min":25,"x_max":1031,"o":"m 1031 833 q 1028 864 1031 852 q 1018 885 1025 877 q 997 897 1010 894 q 963 900 983 900 q 930 897 943 900 q 909 885 917 894 q 898 864 901 877 q 895 833 895 852 q 898 801 895 814 q 909 780 901 788 q 930 769 917 772 q 963 766 943 766 q 997 769 983 766 q 1018 780 1010 772 q 1028 801 1025 788 q 1031 833 1031 814 m 1019 17 l 1019 610 q 1010 636 1019 627 q 984 645 1002 645 l 632 645 l 632 712 q 652 823 632 788 q 719 857 672 857 q 750 855 737 857 q 771 850 763 852 q 786 845 780 847 q 797 842 792 842 q 809 852 806 842 q 812 883 812 861 q 812 903 812 895 q 809 916 811 911 q 806 925 808 922 q 800 932 804 929 q 788 939 797 936 q 767 945 779 942 q 740 949 755 947 q 709 950 724 950 q 628 936 663 950 q 568 893 592 922 q 532 819 545 864 q 519 711 519 774 l 519 645 l 245 645 l 245 704 q 266 814 245 780 q 336 849 286 849 q 367 846 353 849 q 392 839 381 843 q 410 832 403 836 q 422 829 417 829 q 435 839 431 829 q 438 871 438 849 q 437 893 438 884 q 433 908 436 902 q 427 919 431 915 q 412 927 422 923 q 379 937 401 932 q 327 942 357 942 q 242 928 279 942 q 182 885 206 914 q 145 811 157 856 q 133 703 133 766 l 133 645 l 47 645 q 37 643 41 645 q 31 634 33 640 q 26 620 28 629 q 25 598 25 611 q 31 563 25 574 q 47 552 36 552 l 133 552 l 133 17 q 136 8 133 12 q 145 1 138 4 q 162 -3 151 -1 q 189 -4 173 -4 q 216 -3 205 -4 q 234 1 227 -1 q 243 8 240 4 q 245 17 245 12 l 245 552 l 519 552 l 519 17 q 522 8 519 12 q 531 1 525 4 q 549 -3 538 -1 q 576 -4 559 -4 q 603 -3 592 -4 q 620 1 614 -1 q 629 8 627 4 q 632 17 632 12 l 632 552 l 907 552 l 907 17 q 909 8 907 12 q 918 1 911 4 q 936 -3 924 -1 q 962 -4 947 -4 q 990 -3 979 -4 q 1007 1 1001 -1 q 1017 8 1014 4 q 1019 17 1019 12 "},"ﬂ":{"ha":735,"x_min":25,"x_max":632,"o":"m 632 17 l 632 923 q 629 932 632 928 q 620 939 627 937 q 603 943 614 942 q 576 945 592 945 q 547 943 558 945 q 531 939 536 942 q 523 931 525 935 q 519 920 520 927 q 513 929 517 926 q 500 935 508 932 q 479 940 492 937 q 448 944 466 942 q 411 948 430 947 q 374 949 392 949 q 266 936 311 949 q 191 893 220 922 q 147 819 161 864 q 133 710 133 773 l 133 645 l 47 645 q 37 643 41 645 q 31 634 33 640 q 26 620 28 629 q 25 598 25 611 q 31 563 25 574 q 47 552 36 552 l 133 552 l 133 17 q 136 8 133 12 q 145 1 138 4 q 162 -3 151 -1 q 189 -4 173 -4 q 216 -3 205 -4 q 234 1 227 -1 q 243 8 240 4 q 245 17 245 12 l 245 552 l 371 552 q 388 563 382 552 q 393 598 393 574 q 392 620 393 611 q 388 634 391 629 q 380 643 385 640 q 371 645 376 645 l 245 645 l 245 711 q 251 777 245 749 q 273 822 257 804 q 315 848 288 840 q 385 857 342 857 q 416 855 399 857 q 450 851 432 854 q 484 845 468 848 q 508 841 500 841 q 515 842 513 841 q 519 845 518 843 l 519 17 q 522 8 519 12 q 531 1 525 4 q 549 -3 538 -1 q 576 -4 559 -4 q 603 -3 592 -4 q 620 1 614 -1 q 629 8 627 4 q 632 17 632 12 "},"ﬄ":{"ha":1122,"x_min":25,"x_max":1019,"o":"m 1019 17 l 1019 923 q 1017 932 1019 928 q 1007 939 1014 937 q 990 943 1001 942 q 962 945 979 945 q 935 943 945 945 q 918 939 924 942 q 909 931 911 935 q 907 920 907 927 q 899 930 904 926 q 887 936 895 933 q 866 940 880 938 q 834 945 852 943 q 798 949 817 947 q 761 950 779 950 q 652 936 698 950 q 577 893 607 922 q 534 819 548 864 q 519 711 519 774 l 519 645 l 245 645 l 245 704 q 266 814 245 780 q 336 849 286 849 q 368 846 354 849 q 392 839 381 843 q 410 832 403 836 q 422 829 417 829 q 435 839 431 829 q 438 871 438 849 q 437 893 438 884 q 433 908 436 902 q 427 919 431 915 q 412 927 422 923 q 379 937 401 932 q 327 942 357 942 q 242 928 279 942 q 182 885 206 914 q 145 811 157 856 q 133 703 133 766 l 133 645 l 47 645 q 37 643 41 645 q 31 634 33 640 q 26 620 28 629 q 25 598 25 611 q 31 563 25 574 q 47 552 36 552 l 133 552 l 133 17 q 136 8 133 12 q 145 1 138 4 q 162 -3 151 -1 q 189 -4 173 -4 q 216 -3 205 -4 q 234 1 227 -1 q 243 8 240 4 q 245 17 245 12 l 245 552 l 519 552 l 519 17 q 522 8 519 12 q 531 1 525 4 q 549 -3 538 -1 q 576 -4 559 -4 q 603 -3 592 -4 q 620 1 614 -1 q 629 8 627 4 q 632 17 632 12 l 632 552 l 758 552 q 774 563 768 552 q 780 598 780 574 q 779 620 780 611 q 774 634 777 629 q 767 643 771 640 q 758 645 764 645 l 632 645 l 632 712 q 638 777 632 749 q 660 822 644 804 q 703 849 675 840 q 772 857 730 857 q 802 856 786 857 q 837 852 819 854 q 870 845 854 849 q 895 842 886 842 q 902 843 899 842 q 907 846 905 844 l 907 17 q 909 8 907 12 q 918 1 911 4 q 936 -3 924 -1 q 962 -4 947 -4 q 990 -3 979 -4 q 1007 1 1001 -1 q 1017 8 1014 4 q 1019 17 1019 12 "},"g":{"ha":654,"x_min":36,"x_max":614,"o":"m 614 600 q 608 634 614 623 q 591 645 602 645 l 406 645 q 361 653 385 650 q 309 656 337 656 q 214 641 258 656 q 139 597 170 626 q 90 528 108 569 q 73 434 73 486 q 85 358 73 389 q 118 301 97 326 q 76 243 93 275 q 59 169 59 210 q 75 113 59 139 q 124 71 91 87 q 86 36 102 54 q 58 0 69 19 q 41 -40 47 -19 q 36 -83 36 -61 q 51 -149 36 -119 q 99 -201 66 -179 q 184 -235 132 -222 q 310 -248 236 -248 q 443 -231 387 -248 q 535 -185 499 -214 q 589 -119 572 -157 q 607 -39 607 -81 q 591 32 607 1 q 548 82 576 62 q 482 114 520 103 q 399 127 444 125 l 239 134 q 181 151 203 135 q 159 190 159 166 q 166 226 159 210 q 186 254 174 241 q 238 229 205 239 q 309 219 272 219 q 406 234 362 219 q 480 277 449 249 q 529 346 512 305 q 546 439 546 387 q 536 501 546 471 q 503 555 527 530 l 591 555 q 607 565 601 555 q 614 600 614 576 m 439 439 q 431 388 439 412 q 407 345 423 363 q 367 316 391 326 q 309 305 342 305 q 213 340 248 305 q 179 435 179 374 q 187 487 179 462 q 211 530 195 511 q 251 560 227 549 q 307 571 275 571 q 405 536 370 571 q 439 439 439 501 m 495 -45 q 486 -89 495 -68 q 456 -126 477 -110 q 400 -152 435 -142 q 315 -162 366 -162 q 191 -139 235 -162 q 146 -73 146 -117 q 149 -45 146 -58 q 160 -17 152 -31 q 182 12 168 -3 q 218 44 196 27 l 376 39 q 463 16 431 37 q 495 -45 495 -5 "},"ĝ":{"ha":654,"x_min":36,"x_max":614,"o":"m 614 600 q 608 634 614 623 q 591 645 602 645 l 406 645 q 361 653 385 650 q 309 656 337 656 q 214 641 258 656 q 139 597 170 626 q 90 528 108 569 q 73 434 73 486 q 85 358 73 389 q 118 301 97 326 q 76 243 93 275 q 59 169 59 210 q 75 113 59 139 q 124 71 91 87 q 86 36 102 54 q 58 0 69 19 q 41 -40 47 -19 q 36 -83 36 -61 q 51 -149 36 -119 q 99 -201 66 -179 q 184 -235 132 -222 q 310 -248 236 -248 q 443 -231 387 -248 q 535 -185 499 -214 q 589 -119 572 -157 q 607 -39 607 -81 q 591 32 607 1 q 548 82 576 62 q 482 114 520 103 q 399 127 444 125 l 239 134 q 181 151 203 135 q 159 190 159 166 q 166 226 159 210 q 186 254 174 241 q 238 229 205 239 q 309 219 272 219 q 406 234 362 219 q 480 277 449 249 q 529 346 512 305 q 546 439 546 387 q 536 501 546 471 q 503 555 527 530 l 591 555 q 607 565 601 555 q 614 600 614 576 m 439 439 q 431 388 439 412 q 407 345 423 363 q 367 316 391 326 q 309 305 342 305 q 213 340 248 305 q 179 435 179 374 q 187 487 179 462 q 211 530 195 511 q 251 560 227 549 q 307 571 275 571 q 405 536 370 571 q 439 439 439 501 m 495 -45 q 486 -89 495 -68 q 456 -126 477 -110 q 400 -152 435 -142 q 315 -162 366 -162 q 191 -139 235 -162 q 146 -73 146 -117 q 149 -45 146 -58 q 160 -17 152 -31 q 182 12 168 -3 q 218 44 196 27 l 376 39 q 463 16 431 37 q 495 -45 495 -5 m 239 760 l 327 882 l 415 760 q 423 750 420 754 q 432 744 427 746 q 446 741 437 742 q 469 740 454 740 q 496 742 486 740 q 510 749 507 745 q 510 761 513 753 q 500 778 507 768 l 388 933 q 380 941 385 938 q 369 946 376 944 q 353 950 362 949 q 329 951 343 951 q 303 950 314 951 q 286 947 293 949 q 274 942 279 945 q 266 933 269 939 l 154 778 q 143 761 146 768 q 144 749 140 753 q 157 742 147 745 q 185 740 167 740 q 207 741 198 740 q 221 744 215 742 q 231 750 227 746 q 239 760 235 753 m 53 645 "},"ğ":{"ha":654,"x_min":36,"x_max":614,"o":"m 614 600 q 608 634 614 623 q 591 645 602 645 l 406 645 q 361 653 385 650 q 309 656 337 656 q 214 641 258 656 q 139 597 170 626 q 90 528 108 569 q 73 434 73 486 q 85 358 73 389 q 118 301 97 326 q 76 243 93 275 q 59 169 59 210 q 75 113 59 139 q 124 71 91 87 q 86 36 102 54 q 58 0 69 19 q 41 -40 47 -19 q 36 -83 36 -61 q 51 -149 36 -119 q 99 -201 66 -179 q 184 -235 132 -222 q 310 -248 236 -248 q 443 -231 387 -248 q 535 -185 499 -214 q 589 -119 572 -157 q 607 -39 607 -81 q 591 32 607 1 q 548 82 576 62 q 482 114 520 103 q 399 127 444 125 l 239 134 q 181 151 203 135 q 159 190 159 166 q 166 226 159 210 q 186 254 174 241 q 238 229 205 239 q 309 219 272 219 q 406 234 362 219 q 480 277 449 249 q 529 346 512 305 q 546 439 546 387 q 536 501 546 471 q 503 555 527 530 l 591 555 q 607 565 601 555 q 614 600 614 576 m 439 439 q 431 388 439 412 q 407 345 423 363 q 367 316 391 326 q 309 305 342 305 q 213 340 248 305 q 179 435 179 374 q 187 487 179 462 q 211 530 195 511 q 251 560 227 549 q 307 571 275 571 q 405 536 370 571 q 439 439 439 501 m 495 -45 q 486 -89 495 -68 q 456 -126 477 -110 q 400 -152 435 -142 q 315 -162 366 -162 q 191 -139 235 -162 q 146 -73 146 -117 q 149 -45 146 -58 q 160 -17 152 -31 q 182 12 168 -3 q 218 44 196 27 l 376 39 q 463 16 431 37 q 495 -45 495 -5 m 422 926 q 414 879 421 898 q 394 847 406 859 q 364 828 381 834 q 327 823 347 823 q 286 830 303 823 q 257 850 269 837 q 240 883 246 864 q 233 926 235 903 q 231 935 233 931 q 224 941 229 939 q 212 945 220 943 q 192 946 204 946 q 161 941 169 946 q 153 925 153 936 q 162 848 153 882 q 194 791 172 814 q 248 755 215 768 q 327 743 281 743 q 403 755 370 743 q 458 789 436 766 q 491 847 480 812 q 503 927 503 881 q 501 936 503 932 q 495 942 499 939 q 483 945 490 944 q 462 946 475 946 q 431 941 439 946 q 422 926 422 936 m 63 645 "},"ġ":{"ha":654,"x_min":36,"x_max":614,"o":"m 614 600 q 608 634 614 623 q 591 645 602 645 l 406 645 q 361 653 385 650 q 309 656 337 656 q 214 641 258 656 q 139 597 170 626 q 90 528 108 569 q 73 434 73 486 q 85 358 73 389 q 118 301 97 326 q 76 243 93 275 q 59 169 59 210 q 75 113 59 139 q 124 71 91 87 q 86 36 102 54 q 58 0 69 19 q 41 -40 47 -19 q 36 -83 36 -61 q 51 -149 36 -119 q 99 -201 66 -179 q 184 -235 132 -222 q 310 -248 236 -248 q 443 -231 387 -248 q 535 -185 499 -214 q 589 -119 572 -157 q 607 -39 607 -81 q 591 32 607 1 q 548 82 576 62 q 482 114 520 103 q 399 127 444 125 l 239 134 q 181 151 203 135 q 159 190 159 166 q 166 226 159 210 q 186 254 174 241 q 238 229 205 239 q 309 219 272 219 q 406 234 362 219 q 480 277 449 249 q 529 346 512 305 q 546 439 546 387 q 536 501 546 471 q 503 555 527 530 l 591 555 q 607 565 601 555 q 614 600 614 576 m 439 439 q 431 388 439 412 q 407 345 423 363 q 367 316 391 326 q 309 305 342 305 q 213 340 248 305 q 179 435 179 374 q 187 487 179 462 q 211 530 195 511 q 251 560 227 549 q 307 571 275 571 q 405 536 370 571 q 439 439 439 501 m 495 -45 q 486 -89 495 -68 q 456 -126 477 -110 q 400 -152 435 -142 q 315 -162 366 -162 q 191 -139 235 -162 q 146 -73 146 -117 q 149 -45 146 -58 q 160 -17 152 -31 q 182 12 168 -3 q 218 44 196 27 l 376 39 q 463 16 431 37 q 495 -45 495 -5 m 397 836 q 382 886 397 872 q 330 900 368 900 q 276 886 291 900 q 262 833 262 871 q 276 783 262 797 q 328 769 290 769 q 382 783 367 769 q 397 836 397 798 m 172 645 "},"ģ":{"ha":654,"x_min":36,"x_max":614,"o":"m 614 600 q 608 634 614 623 q 591 645 602 645 l 406 645 q 361 653 385 650 q 309 656 337 656 q 214 641 258 656 q 139 597 170 626 q 90 528 108 569 q 73 434 73 486 q 85 358 73 389 q 118 301 97 326 q 76 243 93 275 q 59 169 59 210 q 75 113 59 139 q 124 71 91 87 q 86 36 102 54 q 58 0 69 19 q 41 -40 47 -19 q 36 -83 36 -61 q 51 -149 36 -119 q 99 -201 66 -179 q 184 -235 132 -222 q 310 -248 236 -248 q 443 -231 387 -248 q 535 -185 499 -214 q 589 -119 572 -157 q 607 -39 607 -81 q 591 32 607 1 q 548 82 576 62 q 482 114 520 103 q 399 127 444 125 l 239 134 q 181 151 203 135 q 159 190 159 166 q 166 226 159 210 q 186 254 174 241 q 238 229 205 239 q 309 219 272 219 q 406 234 362 219 q 480 277 449 249 q 529 346 512 305 q 546 439 546 387 q 536 501 546 471 q 503 555 527 530 l 591 555 q 607 565 601 555 q 614 600 614 576 m 439 439 q 431 388 439 412 q 407 345 423 363 q 367 316 391 326 q 309 305 342 305 q 213 340 248 305 q 179 435 179 374 q 187 487 179 462 q 211 530 195 511 q 251 560 227 549 q 307 571 275 571 q 405 536 370 571 q 439 439 439 501 m 495 -45 q 486 -89 495 -68 q 456 -126 477 -110 q 400 -152 435 -142 q 315 -162 366 -162 q 191 -139 235 -162 q 146 -73 146 -117 q 149 -45 146 -58 q 160 -17 152 -31 q 182 12 168 -3 q 218 44 196 27 l 376 39 q 463 16 431 37 q 495 -45 495 -5 m 376 747 l 456 910 q 460 922 460 917 q 456 931 460 928 q 445 937 452 935 q 425 939 437 939 q 400 938 410 939 q 382 935 389 937 q 370 928 375 932 q 361 918 365 924 l 264 754 q 258 742 259 747 q 263 732 258 736 q 279 726 268 728 q 309 724 290 724 q 337 725 326 724 q 356 728 349 726 q 368 736 363 731 q 376 747 372 741 m 169 645 "},"h":{"ha":730,"x_min":104,"x_max":629,"o":"m 629 17 l 629 389 q 618 501 629 454 q 581 582 607 547 q 514 637 555 616 q 411 658 472 658 q 313 633 361 658 q 216 557 264 608 l 216 923 q 213 932 216 928 q 204 939 210 937 q 187 943 198 942 q 159 945 176 945 q 132 943 143 945 q 115 939 121 942 q 106 932 109 937 q 104 923 104 928 l 104 17 q 106 8 104 12 q 115 1 109 4 q 132 -3 121 -1 q 159 -4 143 -4 q 187 -3 176 -4 q 204 1 198 -1 q 213 8 210 4 q 216 17 216 12 l 216 444 q 304 531 262 501 q 388 561 346 561 q 445 549 420 561 q 486 513 470 536 q 509 458 501 490 q 517 374 517 427 l 517 17 q 520 8 517 12 q 529 1 523 4 q 546 -3 535 -1 q 574 -4 557 -4 q 601 -3 590 -4 q 618 1 612 -1 q 627 8 624 4 q 629 17 629 12 "},"ĥ":{"ha":730,"x_min":-56,"x_max":629,"o":"m 629 17 l 629 389 q 618 501 629 454 q 581 582 607 547 q 514 637 555 616 q 411 658 472 658 q 313 633 361 658 q 216 557 264 608 l 216 858 q 213 867 216 863 q 204 874 210 871 q 187 878 198 877 q 159 880 176 880 q 132 878 143 880 q 115 874 121 877 q 106 867 109 871 q 104 858 104 863 l 104 17 q 106 8 104 12 q 115 1 109 4 q 132 -3 121 -1 q 159 -4 143 -4 q 187 -3 176 -4 q 204 1 198 -1 q 213 8 210 4 q 216 17 216 12 l 216 444 q 304 531 262 501 q 388 561 346 561 q 445 549 420 561 q 486 513 470 536 q 509 458 501 490 q 517 374 517 427 l 517 17 q 520 8 517 12 q 529 1 523 4 q 546 -3 535 -1 q 574 -4 557 -4 q 601 -3 590 -4 q 618 1 612 -1 q 627 8 624 4 q 629 17 629 12 m 170 1145 q 146 1145 157 1145 q 129 1142 136 1144 q 116 1136 121 1139 q 105 1126 111 1132 l -47 972 q -55 960 -54 965 q -53 952 -56 956 q -39 948 -49 949 q -14 946 -30 946 q 17 947 5 946 q 38 949 29 947 q 52 955 46 951 q 62 964 57 959 l 170 1078 l 274 961 q 282 955 278 958 q 294 950 287 951 q 314 947 302 948 q 347 946 326 946 q 371 947 361 946 q 384 952 380 949 q 387 960 388 955 q 380 972 386 965 l 234 1126 q 223 1136 229 1132 q 211 1142 218 1139 q 195 1145 204 1144 q 170 1145 185 1145 "},"ħ":{"ha":740,"x_min":-5,"x_max":640,"o":"m 640 17 l 640 381 q 628 493 640 447 q 591 574 617 539 q 524 629 566 609 q 421 650 482 650 q 323 626 372 650 q 226 549 275 602 l 226 748 l 388 748 q 397 750 393 748 q 405 758 401 753 q 409 772 408 764 q 410 792 410 781 q 409 813 410 804 q 405 827 408 821 q 397 834 401 832 q 388 836 393 836 l 226 836 l 226 924 q 223 933 226 929 q 214 940 220 937 q 197 944 208 943 q 170 945 186 945 q 142 944 153 945 q 125 940 132 943 q 116 933 119 937 q 114 924 114 929 l 114 836 l 18 836 q 9 834 13 836 q 2 827 5 832 q -3 813 -1 821 q -5 792 -5 804 q -3 772 -5 781 q 2 758 -1 764 q 9 750 5 753 q 18 748 13 748 l 114 748 l 114 17 q 116 8 114 12 q 125 1 119 4 q 142 -3 132 -1 q 170 -4 153 -4 q 197 -3 186 -4 q 214 1 208 -1 q 223 8 220 4 q 226 17 226 12 l 226 436 q 314 524 273 494 q 398 553 356 553 q 455 541 431 553 q 496 506 480 529 q 520 451 512 483 q 528 366 528 419 l 528 17 q 530 8 528 12 q 539 1 532 4 q 556 -3 545 -1 q 584 -4 566 -4 q 611 -3 600 -4 q 628 1 622 -1 q 637 8 634 4 q 640 17 640 12 "},"i":{"ha":319,"x_min":90,"x_max":229,"o":"m 216 17 l 216 627 q 213 636 216 632 q 204 643 210 640 q 187 647 198 646 q 159 648 176 648 q 132 647 143 648 q 115 643 121 646 q 106 636 109 640 q 104 627 104 632 l 104 17 q 106 8 104 12 q 115 1 109 4 q 132 -3 121 -1 q 159 -4 143 -4 q 187 -3 176 -4 q 204 1 198 -1 q 213 8 210 4 q 216 17 216 12 m 229 833 q 214 886 229 872 q 160 900 199 900 q 105 886 120 900 q 90 832 90 871 q 105 780 90 793 q 159 766 119 766 q 214 780 199 766 q 229 833 229 794 "},"ì":{"ha":319,"x_min":-99,"x_max":217,"o":"m 216 17 l 216 627 q 213 636 216 633 q 204 643 210 640 q 187 647 198 646 q 159 648 176 648 q 132 647 143 648 q 115 643 121 646 q 106 636 109 640 q 104 627 104 633 l 104 17 q 106 8 104 12 q 115 1 109 4 q 132 -3 121 -1 q 159 -4 143 -4 q 187 -3 176 -4 q 204 1 198 -1 q 213 8 210 4 q 216 17 216 12 m 210 769 l 112 926 q 101 938 106 933 q 88 945 96 943 q 70 949 81 948 q 42 951 58 951 q 11 948 23 951 q -5 942 -1 946 q -9 931 -10 937 q -3 920 -9 926 l 119 762 q 129 751 124 755 q 140 744 134 747 q 155 741 146 742 q 178 740 164 740 q 201 742 193 740 q 213 747 210 744 q 216 756 217 751 q 210 769 214 762 m -99 645 "},"í":{"ha":319,"x_min":10,"x_max":326,"o":"m 216 17 l 216 627 q 213 636 216 633 q 204 643 210 640 q 187 647 198 646 q 159 648 176 648 q 132 647 143 648 q 115 643 121 646 q 106 636 109 640 q 104 627 104 633 l 104 17 q 106 8 104 12 q 115 1 109 4 q 132 -3 121 -1 q 159 -4 143 -4 q 187 -3 176 -4 q 204 1 198 -1 q 213 8 210 4 q 216 17 216 12 m 204 926 l 106 769 q 100 756 101 762 q 103 747 99 751 q 115 742 106 744 q 139 740 124 740 q 162 741 153 740 q 177 744 171 742 q 187 751 182 747 q 197 762 191 755 l 319 920 q 326 931 325 926 q 321 942 326 937 q 305 948 317 946 q 274 951 293 951 q 246 949 258 951 q 227 945 235 948 q 214 938 219 943 q 204 926 208 933 m 10 645 "},"î":{"ha":319,"x_min":-113,"x_max":347,"o":"m 216 17 l 216 627 q 213 636 216 633 q 204 643 210 640 q 187 647 198 646 q 159 648 176 648 q 132 647 143 648 q 115 643 121 646 q 106 636 109 640 q 104 627 104 633 l 104 17 q 106 8 104 12 q 115 1 109 4 q 132 -3 121 -1 q 159 -4 143 -4 q 187 -3 176 -4 q 204 1 198 -1 q 213 8 210 4 q 216 17 216 12 m 73 760 l 161 882 l 250 760 q 258 750 254 754 q 267 744 261 746 q 280 741 272 742 q 303 740 289 740 q 331 742 321 740 q 344 749 341 745 q 345 761 347 753 q 334 778 342 768 l 222 933 q 215 941 219 938 q 203 946 210 944 q 187 950 197 949 q 163 951 178 951 q 138 950 149 951 q 120 947 127 949 q 109 942 113 945 q 100 933 104 939 l -12 778 q -22 761 -20 768 q -22 749 -25 753 q -8 742 -18 745 q 20 740 1 740 q 41 741 33 740 q 55 744 50 742 q 65 750 61 746 q 73 760 69 753 m -113 645 "},"ĩ":{"ha":319,"x_min":-152,"x_max":387,"o":"m 216 17 l 216 627 q 213 636 216 633 q 204 643 210 640 q 187 647 198 646 q 159 648 176 648 q 132 647 143 648 q 115 643 121 646 q 106 636 109 640 q 104 627 104 633 l 104 17 q 106 8 104 12 q 115 1 109 4 q 132 -3 121 -1 q 159 -4 143 -4 q 187 -3 176 -4 q 204 1 198 -1 q 213 8 210 4 q 216 17 216 12 m 387 891 q 378 914 387 909 q 345 919 370 919 q 314 915 321 919 q 307 901 307 911 q 295 847 307 865 q 258 829 282 829 q 217 844 236 829 q 177 874 199 858 q 130 905 156 891 q 66 919 103 919 q -31 879 3 919 q -64 772 -64 839 q -62 757 -64 763 q -56 748 -60 751 q -44 744 -52 745 q -26 743 -37 743 q -4 744 -13 743 q 8 747 4 745 q 14 752 13 749 q 16 761 16 756 q 26 813 16 793 q 64 833 37 833 q 92 826 79 833 q 118 810 105 820 q 145 788 132 800 q 175 766 159 777 q 211 750 191 756 q 256 743 231 743 q 351 781 316 743 q 387 891 387 819 m -152 645 "},"ï":{"ha":319,"x_min":-96,"x_max":328,"o":"m 216 17 l 216 627 q 213 636 216 633 q 204 643 210 640 q 187 647 198 646 q 159 648 176 648 q 132 647 143 648 q 115 643 121 646 q 106 636 109 640 q 104 627 104 633 l 104 17 q 106 8 104 12 q 115 1 109 4 q 132 -3 121 -1 q 159 -4 143 -4 q 187 -3 176 -4 q 204 1 198 -1 q 213 8 210 4 q 216 17 216 12 m 117 825 q 103 875 117 861 q 55 888 90 888 q 6 874 20 888 q -7 823 -7 861 q 6 774 -7 787 q 54 761 19 761 q 103 775 90 761 q 117 825 117 789 m 328 825 q 314 875 328 861 q 265 888 301 888 q 217 874 231 888 q 204 823 204 861 q 217 774 204 787 q 265 761 230 761 q 314 775 300 761 q 328 825 328 789 m -96 645 "},"ī":{"ha":319,"x_min":-114,"x_max":345,"o":"m 216 17 l 216 627 q 213 636 216 633 q 204 643 210 640 q 187 647 198 646 q 159 648 176 648 q 132 647 143 648 q 115 643 121 646 q 106 636 109 640 q 104 627 104 633 l 104 17 q 106 8 104 12 q 115 1 109 4 q 132 -3 121 -1 q 159 -4 143 -4 q 187 -3 176 -4 q 204 1 198 -1 q 213 8 210 4 q 216 17 216 12 m 323 877 l -2 877 q -12 874 -7 877 q -19 867 -16 872 q -23 853 -22 862 q -24 833 -24 845 q -23 813 -24 821 q -19 800 -22 806 q -12 792 -16 795 q -2 789 -7 789 l 323 789 q 332 792 328 789 q 339 800 336 795 q 343 813 341 806 q 345 833 345 821 q 343 853 345 845 q 339 867 341 862 q 332 874 336 872 q 323 877 328 877 m -114 645 "},"ĭ":{"ha":319,"x_min":-104,"x_max":336,"o":"m 216 17 l 216 627 q 213 636 216 633 q 204 643 210 640 q 187 647 198 646 q 159 648 176 648 q 132 647 143 648 q 115 643 121 646 q 106 636 109 640 q 104 627 104 633 l 104 17 q 106 8 104 12 q 115 1 109 4 q 132 -3 121 -1 q 159 -4 143 -4 q 187 -3 176 -4 q 204 1 198 -1 q 213 8 210 4 q 216 17 216 12 m 256 926 q 247 879 254 898 q 227 847 239 859 q 197 828 214 834 q 160 823 180 823 q 119 830 136 823 q 91 850 102 837 q 74 883 79 864 q 66 926 68 903 q 64 935 66 931 q 57 941 62 939 q 45 945 53 943 q 25 946 37 946 q -6 941 2 946 q -14 925 -14 936 q -4 848 -14 882 q 27 791 5 814 q 81 755 48 768 q 160 743 114 743 q 236 755 203 743 q 291 789 269 766 q 325 847 313 812 q 336 927 336 881 q 334 936 336 932 q 328 942 332 939 q 316 945 323 944 q 295 946 308 946 q 264 941 272 946 q 256 926 256 936 m -104 645 "},"į":{"ha":319,"x_min":12,"x_max":262,"o":"m 152 -71 l 202 -22 q 212 -3 208 -15 q 216 17 216 9 l 216 627 q 213 636 216 632 q 204 643 210 640 q 187 647 198 646 q 159 648 176 648 q 132 647 143 648 q 115 643 121 646 q 106 636 109 640 q 104 627 104 632 l 104 0 l 65 -39 q 37 -71 47 -56 q 20 -98 26 -85 q 13 -123 15 -111 q 12 -146 12 -135 q 21 -190 12 -171 q 46 -221 30 -209 q 87 -241 63 -234 q 142 -248 112 -248 q 194 -244 171 -248 q 239 -235 218 -241 q 251 -231 246 -233 q 257 -225 255 -229 q 261 -214 260 -220 q 262 -197 262 -208 q 261 -181 262 -187 q 257 -171 260 -174 q 251 -166 255 -168 q 242 -165 248 -165 l 170 -165 q 132 -156 144 -165 q 120 -130 120 -147 q 126 -105 120 -118 q 152 -71 132 -92 m 229 833 q 214 886 229 872 q 160 900 199 900 q 105 886 120 900 q 90 832 90 871 q 105 780 90 793 q 159 766 119 766 q 214 780 199 766 q 229 833 229 794 "}}}
